M48
;GenerationSoftware,Autodesk,EAGLE,8.6.3*%
;CreationDate,2018-03-05T01:58:30Z*%
FMAT,2
ICI,OFF
METRIC,TZ,000.000
T2C0.350
T1C0.813
%
G90
M71
T1
X66294Y69469
X66294Y72009
X43815Y71882
X43815Y69342
X43815Y56642
X43815Y54102
X43815Y64262
X43815Y59182
X43815Y61722
X51435Y54102
X51435Y56642
X51435Y59182
X51435Y61722
X43815Y66802
X51435Y64262
X51435Y66802
X51435Y69342
X51435Y71882
X58674Y15240
X58674Y17780
X58674Y20320
X58674Y22860
X58674Y25400
X58674Y27940
X58674Y30480
X58674Y33020
X58674Y35560
X58674Y38100
X58674Y40640
X58674Y43180
X58674Y45720
X58674Y48260
X51054Y45720
X51054Y43180
X51054Y40640
X51054Y38100
X51054Y35560
X51054Y33020
X51054Y30480
X51054Y27940
X58674Y61849
X51054Y25400
X51054Y22860
X51054Y20320
X51054Y17780
X51054Y15240
X58674Y72009
X58674Y69469
X58674Y56769
X58674Y54229
X58674Y66929
X58674Y64389
X58674Y59309
X51054Y48260
X66294Y54229
X66294Y56769
X66294Y59309
X66294Y61849
X66294Y64389
X66294Y66929
T2
X78740Y36830
X68580Y36830
X69596Y18796
X43180Y12446
X43434Y23622
X43180Y33782
X42926Y44704
X68834Y46990
X73914Y52070
X74930Y28448
X70358Y65024
X60706Y66802
X68326Y60706
X46228Y64516
X46482Y60452
X45466Y65532
X45466Y60452
X45466Y50292
X47498Y54610
X42926Y37084
X47013Y33020
X42926Y47498
X47013Y43180
X42926Y26162
X48514Y22860
X42926Y15240
X48514Y20320
X55880Y53086
X55880Y50800
X59436Y50800
X60960Y53340
X60198Y49784
X62230Y53340
X61468Y48006
X56896Y55118
X41910Y61976
X41910Y69088
X47752Y50498
X47498Y53340
X53179Y53501
X48768Y48768
X48768Y56388
X68237Y30950
X68237Y24168
X58674Y60452
X49711Y43180
M30