G04 EAGLE Gerber X2 export*
%TF.Part,Single*%
%TF.FileFunction,Copper,L2,Bot,Mixed*%
%TF.FilePolarity,Positive*%
%TF.GenerationSoftware,Autodesk,EAGLE,8.6.3*%
%TF.CreationDate,2018-03-05T01:58:30Z*%
G75*
%MOMM*%
%FSLAX34Y34*%
%LPD*%
%AMOC8*
5,1,8,0,0,1.08239X$1,22.5*%
G01*
%ADD10C,1.320800*%
%ADD11C,1.625600*%
%ADD12C,0.756400*%
%ADD13C,0.381000*%
%ADD14C,0.254000*%
%ADD15C,0.508000*%

G36*
X802705Y104152D02*
X802705Y104152D01*
X802771Y104154D01*
X802814Y104172D01*
X802861Y104180D01*
X802918Y104214D01*
X802978Y104239D01*
X803013Y104270D01*
X803054Y104295D01*
X803096Y104346D01*
X803144Y104390D01*
X803166Y104432D01*
X803195Y104469D01*
X803216Y104531D01*
X803247Y104590D01*
X803255Y104644D01*
X803267Y104681D01*
X803266Y104721D01*
X803274Y104775D01*
X803274Y743485D01*
X803263Y743550D01*
X803261Y743616D01*
X803243Y743659D01*
X803235Y743706D01*
X803201Y743763D01*
X803176Y743823D01*
X803145Y743858D01*
X803120Y743899D01*
X803069Y743941D01*
X803025Y743989D01*
X802983Y744011D01*
X802946Y744040D01*
X802884Y744061D01*
X802825Y744092D01*
X802771Y744100D01*
X802734Y744112D01*
X802694Y744111D01*
X802640Y744119D01*
X363855Y744119D01*
X363790Y744108D01*
X363724Y744106D01*
X363681Y744088D01*
X363634Y744080D01*
X363577Y744046D01*
X363517Y744021D01*
X363482Y743990D01*
X363441Y743965D01*
X363399Y743914D01*
X363351Y743870D01*
X363329Y743828D01*
X363300Y743791D01*
X363279Y743729D01*
X363248Y743670D01*
X363240Y743616D01*
X363228Y743579D01*
X363228Y743560D01*
X363228Y743558D01*
X363228Y743536D01*
X363221Y743485D01*
X363221Y104775D01*
X363232Y104710D01*
X363234Y104644D01*
X363252Y104601D01*
X363260Y104554D01*
X363294Y104497D01*
X363319Y104437D01*
X363350Y104402D01*
X363375Y104361D01*
X363426Y104319D01*
X363470Y104271D01*
X363512Y104249D01*
X363549Y104220D01*
X363611Y104199D01*
X363670Y104168D01*
X363724Y104160D01*
X363761Y104148D01*
X363801Y104149D01*
X363855Y104141D01*
X802640Y104141D01*
X802705Y104152D01*
G37*
%LPC*%
G36*
X429626Y582167D02*
X429626Y582167D01*
X426078Y583637D01*
X423363Y586352D01*
X421893Y589900D01*
X421893Y593740D01*
X423363Y597288D01*
X426078Y600003D01*
X429626Y601473D01*
X446674Y601473D01*
X447498Y601131D01*
X447585Y601112D01*
X447670Y601087D01*
X447694Y601089D01*
X447717Y601084D01*
X447805Y601096D01*
X447894Y601102D01*
X447916Y601112D01*
X447939Y601115D01*
X448018Y601157D01*
X448099Y601194D01*
X448116Y601211D01*
X448137Y601222D01*
X448195Y601289D01*
X448259Y601351D01*
X448269Y601373D01*
X448285Y601391D01*
X448316Y601474D01*
X448354Y601555D01*
X448356Y601578D01*
X448364Y601600D01*
X448365Y601690D01*
X448372Y601778D01*
X448366Y601804D01*
X448366Y601825D01*
X448349Y601872D01*
X448327Y601960D01*
X447829Y603161D01*
X447829Y605879D01*
X448602Y607744D01*
X448621Y607831D01*
X448646Y607916D01*
X448645Y607940D01*
X448650Y607963D01*
X448637Y608051D01*
X448631Y608140D01*
X448621Y608162D01*
X448618Y608185D01*
X448576Y608263D01*
X448539Y608345D01*
X448523Y608361D01*
X448511Y608382D01*
X448444Y608441D01*
X448382Y608504D01*
X448360Y608514D01*
X448342Y608530D01*
X448259Y608562D01*
X448179Y608599D01*
X448155Y608601D01*
X448133Y608610D01*
X448044Y608610D01*
X447955Y608618D01*
X447929Y608611D01*
X447908Y608612D01*
X447861Y608594D01*
X447773Y608572D01*
X447421Y608427D01*
X445655Y608075D01*
X439419Y608075D01*
X439419Y616585D01*
X439408Y616650D01*
X439406Y616715D01*
X439388Y616759D01*
X439380Y616806D01*
X439346Y616862D01*
X439321Y616923D01*
X439289Y616958D01*
X439265Y616999D01*
X439214Y617040D01*
X439170Y617089D01*
X439128Y617111D01*
X439091Y617140D01*
X439029Y617161D01*
X438970Y617191D01*
X438916Y617200D01*
X438879Y617212D01*
X438839Y617211D01*
X438785Y617219D01*
X437515Y617219D01*
X437450Y617207D01*
X437384Y617206D01*
X437341Y617188D01*
X437294Y617179D01*
X437237Y617146D01*
X437177Y617121D01*
X437142Y617089D01*
X437101Y617065D01*
X437060Y617014D01*
X437011Y616970D01*
X436989Y616928D01*
X436960Y616891D01*
X436939Y616829D01*
X436908Y616770D01*
X436900Y616716D01*
X436888Y616679D01*
X436889Y616639D01*
X436881Y616585D01*
X436881Y608075D01*
X430645Y608075D01*
X428879Y608427D01*
X427214Y609116D01*
X425717Y610117D01*
X424443Y611391D01*
X423442Y612888D01*
X423233Y613392D01*
X423198Y613447D01*
X423171Y613507D01*
X423138Y613541D01*
X423112Y613581D01*
X423060Y613620D01*
X423013Y613667D01*
X422971Y613687D01*
X422933Y613716D01*
X422870Y613735D01*
X422810Y613762D01*
X422763Y613766D01*
X422718Y613780D01*
X422652Y613775D01*
X422587Y613781D01*
X422533Y613767D01*
X422494Y613765D01*
X422458Y613749D01*
X422405Y613735D01*
X420459Y612929D01*
X417741Y612929D01*
X415231Y613969D01*
X413309Y615891D01*
X412269Y618401D01*
X412269Y621119D01*
X413309Y623629D01*
X414595Y624916D01*
X414620Y624950D01*
X414651Y624979D01*
X414683Y625042D01*
X414724Y625100D01*
X414734Y625141D01*
X414754Y625179D01*
X414767Y625268D01*
X414780Y625317D01*
X414777Y625338D01*
X414781Y625364D01*
X414781Y685276D01*
X414774Y685318D01*
X414776Y685360D01*
X414754Y685427D01*
X414742Y685497D01*
X414720Y685533D01*
X414707Y685574D01*
X414653Y685646D01*
X414627Y685690D01*
X414611Y685703D01*
X414595Y685724D01*
X413309Y687011D01*
X412269Y689521D01*
X412269Y692239D01*
X413309Y694749D01*
X415231Y696671D01*
X417741Y697711D01*
X420459Y697711D01*
X421935Y697099D01*
X422000Y697085D01*
X422061Y697062D01*
X422108Y697061D01*
X422155Y697051D01*
X422220Y697060D01*
X422286Y697060D01*
X422330Y697076D01*
X422377Y697083D01*
X422435Y697114D01*
X422496Y697136D01*
X422532Y697167D01*
X422574Y697190D01*
X422617Y697239D01*
X422668Y697282D01*
X422696Y697329D01*
X422722Y697358D01*
X422736Y697395D01*
X422764Y697442D01*
X423363Y698888D01*
X426078Y701603D01*
X429626Y703073D01*
X446674Y703073D01*
X450222Y701603D01*
X452937Y698888D01*
X454407Y695340D01*
X454407Y691500D01*
X452937Y687952D01*
X450222Y685237D01*
X446674Y683767D01*
X429626Y683767D01*
X426078Y685237D01*
X425046Y686269D01*
X424992Y686307D01*
X424944Y686352D01*
X424901Y686370D01*
X424862Y686397D01*
X424798Y686413D01*
X424737Y686439D01*
X424690Y686441D01*
X424645Y686453D01*
X424579Y686446D01*
X424513Y686449D01*
X424468Y686435D01*
X424421Y686430D01*
X424362Y686401D01*
X424300Y686380D01*
X424256Y686348D01*
X424220Y686330D01*
X424193Y686302D01*
X424149Y686269D01*
X423604Y685724D01*
X423580Y685690D01*
X423549Y685661D01*
X423517Y685598D01*
X423476Y685540D01*
X423466Y685499D01*
X423446Y685461D01*
X423433Y685372D01*
X423420Y685323D01*
X423423Y685302D01*
X423419Y685276D01*
X423419Y675075D01*
X423435Y674987D01*
X423444Y674899D01*
X423454Y674878D01*
X423458Y674854D01*
X423504Y674777D01*
X423543Y674698D01*
X423560Y674681D01*
X423573Y674661D01*
X423642Y674605D01*
X423706Y674544D01*
X423728Y674535D01*
X423747Y674520D01*
X423831Y674491D01*
X423913Y674456D01*
X423937Y674455D01*
X423959Y674448D01*
X424048Y674450D01*
X424137Y674446D01*
X424160Y674454D01*
X424184Y674454D01*
X424266Y674488D01*
X424351Y674515D01*
X424372Y674531D01*
X424391Y674539D01*
X424429Y674573D01*
X424501Y674626D01*
X426078Y676203D01*
X429626Y677673D01*
X446674Y677673D01*
X450222Y676203D01*
X452937Y673488D01*
X454407Y669940D01*
X454407Y666100D01*
X453134Y663028D01*
X453118Y662952D01*
X453093Y662879D01*
X453094Y662843D01*
X453086Y662809D01*
X453097Y662732D01*
X453099Y662654D01*
X453113Y662622D01*
X453118Y662586D01*
X453155Y662518D01*
X453184Y662447D01*
X453208Y662420D01*
X453225Y662389D01*
X453283Y662338D01*
X453335Y662281D01*
X453367Y662265D01*
X453393Y662241D01*
X453466Y662214D01*
X453535Y662178D01*
X453575Y662172D01*
X453603Y662162D01*
X453650Y662161D01*
X453720Y662151D01*
X456019Y662151D01*
X458529Y661111D01*
X460451Y659189D01*
X461491Y656679D01*
X461491Y653961D01*
X461038Y652868D01*
X461021Y652792D01*
X460996Y652719D01*
X460997Y652683D01*
X460990Y652649D01*
X461001Y652572D01*
X461003Y652494D01*
X461016Y652462D01*
X461021Y652426D01*
X461058Y652358D01*
X461087Y652287D01*
X461111Y652260D01*
X461128Y652229D01*
X461186Y652178D01*
X461239Y652121D01*
X461270Y652105D01*
X461297Y652081D01*
X461369Y652054D01*
X461438Y652018D01*
X461478Y652012D01*
X461507Y652002D01*
X461553Y652001D01*
X461624Y651991D01*
X463639Y651991D01*
X466149Y650951D01*
X468071Y649029D01*
X469111Y646519D01*
X469111Y644700D01*
X469118Y644658D01*
X469116Y644615D01*
X469138Y644548D01*
X469139Y644544D01*
X469139Y610124D01*
X469146Y610082D01*
X469144Y610040D01*
X469166Y609973D01*
X469178Y609903D01*
X469200Y609867D01*
X469213Y609826D01*
X469267Y609754D01*
X469293Y609710D01*
X469309Y609697D01*
X469325Y609676D01*
X470611Y608389D01*
X471651Y605879D01*
X471651Y603161D01*
X470611Y600651D01*
X468689Y598729D01*
X466179Y597689D01*
X463461Y597689D01*
X460951Y598729D01*
X460189Y599491D01*
X460134Y599529D01*
X460087Y599574D01*
X460043Y599593D01*
X460004Y599619D01*
X459941Y599636D01*
X459880Y599662D01*
X459833Y599664D01*
X459787Y599675D01*
X459722Y599669D01*
X459656Y599672D01*
X459611Y599657D01*
X459564Y599652D01*
X459505Y599623D01*
X459442Y599603D01*
X459398Y599570D01*
X459363Y599553D01*
X459336Y599524D01*
X459292Y599491D01*
X458529Y598729D01*
X456019Y597689D01*
X453720Y597689D01*
X453644Y597676D01*
X453567Y597670D01*
X453534Y597656D01*
X453499Y597650D01*
X453433Y597610D01*
X453362Y597578D01*
X453337Y597554D01*
X453306Y597535D01*
X453257Y597475D01*
X453202Y597421D01*
X453187Y597389D01*
X453165Y597361D01*
X453140Y597288D01*
X453107Y597218D01*
X453104Y597182D01*
X453093Y597149D01*
X453095Y597071D01*
X453089Y596994D01*
X453099Y596955D01*
X453099Y596924D01*
X453117Y596881D01*
X453134Y596812D01*
X454407Y593740D01*
X454407Y589900D01*
X452937Y586352D01*
X450222Y583637D01*
X446674Y582167D01*
X429626Y582167D01*
G37*
%LPD*%
%LPC*%
G36*
X508317Y420623D02*
X508317Y420623D01*
X504209Y422325D01*
X501006Y425528D01*
X500983Y425564D01*
X500930Y425604D01*
X500883Y425651D01*
X500841Y425671D01*
X500803Y425699D01*
X500740Y425718D01*
X500680Y425746D01*
X500633Y425750D01*
X500588Y425763D01*
X500522Y425759D01*
X500457Y425764D01*
X500404Y425751D01*
X500364Y425749D01*
X500328Y425732D01*
X500275Y425719D01*
X498465Y424969D01*
X495747Y424969D01*
X493237Y426009D01*
X491315Y427931D01*
X490275Y430441D01*
X490275Y433159D01*
X491315Y435669D01*
X492601Y436956D01*
X492626Y436990D01*
X492657Y437019D01*
X492689Y437082D01*
X492730Y437140D01*
X492740Y437181D01*
X492760Y437219D01*
X492773Y437308D01*
X492786Y437357D01*
X492783Y437378D01*
X492787Y437404D01*
X492787Y481596D01*
X492772Y481684D01*
X492762Y481772D01*
X492752Y481793D01*
X492748Y481817D01*
X492702Y481893D01*
X492663Y481973D01*
X492646Y481990D01*
X492633Y482010D01*
X492564Y482066D01*
X492500Y482127D01*
X492478Y482136D01*
X492459Y482151D01*
X492375Y482180D01*
X492293Y482215D01*
X492269Y482216D01*
X492247Y482223D01*
X492158Y482221D01*
X492069Y482225D01*
X492046Y482217D01*
X492022Y482217D01*
X491940Y482183D01*
X491855Y482156D01*
X491834Y482140D01*
X491815Y482132D01*
X491777Y482098D01*
X491705Y482044D01*
X491549Y481889D01*
X489039Y480849D01*
X486321Y480849D01*
X483811Y481889D01*
X481889Y483811D01*
X480849Y486321D01*
X480849Y489039D01*
X481889Y491549D01*
X483175Y492836D01*
X483200Y492870D01*
X483231Y492899D01*
X483263Y492962D01*
X483304Y493020D01*
X483314Y493061D01*
X483334Y493099D01*
X483347Y493188D01*
X483360Y493237D01*
X483357Y493258D01*
X483361Y493284D01*
X483361Y499630D01*
X483346Y499718D01*
X483336Y499806D01*
X483326Y499827D01*
X483322Y499851D01*
X483276Y499928D01*
X483237Y500007D01*
X483220Y500023D01*
X483207Y500044D01*
X483138Y500100D01*
X483074Y500161D01*
X483052Y500170D01*
X483033Y500185D01*
X482949Y500214D01*
X482867Y500249D01*
X482843Y500250D01*
X482821Y500257D01*
X482732Y500255D01*
X482643Y500259D01*
X482620Y500251D01*
X482596Y500251D01*
X482514Y500217D01*
X482429Y500190D01*
X482408Y500174D01*
X482389Y500166D01*
X482351Y500132D01*
X482279Y500078D01*
X481389Y499189D01*
X478879Y498149D01*
X476161Y498149D01*
X473651Y499189D01*
X471729Y501111D01*
X470689Y503621D01*
X470689Y505440D01*
X470682Y505482D01*
X470684Y505525D01*
X470662Y505592D01*
X470661Y505596D01*
X470661Y527796D01*
X470654Y527838D01*
X470656Y527880D01*
X470634Y527947D01*
X470622Y528017D01*
X470600Y528053D01*
X470587Y528094D01*
X470540Y528157D01*
X470540Y528158D01*
X470538Y528160D01*
X470533Y528166D01*
X470507Y528210D01*
X470491Y528223D01*
X470475Y528244D01*
X469189Y529531D01*
X468710Y530687D01*
X468669Y530752D01*
X468634Y530821D01*
X468608Y530845D01*
X468589Y530875D01*
X468527Y530922D01*
X468471Y530975D01*
X468438Y530989D01*
X468410Y531010D01*
X468336Y531032D01*
X468264Y531062D01*
X468229Y531064D01*
X468195Y531074D01*
X468117Y531069D01*
X468040Y531072D01*
X468006Y531062D01*
X467971Y531059D01*
X467900Y531028D01*
X467827Y531004D01*
X467794Y530980D01*
X467766Y530967D01*
X467733Y530935D01*
X467676Y530892D01*
X460435Y523651D01*
X460410Y523616D01*
X460379Y523587D01*
X460347Y523524D01*
X460306Y523467D01*
X460296Y523426D01*
X460276Y523388D01*
X460263Y523298D01*
X460250Y523249D01*
X460253Y523229D01*
X460249Y523202D01*
X460249Y507254D01*
X460256Y507212D01*
X460254Y507170D01*
X460276Y507103D01*
X460288Y507033D01*
X460310Y506997D01*
X460323Y506956D01*
X460377Y506884D01*
X460403Y506840D01*
X460419Y506827D01*
X460435Y506806D01*
X460451Y506789D01*
X461491Y504279D01*
X461491Y501561D01*
X460451Y499051D01*
X458529Y497129D01*
X456019Y496089D01*
X453301Y496089D01*
X450791Y497129D01*
X448869Y499051D01*
X447829Y501561D01*
X447829Y504279D01*
X448869Y506789D01*
X448885Y506806D01*
X448910Y506840D01*
X448941Y506869D01*
X448973Y506932D01*
X449014Y506990D01*
X449024Y507031D01*
X449044Y507069D01*
X449057Y507158D01*
X449070Y507207D01*
X449067Y507228D01*
X449071Y507254D01*
X449071Y526892D01*
X449922Y528946D01*
X467963Y546987D01*
X467988Y547022D01*
X468019Y547051D01*
X468051Y547114D01*
X468092Y547171D01*
X468102Y547212D01*
X468122Y547250D01*
X468135Y547340D01*
X468148Y547389D01*
X468145Y547409D01*
X468149Y547436D01*
X468149Y547459D01*
X469189Y549969D01*
X471111Y551891D01*
X473621Y552931D01*
X476339Y552931D01*
X478849Y551891D01*
X480771Y549969D01*
X481811Y547459D01*
X481811Y544741D01*
X480771Y542231D01*
X478815Y540275D01*
X478761Y540246D01*
X478745Y540228D01*
X478725Y540215D01*
X478672Y540144D01*
X478613Y540077D01*
X478605Y540055D01*
X478590Y540036D01*
X478565Y539950D01*
X478533Y539867D01*
X478533Y539843D01*
X478526Y539821D01*
X478532Y539732D01*
X478532Y539643D01*
X478540Y539620D01*
X478541Y539597D01*
X478578Y539516D01*
X478608Y539432D01*
X478623Y539414D01*
X478633Y539392D01*
X478695Y539329D01*
X478753Y539261D01*
X478776Y539247D01*
X478790Y539232D01*
X478823Y539217D01*
X480771Y537269D01*
X481811Y534759D01*
X481811Y532041D01*
X480771Y529531D01*
X479485Y528244D01*
X479460Y528210D01*
X479429Y528181D01*
X479397Y528118D01*
X479356Y528060D01*
X479346Y528019D01*
X479326Y527981D01*
X479313Y527892D01*
X479300Y527843D01*
X479303Y527822D01*
X479299Y527796D01*
X479299Y512061D01*
X479308Y512007D01*
X479308Y511953D01*
X479328Y511898D01*
X479338Y511840D01*
X479366Y511793D01*
X479384Y511742D01*
X479423Y511697D01*
X479453Y511647D01*
X479495Y511612D01*
X479530Y511571D01*
X479591Y511534D01*
X479627Y511505D01*
X479656Y511495D01*
X479690Y511475D01*
X481389Y510771D01*
X482279Y509882D01*
X482352Y509831D01*
X482421Y509775D01*
X482443Y509767D01*
X482463Y509753D01*
X482549Y509731D01*
X482633Y509703D01*
X482657Y509703D01*
X482680Y509698D01*
X482769Y509707D01*
X482858Y509709D01*
X482880Y509718D01*
X482903Y509721D01*
X482983Y509760D01*
X483065Y509794D01*
X483083Y509810D01*
X483104Y509820D01*
X483165Y509885D01*
X483231Y509945D01*
X483242Y509966D01*
X483258Y509983D01*
X483293Y510065D01*
X483334Y510145D01*
X483337Y510171D01*
X483346Y510190D01*
X483348Y510240D01*
X483361Y510330D01*
X483361Y558276D01*
X483354Y558318D01*
X483356Y558360D01*
X483348Y558384D01*
X483348Y558394D01*
X483334Y558428D01*
X483322Y558497D01*
X483300Y558533D01*
X483287Y558574D01*
X483233Y558646D01*
X483207Y558690D01*
X483191Y558703D01*
X483175Y558724D01*
X481889Y560011D01*
X480849Y562521D01*
X480849Y565239D01*
X481889Y567749D01*
X483811Y569671D01*
X486321Y570711D01*
X489039Y570711D01*
X491549Y569671D01*
X493471Y567749D01*
X494511Y565239D01*
X494511Y562521D01*
X493471Y560011D01*
X492185Y558724D01*
X492160Y558690D01*
X492129Y558661D01*
X492097Y558598D01*
X492056Y558540D01*
X492046Y558499D01*
X492026Y558461D01*
X492015Y558385D01*
X492006Y558357D01*
X492006Y558345D01*
X492000Y558323D01*
X492003Y558302D01*
X491999Y558276D01*
X491999Y502860D01*
X492015Y502772D01*
X492024Y502684D01*
X492034Y502663D01*
X492038Y502639D01*
X492084Y502563D01*
X492123Y502483D01*
X492140Y502467D01*
X492153Y502446D01*
X492222Y502390D01*
X492286Y502329D01*
X492308Y502320D01*
X492327Y502305D01*
X492411Y502276D01*
X492493Y502242D01*
X492517Y502241D01*
X492539Y502233D01*
X492628Y502236D01*
X492717Y502232D01*
X492740Y502239D01*
X492764Y502240D01*
X492846Y502273D01*
X492931Y502300D01*
X492952Y502316D01*
X492971Y502324D01*
X493009Y502358D01*
X493081Y502412D01*
X520954Y530285D01*
X521005Y530358D01*
X521061Y530427D01*
X521069Y530449D01*
X521082Y530469D01*
X521105Y530555D01*
X521133Y530639D01*
X521132Y530663D01*
X521138Y530686D01*
X521129Y530775D01*
X521126Y530864D01*
X521118Y530886D01*
X521115Y530909D01*
X521076Y530989D01*
X521042Y531071D01*
X521026Y531089D01*
X521016Y531110D01*
X520951Y531171D01*
X520891Y531237D01*
X520870Y531248D01*
X520852Y531264D01*
X520770Y531299D01*
X520691Y531340D01*
X520665Y531343D01*
X520646Y531352D01*
X520595Y531354D01*
X520506Y531367D01*
X505826Y531367D01*
X502278Y532837D01*
X499563Y535552D01*
X498093Y539100D01*
X498093Y542940D01*
X499563Y546488D01*
X502278Y549203D01*
X505826Y550673D01*
X522874Y550673D01*
X526422Y549203D01*
X529137Y546488D01*
X530607Y542940D01*
X530607Y542476D01*
X530618Y542411D01*
X530620Y542346D01*
X530638Y542302D01*
X530646Y542255D01*
X530680Y542199D01*
X530705Y542138D01*
X530736Y542103D01*
X530761Y542062D01*
X530812Y542021D01*
X530856Y541972D01*
X530898Y541951D01*
X530935Y541921D01*
X530997Y541900D01*
X531056Y541870D01*
X531110Y541862D01*
X531147Y541849D01*
X531187Y541850D01*
X531241Y541842D01*
X533147Y541842D01*
X535658Y540802D01*
X537579Y538881D01*
X538619Y536370D01*
X538619Y533653D01*
X537579Y531142D01*
X535658Y529221D01*
X533147Y528181D01*
X531328Y528181D01*
X531286Y528173D01*
X531244Y528175D01*
X531177Y528153D01*
X531107Y528141D01*
X531071Y528119D01*
X531030Y528106D01*
X530958Y528052D01*
X530914Y528027D01*
X530901Y528011D01*
X530880Y527995D01*
X501611Y498726D01*
X501586Y498691D01*
X501555Y498662D01*
X501523Y498599D01*
X501482Y498541D01*
X501472Y498500D01*
X501452Y498462D01*
X501439Y498373D01*
X501426Y498324D01*
X501429Y498303D01*
X501425Y498277D01*
X501425Y490822D01*
X501441Y490734D01*
X501450Y490646D01*
X501460Y490625D01*
X501464Y490601D01*
X501510Y490525D01*
X501549Y490445D01*
X501566Y490429D01*
X501579Y490408D01*
X501648Y490352D01*
X501712Y490291D01*
X501734Y490282D01*
X501753Y490267D01*
X501837Y490238D01*
X501919Y490204D01*
X501943Y490203D01*
X501965Y490195D01*
X502054Y490198D01*
X502143Y490194D01*
X502166Y490201D01*
X502190Y490202D01*
X502272Y490235D01*
X502357Y490262D01*
X502378Y490278D01*
X502397Y490286D01*
X502435Y490320D01*
X502507Y490374D01*
X504209Y492075D01*
X508317Y493777D01*
X512763Y493777D01*
X516871Y492075D01*
X520015Y488931D01*
X521717Y484823D01*
X521717Y480377D01*
X520015Y476269D01*
X516871Y473125D01*
X512763Y471423D01*
X508317Y471423D01*
X504209Y473125D01*
X502507Y474826D01*
X502434Y474877D01*
X502365Y474933D01*
X502343Y474941D01*
X502323Y474954D01*
X502237Y474977D01*
X502153Y475005D01*
X502129Y475004D01*
X502106Y475010D01*
X502017Y475001D01*
X501928Y474998D01*
X501906Y474990D01*
X501883Y474987D01*
X501803Y474948D01*
X501721Y474914D01*
X501703Y474898D01*
X501682Y474888D01*
X501621Y474823D01*
X501555Y474763D01*
X501544Y474742D01*
X501528Y474724D01*
X501493Y474642D01*
X501452Y474563D01*
X501449Y474537D01*
X501440Y474518D01*
X501438Y474467D01*
X501425Y474378D01*
X501425Y465422D01*
X501441Y465334D01*
X501450Y465246D01*
X501460Y465225D01*
X501464Y465201D01*
X501510Y465125D01*
X501549Y465045D01*
X501566Y465029D01*
X501579Y465008D01*
X501648Y464952D01*
X501712Y464891D01*
X501734Y464882D01*
X501753Y464867D01*
X501837Y464838D01*
X501919Y464804D01*
X501943Y464803D01*
X501965Y464795D01*
X502054Y464798D01*
X502143Y464794D01*
X502166Y464801D01*
X502190Y464802D01*
X502272Y464835D01*
X502357Y464862D01*
X502378Y464878D01*
X502397Y464886D01*
X502435Y464920D01*
X502507Y464974D01*
X504209Y466675D01*
X508317Y468377D01*
X512763Y468377D01*
X516871Y466675D01*
X520015Y463531D01*
X521717Y459423D01*
X521717Y454977D01*
X520015Y450869D01*
X516871Y447725D01*
X512763Y446023D01*
X508317Y446023D01*
X504209Y447725D01*
X502507Y449426D01*
X502434Y449477D01*
X502365Y449533D01*
X502343Y449541D01*
X502323Y449554D01*
X502237Y449577D01*
X502153Y449605D01*
X502129Y449604D01*
X502106Y449610D01*
X502017Y449601D01*
X501928Y449598D01*
X501906Y449590D01*
X501883Y449587D01*
X501803Y449548D01*
X501721Y449514D01*
X501703Y449498D01*
X501682Y449488D01*
X501621Y449423D01*
X501555Y449363D01*
X501544Y449342D01*
X501528Y449324D01*
X501493Y449242D01*
X501452Y449163D01*
X501449Y449137D01*
X501440Y449118D01*
X501438Y449067D01*
X501425Y448978D01*
X501425Y440022D01*
X501441Y439934D01*
X501450Y439846D01*
X501460Y439825D01*
X501464Y439801D01*
X501510Y439725D01*
X501549Y439645D01*
X501566Y439629D01*
X501579Y439608D01*
X501648Y439552D01*
X501712Y439491D01*
X501734Y439482D01*
X501753Y439467D01*
X501837Y439438D01*
X501919Y439404D01*
X501943Y439403D01*
X501965Y439395D01*
X502054Y439398D01*
X502143Y439394D01*
X502166Y439401D01*
X502190Y439402D01*
X502272Y439435D01*
X502357Y439462D01*
X502378Y439478D01*
X502397Y439486D01*
X502435Y439520D01*
X502507Y439574D01*
X504209Y441275D01*
X508317Y442977D01*
X512763Y442977D01*
X516871Y441275D01*
X520015Y438131D01*
X521717Y434023D01*
X521717Y429577D01*
X520015Y425469D01*
X516871Y422325D01*
X512763Y420623D01*
X508317Y420623D01*
G37*
%LPD*%
%LPC*%
G36*
X584517Y471423D02*
X584517Y471423D01*
X580409Y473125D01*
X577265Y476269D01*
X575563Y480377D01*
X575563Y484823D01*
X577265Y488931D01*
X580409Y492075D01*
X583131Y493203D01*
X583197Y493245D01*
X583266Y493279D01*
X583290Y493305D01*
X583320Y493324D01*
X583367Y493386D01*
X583420Y493442D01*
X583434Y493475D01*
X583455Y493503D01*
X583477Y493578D01*
X583507Y493649D01*
X583509Y493684D01*
X583519Y493718D01*
X583514Y493796D01*
X583517Y493873D01*
X583506Y493907D01*
X583504Y493942D01*
X583472Y494013D01*
X583449Y494087D01*
X583425Y494119D01*
X583412Y494147D01*
X583379Y494180D01*
X583337Y494237D01*
X566058Y511517D01*
X565975Y511574D01*
X565895Y511635D01*
X565883Y511638D01*
X565873Y511645D01*
X565776Y511670D01*
X565679Y511699D01*
X565668Y511698D01*
X565656Y511701D01*
X565556Y511690D01*
X565456Y511684D01*
X565445Y511679D01*
X565433Y511678D01*
X565343Y511633D01*
X565251Y511592D01*
X565242Y511583D01*
X565232Y511578D01*
X565163Y511505D01*
X565091Y511434D01*
X565086Y511424D01*
X565078Y511415D01*
X565039Y511322D01*
X564996Y511231D01*
X564995Y511219D01*
X564990Y511208D01*
X564986Y511107D01*
X564978Y511007D01*
X564981Y510995D01*
X564980Y510984D01*
X564994Y510941D01*
X565023Y510826D01*
X565631Y509359D01*
X565631Y506641D01*
X564591Y504131D01*
X562669Y502209D01*
X560159Y501169D01*
X557441Y501169D01*
X554931Y502209D01*
X553009Y504131D01*
X551969Y506641D01*
X551969Y509359D01*
X553009Y511869D01*
X553660Y512521D01*
X553685Y512555D01*
X553716Y512584D01*
X553748Y512647D01*
X553789Y512705D01*
X553799Y512746D01*
X553819Y512784D01*
X553832Y512873D01*
X553845Y512922D01*
X553842Y512943D01*
X553846Y512969D01*
X553846Y525891D01*
X553839Y525933D01*
X553841Y525975D01*
X553819Y526042D01*
X553807Y526112D01*
X553785Y526148D01*
X553772Y526189D01*
X553718Y526261D01*
X553692Y526305D01*
X553676Y526318D01*
X553660Y526339D01*
X553009Y526991D01*
X551969Y529501D01*
X551969Y532219D01*
X553009Y534729D01*
X554931Y536651D01*
X557441Y537691D01*
X560159Y537691D01*
X560589Y537512D01*
X560665Y537496D01*
X560738Y537471D01*
X560774Y537472D01*
X560809Y537465D01*
X560885Y537475D01*
X560963Y537478D01*
X560995Y537491D01*
X561031Y537496D01*
X561099Y537533D01*
X561170Y537562D01*
X561197Y537586D01*
X561228Y537603D01*
X561279Y537661D01*
X561336Y537713D01*
X561352Y537745D01*
X561376Y537772D01*
X561403Y537844D01*
X561439Y537913D01*
X561445Y537953D01*
X561455Y537981D01*
X561456Y538028D01*
X561466Y538098D01*
X561466Y550692D01*
X561943Y551169D01*
X561968Y551204D01*
X561999Y551233D01*
X562031Y551296D01*
X562072Y551353D01*
X562082Y551394D01*
X562102Y551432D01*
X562115Y551522D01*
X562128Y551571D01*
X562125Y551591D01*
X562129Y551618D01*
X562129Y552539D01*
X563169Y555049D01*
X565091Y556971D01*
X567601Y558011D01*
X570319Y558011D01*
X572829Y556971D01*
X574751Y555049D01*
X575791Y552539D01*
X575791Y551887D01*
X575804Y551816D01*
X575804Y551791D01*
X575806Y551786D01*
X575810Y551734D01*
X575824Y551702D01*
X575830Y551667D01*
X575870Y551600D01*
X575902Y551529D01*
X575926Y551504D01*
X575945Y551473D01*
X576005Y551425D01*
X576059Y551369D01*
X576091Y551354D01*
X576119Y551332D01*
X576192Y551307D01*
X576262Y551274D01*
X576298Y551271D01*
X576331Y551260D01*
X576409Y551262D01*
X576486Y551256D01*
X576525Y551266D01*
X576556Y551267D01*
X576599Y551284D01*
X576668Y551301D01*
X578216Y551943D01*
X595264Y551943D01*
X598812Y550473D01*
X601527Y547758D01*
X602997Y544210D01*
X602997Y540370D01*
X601527Y536822D01*
X598812Y534107D01*
X595264Y532637D01*
X578216Y532637D01*
X574668Y534107D01*
X572456Y536319D01*
X572383Y536369D01*
X572314Y536425D01*
X572292Y536433D01*
X572272Y536447D01*
X572186Y536469D01*
X572102Y536497D01*
X572078Y536497D01*
X572055Y536503D01*
X571966Y536493D01*
X571877Y536491D01*
X571855Y536482D01*
X571832Y536479D01*
X571752Y536440D01*
X571670Y536406D01*
X571652Y536390D01*
X571631Y536380D01*
X571570Y536315D01*
X571504Y536255D01*
X571493Y536234D01*
X571477Y536217D01*
X571442Y536135D01*
X571401Y536055D01*
X571398Y536029D01*
X571389Y536010D01*
X571387Y535960D01*
X571374Y535870D01*
X571374Y520475D01*
X571381Y520433D01*
X571379Y520390D01*
X571401Y520323D01*
X571413Y520254D01*
X571435Y520217D01*
X571448Y520177D01*
X571502Y520104D01*
X571528Y520061D01*
X571544Y520047D01*
X571560Y520026D01*
X587102Y504483D01*
X587185Y504426D01*
X587265Y504365D01*
X587277Y504362D01*
X587287Y504355D01*
X587384Y504330D01*
X587481Y504301D01*
X587492Y504302D01*
X587504Y504299D01*
X587604Y504310D01*
X587704Y504316D01*
X587715Y504321D01*
X587727Y504322D01*
X587817Y504367D01*
X587909Y504408D01*
X587918Y504417D01*
X587928Y504422D01*
X587997Y504495D01*
X588069Y504566D01*
X588074Y504576D01*
X588082Y504585D01*
X588121Y504678D01*
X588164Y504769D01*
X588165Y504781D01*
X588170Y504792D01*
X588174Y504893D01*
X588182Y504993D01*
X588179Y505005D01*
X588180Y505016D01*
X588166Y505059D01*
X588137Y505174D01*
X587529Y506641D01*
X587529Y509359D01*
X588569Y511869D01*
X590491Y513791D01*
X593001Y514831D01*
X594820Y514831D01*
X594862Y514838D01*
X594905Y514836D01*
X594972Y514858D01*
X595041Y514870D01*
X595078Y514892D01*
X595118Y514905D01*
X595191Y514959D01*
X595234Y514985D01*
X595248Y515001D01*
X595269Y515017D01*
X605095Y524843D01*
X605120Y524878D01*
X605151Y524907D01*
X605176Y524954D01*
X605194Y524976D01*
X605199Y524991D01*
X605224Y525027D01*
X605234Y525068D01*
X605254Y525106D01*
X605267Y525196D01*
X605280Y525245D01*
X605277Y525265D01*
X605281Y525292D01*
X605281Y527796D01*
X605274Y527838D01*
X605276Y527880D01*
X605254Y527947D01*
X605242Y528017D01*
X605220Y528053D01*
X605207Y528094D01*
X605160Y528157D01*
X605160Y528158D01*
X605158Y528160D01*
X605153Y528166D01*
X605127Y528210D01*
X605111Y528223D01*
X605095Y528244D01*
X603809Y529531D01*
X602769Y532041D01*
X602769Y534759D01*
X603809Y537269D01*
X605731Y539191D01*
X608241Y540231D01*
X610959Y540231D01*
X613469Y539191D01*
X615425Y537235D01*
X615454Y537181D01*
X615472Y537165D01*
X615485Y537145D01*
X615556Y537092D01*
X615623Y537033D01*
X615645Y537025D01*
X615664Y537010D01*
X615750Y536985D01*
X615833Y536953D01*
X615857Y536953D01*
X615879Y536946D01*
X615968Y536952D01*
X616057Y536952D01*
X616080Y536960D01*
X616103Y536961D01*
X616184Y536998D01*
X616268Y537028D01*
X616286Y537043D01*
X616308Y537053D01*
X616371Y537115D01*
X616439Y537173D01*
X616453Y537196D01*
X616468Y537210D01*
X616483Y537243D01*
X618431Y539191D01*
X620941Y540231D01*
X623659Y540231D01*
X626169Y539191D01*
X628091Y537269D01*
X629131Y534759D01*
X629131Y532041D01*
X628091Y529531D01*
X627440Y528879D01*
X627415Y528845D01*
X627384Y528816D01*
X627352Y528753D01*
X627311Y528695D01*
X627301Y528654D01*
X627281Y528616D01*
X627268Y528527D01*
X627255Y528478D01*
X627258Y528457D01*
X627254Y528431D01*
X627254Y516108D01*
X608997Y497851D01*
X608972Y497816D01*
X608941Y497787D01*
X608909Y497724D01*
X608868Y497667D01*
X608858Y497626D01*
X608838Y497588D01*
X608825Y497498D01*
X608812Y497449D01*
X608815Y497429D01*
X608811Y497402D01*
X608811Y496481D01*
X607771Y493971D01*
X605849Y492049D01*
X603339Y491009D01*
X603212Y491009D01*
X603124Y490993D01*
X603036Y490984D01*
X603014Y490974D01*
X602991Y490970D01*
X602914Y490924D01*
X602834Y490885D01*
X602818Y490868D01*
X602798Y490855D01*
X602742Y490786D01*
X602681Y490722D01*
X602671Y490700D01*
X602656Y490681D01*
X602628Y490597D01*
X602593Y490515D01*
X602592Y490491D01*
X602584Y490469D01*
X602587Y490380D01*
X602583Y490291D01*
X602590Y490268D01*
X602591Y490244D01*
X602624Y490162D01*
X602652Y490077D01*
X602667Y490056D01*
X602675Y490037D01*
X602709Y489999D01*
X602763Y489927D01*
X607490Y485200D01*
X607525Y485175D01*
X607554Y485144D01*
X607617Y485112D01*
X607674Y485071D01*
X607716Y485061D01*
X607753Y485041D01*
X607843Y485028D01*
X607892Y485015D01*
X607913Y485018D01*
X607939Y485014D01*
X609711Y485014D01*
X609753Y485021D01*
X609795Y485019D01*
X609862Y485041D01*
X609932Y485053D01*
X609968Y485075D01*
X610009Y485088D01*
X610081Y485142D01*
X610125Y485168D01*
X610138Y485184D01*
X610159Y485200D01*
X610811Y485851D01*
X613321Y486891D01*
X616039Y486891D01*
X618549Y485851D01*
X620471Y483929D01*
X621511Y481419D01*
X621511Y478701D01*
X620471Y476191D01*
X618549Y474269D01*
X616039Y473229D01*
X613321Y473229D01*
X610811Y474269D01*
X610159Y474920D01*
X610125Y474945D01*
X610096Y474976D01*
X610033Y475008D01*
X609975Y475049D01*
X609934Y475059D01*
X609896Y475079D01*
X609807Y475092D01*
X609758Y475105D01*
X609737Y475102D01*
X609711Y475106D01*
X603572Y475106D01*
X598701Y479978D01*
X598637Y480022D01*
X598579Y480073D01*
X598546Y480086D01*
X598516Y480106D01*
X598441Y480125D01*
X598369Y480153D01*
X598334Y480153D01*
X598299Y480162D01*
X598222Y480154D01*
X598145Y480154D01*
X598111Y480142D01*
X598076Y480139D01*
X598007Y480104D01*
X597934Y480078D01*
X597907Y480055D01*
X597875Y480039D01*
X597822Y479983D01*
X597763Y479933D01*
X597742Y479898D01*
X597721Y479876D01*
X597703Y479833D01*
X597666Y479772D01*
X596215Y476269D01*
X593071Y473125D01*
X588963Y471423D01*
X584517Y471423D01*
G37*
%LPD*%
%LPC*%
G36*
X578216Y583437D02*
X578216Y583437D01*
X574668Y584907D01*
X571953Y587622D01*
X570483Y591170D01*
X570483Y595010D01*
X571953Y598558D01*
X574668Y601273D01*
X578216Y602743D01*
X579275Y602743D01*
X579340Y602754D01*
X579406Y602756D01*
X579449Y602774D01*
X579496Y602782D01*
X579553Y602816D01*
X579613Y602841D01*
X579648Y602872D01*
X579689Y602897D01*
X579731Y602948D01*
X579779Y602992D01*
X579801Y603034D01*
X579830Y603071D01*
X579851Y603133D01*
X579882Y603192D01*
X579890Y603246D01*
X579902Y603283D01*
X579901Y603323D01*
X579909Y603377D01*
X579909Y605879D01*
X580982Y608468D01*
X580998Y608544D01*
X581023Y608617D01*
X581022Y608653D01*
X581030Y608687D01*
X581019Y608764D01*
X581017Y608842D01*
X581003Y608874D01*
X580998Y608910D01*
X580961Y608978D01*
X580932Y609049D01*
X580908Y609076D01*
X580891Y609107D01*
X580833Y609158D01*
X580781Y609215D01*
X580749Y609231D01*
X580723Y609255D01*
X580650Y609282D01*
X580581Y609318D01*
X580541Y609324D01*
X580513Y609334D01*
X580466Y609335D01*
X580396Y609345D01*
X579235Y609345D01*
X577469Y609697D01*
X575804Y610386D01*
X574307Y611387D01*
X573033Y612661D01*
X572032Y614158D01*
X571343Y615823D01*
X571065Y617221D01*
X586105Y617221D01*
X586170Y617232D01*
X586235Y617234D01*
X586279Y617252D01*
X586326Y617260D01*
X586382Y617294D01*
X586443Y617319D01*
X586478Y617350D01*
X586519Y617375D01*
X586560Y617426D01*
X586609Y617470D01*
X586631Y617512D01*
X586660Y617549D01*
X586681Y617611D01*
X586711Y617670D01*
X586720Y617724D01*
X586732Y617761D01*
X586731Y617787D01*
X586732Y617790D01*
X586732Y617805D01*
X586739Y617855D01*
X586739Y618491D01*
X586741Y618491D01*
X586741Y617855D01*
X586753Y617790D01*
X586754Y617724D01*
X586772Y617681D01*
X586781Y617634D01*
X586814Y617577D01*
X586839Y617517D01*
X586871Y617482D01*
X586895Y617441D01*
X586946Y617400D01*
X586990Y617351D01*
X587032Y617329D01*
X587069Y617300D01*
X587131Y617279D01*
X587190Y617248D01*
X587244Y617240D01*
X587281Y617228D01*
X587321Y617229D01*
X587375Y617221D01*
X602415Y617221D01*
X602137Y615823D01*
X601448Y614158D01*
X600447Y612661D01*
X599173Y611387D01*
X597676Y610386D01*
X596886Y610059D01*
X596801Y610005D01*
X596715Y609953D01*
X596707Y609944D01*
X596697Y609938D01*
X596637Y609857D01*
X596573Y609779D01*
X596569Y609768D01*
X596562Y609758D01*
X596534Y609662D01*
X596501Y609567D01*
X596502Y609555D01*
X596498Y609543D01*
X596505Y609443D01*
X596508Y609342D01*
X596512Y609331D01*
X596513Y609320D01*
X596555Y609228D01*
X596592Y609135D01*
X596600Y609126D01*
X596605Y609115D01*
X596676Y609043D01*
X596744Y608969D01*
X596754Y608963D01*
X596763Y608955D01*
X596854Y608912D01*
X596943Y608866D01*
X596956Y608864D01*
X596966Y608860D01*
X597011Y608856D01*
X597129Y608839D01*
X652551Y608839D01*
X652650Y608857D01*
X652750Y608871D01*
X652760Y608876D01*
X652772Y608878D01*
X652859Y608930D01*
X652947Y608978D01*
X652955Y608986D01*
X652965Y608993D01*
X653029Y609071D01*
X653095Y609146D01*
X653099Y609158D01*
X653107Y609167D01*
X653139Y609262D01*
X653175Y609356D01*
X653175Y609368D01*
X653179Y609379D01*
X653176Y609479D01*
X653176Y609580D01*
X653172Y609592D01*
X653172Y609604D01*
X653134Y609696D01*
X653100Y609791D01*
X653092Y609800D01*
X653088Y609811D01*
X653020Y609886D01*
X652955Y609962D01*
X652944Y609969D01*
X652936Y609977D01*
X652895Y609998D01*
X652794Y610059D01*
X652004Y610386D01*
X650507Y611387D01*
X649233Y612661D01*
X648232Y614158D01*
X647543Y615823D01*
X647265Y617221D01*
X662305Y617221D01*
X662370Y617232D01*
X662435Y617234D01*
X662479Y617252D01*
X662526Y617260D01*
X662582Y617294D01*
X662643Y617319D01*
X662678Y617350D01*
X662719Y617375D01*
X662760Y617426D01*
X662809Y617470D01*
X662831Y617512D01*
X662860Y617549D01*
X662881Y617611D01*
X662911Y617670D01*
X662920Y617724D01*
X662932Y617761D01*
X662931Y617787D01*
X662932Y617790D01*
X662932Y617805D01*
X662939Y617855D01*
X662939Y618491D01*
X662941Y618491D01*
X662941Y617855D01*
X662953Y617790D01*
X662954Y617724D01*
X662972Y617681D01*
X662981Y617634D01*
X663014Y617577D01*
X663039Y617517D01*
X663071Y617482D01*
X663095Y617441D01*
X663146Y617400D01*
X663190Y617351D01*
X663232Y617329D01*
X663269Y617300D01*
X663331Y617279D01*
X663390Y617248D01*
X663444Y617240D01*
X663481Y617228D01*
X663521Y617229D01*
X663575Y617221D01*
X678615Y617221D01*
X678337Y615823D01*
X677648Y614158D01*
X676647Y612661D01*
X675373Y611387D01*
X673876Y610386D01*
X673086Y610059D01*
X673001Y610005D01*
X672915Y609953D01*
X672907Y609944D01*
X672897Y609938D01*
X672837Y609857D01*
X672773Y609779D01*
X672769Y609768D01*
X672762Y609758D01*
X672734Y609662D01*
X672701Y609567D01*
X672702Y609555D01*
X672698Y609543D01*
X672705Y609443D01*
X672708Y609342D01*
X672712Y609331D01*
X672713Y609320D01*
X672755Y609228D01*
X672792Y609135D01*
X672800Y609126D01*
X672805Y609115D01*
X672876Y609043D01*
X672944Y608969D01*
X672954Y608963D01*
X672963Y608955D01*
X673054Y608912D01*
X673143Y608866D01*
X673156Y608864D01*
X673166Y608860D01*
X673211Y608856D01*
X673329Y608839D01*
X676179Y608839D01*
X676233Y608848D01*
X676287Y608848D01*
X676342Y608868D01*
X676400Y608878D01*
X676447Y608906D01*
X676498Y608924D01*
X676543Y608963D01*
X676593Y608993D01*
X676628Y609035D01*
X676669Y609070D01*
X676706Y609131D01*
X676735Y609167D01*
X676745Y609196D01*
X676765Y609230D01*
X677469Y610929D01*
X679391Y612851D01*
X681901Y613891D01*
X684619Y613891D01*
X687129Y612851D01*
X689051Y610929D01*
X690091Y608419D01*
X690091Y605701D01*
X689051Y603191D01*
X687129Y601269D01*
X684619Y600229D01*
X682800Y600229D01*
X682758Y600222D01*
X682715Y600224D01*
X682648Y600202D01*
X682644Y600201D01*
X677615Y600201D01*
X677527Y600186D01*
X677439Y600176D01*
X677418Y600166D01*
X677394Y600162D01*
X677317Y600116D01*
X677238Y600077D01*
X677221Y600060D01*
X677201Y600047D01*
X677145Y599978D01*
X677084Y599914D01*
X677075Y599892D01*
X677060Y599873D01*
X677031Y599789D01*
X676996Y599707D01*
X676995Y599683D01*
X676988Y599661D01*
X676990Y599572D01*
X676986Y599483D01*
X676994Y599460D01*
X676994Y599436D01*
X677028Y599354D01*
X677055Y599269D01*
X677071Y599248D01*
X677079Y599229D01*
X677113Y599191D01*
X677166Y599119D01*
X677727Y598558D01*
X679197Y595010D01*
X679197Y591170D01*
X677727Y587622D01*
X675012Y584907D01*
X671464Y583437D01*
X654416Y583437D01*
X650868Y584907D01*
X648153Y587622D01*
X646683Y591170D01*
X646683Y595010D01*
X648153Y598558D01*
X648714Y599119D01*
X648764Y599192D01*
X648820Y599261D01*
X648828Y599283D01*
X648842Y599303D01*
X648864Y599389D01*
X648892Y599473D01*
X648892Y599497D01*
X648898Y599520D01*
X648888Y599609D01*
X648886Y599698D01*
X648877Y599720D01*
X648874Y599743D01*
X648835Y599823D01*
X648801Y599905D01*
X648785Y599923D01*
X648775Y599944D01*
X648710Y600005D01*
X648650Y600071D01*
X648629Y600082D01*
X648612Y600098D01*
X648530Y600133D01*
X648450Y600174D01*
X648424Y600177D01*
X648405Y600186D01*
X648355Y600188D01*
X648265Y600201D01*
X601415Y600201D01*
X601327Y600186D01*
X601239Y600176D01*
X601218Y600166D01*
X601194Y600162D01*
X601117Y600116D01*
X601038Y600077D01*
X601021Y600060D01*
X601001Y600047D01*
X600945Y599978D01*
X600884Y599914D01*
X600875Y599892D01*
X600860Y599873D01*
X600831Y599789D01*
X600796Y599707D01*
X600795Y599683D01*
X600788Y599661D01*
X600790Y599572D01*
X600786Y599483D01*
X600794Y599460D01*
X600794Y599436D01*
X600828Y599354D01*
X600855Y599269D01*
X600871Y599248D01*
X600879Y599229D01*
X600913Y599191D01*
X600966Y599119D01*
X601527Y598558D01*
X602997Y595010D01*
X602997Y591170D01*
X601527Y587622D01*
X598812Y584907D01*
X595264Y583437D01*
X578216Y583437D01*
G37*
%LPD*%
%LPC*%
G36*
X702221Y643409D02*
X702221Y643409D01*
X699711Y644449D01*
X698424Y645735D01*
X698390Y645760D01*
X698361Y645791D01*
X698298Y645823D01*
X698240Y645864D01*
X698199Y645874D01*
X698161Y645894D01*
X698072Y645907D01*
X698023Y645920D01*
X698002Y645917D01*
X697976Y645921D01*
X679237Y645921D01*
X679222Y645919D01*
X679206Y645921D01*
X679111Y645899D01*
X679016Y645882D01*
X679003Y645874D01*
X678988Y645870D01*
X678906Y645817D01*
X678823Y645767D01*
X678813Y645756D01*
X678800Y645747D01*
X678743Y645669D01*
X678681Y645593D01*
X678676Y645579D01*
X678667Y645566D01*
X678641Y645473D01*
X678609Y645381D01*
X678610Y645365D01*
X678606Y645350D01*
X678615Y645163D01*
X678615Y645159D01*
X663575Y645159D01*
X663510Y645148D01*
X663445Y645146D01*
X663401Y645128D01*
X663354Y645120D01*
X663298Y645086D01*
X663237Y645061D01*
X663202Y645029D01*
X663161Y645005D01*
X663120Y644954D01*
X663071Y644910D01*
X663049Y644868D01*
X663020Y644831D01*
X662999Y644769D01*
X662969Y644710D01*
X662960Y644656D01*
X662948Y644619D01*
X662948Y644616D01*
X662948Y644615D01*
X662949Y644579D01*
X662941Y644525D01*
X662941Y643889D01*
X662939Y643889D01*
X662939Y644525D01*
X662927Y644590D01*
X662926Y644655D01*
X662908Y644699D01*
X662899Y644746D01*
X662866Y644803D01*
X662841Y644863D01*
X662809Y644898D01*
X662785Y644939D01*
X662734Y644980D01*
X662690Y645029D01*
X662648Y645051D01*
X662611Y645080D01*
X662549Y645101D01*
X662490Y645132D01*
X662436Y645140D01*
X662399Y645152D01*
X662359Y645151D01*
X662305Y645159D01*
X647265Y645159D01*
X647543Y646557D01*
X648178Y648092D01*
X648195Y648168D01*
X648220Y648241D01*
X648219Y648277D01*
X648226Y648311D01*
X648215Y648388D01*
X648213Y648466D01*
X648200Y648498D01*
X648195Y648534D01*
X648158Y648602D01*
X648129Y648673D01*
X648105Y648700D01*
X648088Y648731D01*
X648030Y648782D01*
X647977Y648839D01*
X647946Y648855D01*
X647919Y648879D01*
X647847Y648906D01*
X647778Y648942D01*
X647738Y648948D01*
X647709Y648958D01*
X647663Y648959D01*
X647593Y648969D01*
X620003Y648969D01*
X617288Y651685D01*
X617287Y651685D01*
X607969Y661003D01*
X607934Y661028D01*
X607905Y661059D01*
X607843Y661091D01*
X607785Y661132D01*
X607744Y661142D01*
X607706Y661162D01*
X607616Y661175D01*
X607567Y661188D01*
X607547Y661185D01*
X607520Y661189D01*
X605701Y661189D01*
X603191Y662229D01*
X602011Y663409D01*
X601957Y663447D01*
X601909Y663492D01*
X601866Y663510D01*
X601827Y663537D01*
X601763Y663553D01*
X601702Y663579D01*
X601655Y663581D01*
X601609Y663593D01*
X601544Y663586D01*
X601478Y663589D01*
X601433Y663575D01*
X601386Y663570D01*
X601327Y663541D01*
X601265Y663520D01*
X601221Y663488D01*
X601185Y663470D01*
X601158Y663442D01*
X601114Y663409D01*
X598812Y661107D01*
X595264Y659637D01*
X578216Y659637D01*
X574668Y661107D01*
X571953Y663822D01*
X570483Y667370D01*
X570483Y671210D01*
X571953Y674758D01*
X574668Y677473D01*
X578216Y678943D01*
X595264Y678943D01*
X598812Y677473D01*
X601527Y674758D01*
X601929Y673789D01*
X601970Y673724D01*
X602005Y673654D01*
X602031Y673630D01*
X602050Y673600D01*
X602112Y673554D01*
X602168Y673500D01*
X602201Y673487D01*
X602229Y673465D01*
X602303Y673443D01*
X602375Y673413D01*
X602410Y673411D01*
X602444Y673401D01*
X602522Y673406D01*
X602599Y673403D01*
X602632Y673414D01*
X602668Y673416D01*
X602739Y673448D01*
X602812Y673472D01*
X602845Y673496D01*
X602873Y673508D01*
X602906Y673541D01*
X602963Y673583D01*
X603191Y673811D01*
X605701Y674851D01*
X608419Y674851D01*
X610929Y673811D01*
X612851Y671889D01*
X613891Y669379D01*
X613891Y667560D01*
X613898Y667518D01*
X613896Y667475D01*
X613918Y667408D01*
X613930Y667339D01*
X613952Y667302D01*
X613965Y667262D01*
X614019Y667189D01*
X614045Y667146D01*
X614061Y667132D01*
X614077Y667111D01*
X623395Y657793D01*
X623430Y657768D01*
X623459Y657737D01*
X623521Y657705D01*
X623579Y657664D01*
X623620Y657654D01*
X623658Y657634D01*
X623748Y657621D01*
X623797Y657608D01*
X623817Y657611D01*
X623844Y657607D01*
X675226Y657607D01*
X677941Y654891D01*
X678088Y654745D01*
X678123Y654720D01*
X678151Y654689D01*
X678214Y654657D01*
X678272Y654616D01*
X678313Y654606D01*
X678351Y654586D01*
X678441Y654573D01*
X678489Y654560D01*
X678510Y654563D01*
X678536Y654559D01*
X697976Y654559D01*
X698018Y654566D01*
X698060Y654564D01*
X698127Y654586D01*
X698197Y654598D01*
X698233Y654620D01*
X698274Y654633D01*
X698346Y654687D01*
X698390Y654713D01*
X698403Y654729D01*
X698424Y654745D01*
X699711Y656031D01*
X702221Y657071D01*
X704939Y657071D01*
X707449Y656031D01*
X709371Y654109D01*
X710411Y651599D01*
X710411Y648881D01*
X709371Y646371D01*
X707449Y644449D01*
X704939Y643409D01*
X702221Y643409D01*
G37*
%LPD*%
%LPC*%
G36*
X427901Y145569D02*
X427901Y145569D01*
X425391Y146609D01*
X423469Y148531D01*
X422429Y151041D01*
X422429Y153759D01*
X423469Y156269D01*
X425391Y158191D01*
X427901Y159231D01*
X430619Y159231D01*
X433131Y158190D01*
X433182Y158155D01*
X433230Y158110D01*
X433273Y158091D01*
X433312Y158064D01*
X433376Y158048D01*
X433436Y158022D01*
X433483Y158020D01*
X433529Y158008D01*
X433595Y158015D01*
X433660Y158012D01*
X433705Y158027D01*
X433752Y158032D01*
X433811Y158061D01*
X433874Y158081D01*
X433918Y158114D01*
X433953Y158131D01*
X433980Y158160D01*
X434025Y158192D01*
X478123Y202291D01*
X478148Y202326D01*
X478179Y202355D01*
X478211Y202417D01*
X478252Y202475D01*
X478262Y202516D01*
X478282Y202554D01*
X478295Y202644D01*
X478308Y202693D01*
X478305Y202713D01*
X478309Y202740D01*
X478309Y204559D01*
X479349Y207069D01*
X481271Y208991D01*
X483781Y210031D01*
X486499Y210031D01*
X489009Y208991D01*
X490931Y207069D01*
X491971Y204559D01*
X491971Y201841D01*
X490931Y199331D01*
X489009Y197409D01*
X486499Y196369D01*
X484680Y196369D01*
X484638Y196362D01*
X484595Y196364D01*
X484528Y196342D01*
X484459Y196330D01*
X484422Y196308D01*
X484382Y196295D01*
X484309Y196241D01*
X484266Y196215D01*
X484252Y196199D01*
X484231Y196183D01*
X436129Y148081D01*
X434864Y148081D01*
X434822Y148074D01*
X434780Y148076D01*
X434713Y148054D01*
X434643Y148042D01*
X434607Y148020D01*
X434566Y148007D01*
X434494Y147953D01*
X434450Y147927D01*
X434437Y147911D01*
X434416Y147895D01*
X433129Y146609D01*
X430619Y145569D01*
X427901Y145569D01*
G37*
%LPD*%
%LPC*%
G36*
X483781Y221769D02*
X483781Y221769D01*
X481271Y222809D01*
X479349Y224731D01*
X478309Y227241D01*
X478309Y229060D01*
X478302Y229102D01*
X478304Y229145D01*
X478282Y229212D01*
X478270Y229281D01*
X478248Y229318D01*
X478235Y229358D01*
X478181Y229431D01*
X478155Y229474D01*
X478139Y229488D01*
X478123Y229509D01*
X450517Y257115D01*
X450482Y257140D01*
X450453Y257171D01*
X450391Y257203D01*
X450333Y257244D01*
X450292Y257254D01*
X450254Y257274D01*
X450164Y257287D01*
X450115Y257300D01*
X450095Y257297D01*
X450068Y257301D01*
X434864Y257301D01*
X434822Y257294D01*
X434780Y257296D01*
X434713Y257274D01*
X434643Y257262D01*
X434607Y257240D01*
X434566Y257227D01*
X434494Y257173D01*
X434450Y257147D01*
X434437Y257131D01*
X434416Y257115D01*
X433129Y255829D01*
X430619Y254789D01*
X427901Y254789D01*
X425391Y255829D01*
X423469Y257751D01*
X422429Y260261D01*
X422429Y262979D01*
X423469Y265489D01*
X425391Y267411D01*
X427901Y268451D01*
X430619Y268451D01*
X433129Y267411D01*
X434416Y266125D01*
X434450Y266100D01*
X434479Y266069D01*
X434542Y266037D01*
X434600Y265996D01*
X434641Y265986D01*
X434679Y265966D01*
X434768Y265953D01*
X434817Y265940D01*
X434838Y265943D01*
X434864Y265939D01*
X453909Y265939D01*
X484231Y235617D01*
X484266Y235592D01*
X484295Y235561D01*
X484357Y235529D01*
X484415Y235488D01*
X484456Y235478D01*
X484494Y235458D01*
X484584Y235445D01*
X484633Y235432D01*
X484653Y235435D01*
X484680Y235431D01*
X486499Y235431D01*
X489009Y234391D01*
X490931Y232469D01*
X491971Y229959D01*
X491971Y227241D01*
X490931Y224731D01*
X489009Y222809D01*
X486499Y221769D01*
X483781Y221769D01*
G37*
%LPD*%
%LPC*%
G36*
X468767Y424969D02*
X468767Y424969D01*
X466257Y426009D01*
X464335Y427931D01*
X463295Y430441D01*
X463295Y433159D01*
X463625Y433954D01*
X463636Y434007D01*
X463657Y434057D01*
X463660Y434116D01*
X463673Y434173D01*
X463665Y434227D01*
X463667Y434281D01*
X463649Y434337D01*
X463641Y434395D01*
X463615Y434443D01*
X463599Y434495D01*
X463556Y434552D01*
X463534Y434593D01*
X463511Y434613D01*
X463487Y434645D01*
X430169Y467963D01*
X430134Y467988D01*
X430105Y468019D01*
X430043Y468051D01*
X429985Y468092D01*
X429944Y468102D01*
X429906Y468122D01*
X429816Y468135D01*
X429767Y468148D01*
X429747Y468145D01*
X429720Y468149D01*
X427901Y468149D01*
X425391Y469189D01*
X423469Y471111D01*
X422429Y473621D01*
X422429Y476339D01*
X423469Y478849D01*
X425391Y480771D01*
X427901Y481811D01*
X430619Y481811D01*
X433129Y480771D01*
X435051Y478849D01*
X436091Y476339D01*
X436091Y474520D01*
X436098Y474478D01*
X436096Y474435D01*
X436118Y474368D01*
X436130Y474299D01*
X436152Y474262D01*
X436165Y474222D01*
X436219Y474149D01*
X436245Y474106D01*
X436261Y474092D01*
X436277Y474071D01*
X471792Y438556D01*
X471817Y438538D01*
X471837Y438515D01*
X471939Y438454D01*
X471976Y438428D01*
X471986Y438425D01*
X471998Y438418D01*
X473995Y437591D01*
X475917Y435669D01*
X476957Y433159D01*
X476957Y430441D01*
X475917Y427931D01*
X473995Y426009D01*
X471485Y424969D01*
X468767Y424969D01*
G37*
%LPD*%
%LPC*%
G36*
X468767Y323369D02*
X468767Y323369D01*
X466257Y324409D01*
X464335Y326331D01*
X463295Y328841D01*
X463295Y330434D01*
X463288Y330476D01*
X463290Y330519D01*
X463268Y330586D01*
X463256Y330655D01*
X463234Y330692D01*
X463221Y330732D01*
X463167Y330805D01*
X463141Y330848D01*
X463125Y330862D01*
X463109Y330883D01*
X430169Y363823D01*
X430134Y363848D01*
X430105Y363879D01*
X430043Y363911D01*
X429985Y363952D01*
X429944Y363962D01*
X429906Y363982D01*
X429816Y363995D01*
X429767Y364008D01*
X429747Y364005D01*
X429720Y364009D01*
X427901Y364009D01*
X425391Y365049D01*
X423469Y366971D01*
X422429Y369481D01*
X422429Y372199D01*
X423469Y374709D01*
X425391Y376631D01*
X427901Y377671D01*
X430619Y377671D01*
X433129Y376631D01*
X435051Y374709D01*
X436091Y372199D01*
X436091Y370380D01*
X436098Y370338D01*
X436096Y370295D01*
X436118Y370228D01*
X436130Y370159D01*
X436152Y370122D01*
X436165Y370082D01*
X436219Y370009D01*
X436245Y369966D01*
X436261Y369952D01*
X436277Y369931D01*
X468991Y337217D01*
X469026Y337192D01*
X469055Y337161D01*
X469117Y337129D01*
X469175Y337088D01*
X469216Y337078D01*
X469254Y337058D01*
X469344Y337045D01*
X469393Y337032D01*
X469413Y337035D01*
X469440Y337031D01*
X471485Y337031D01*
X473995Y335991D01*
X475917Y334069D01*
X476957Y331559D01*
X476957Y328841D01*
X475917Y326331D01*
X473995Y324409D01*
X471485Y323369D01*
X468767Y323369D01*
G37*
%LPD*%
%LPC*%
G36*
X654416Y710437D02*
X654416Y710437D01*
X650868Y711907D01*
X648153Y714622D01*
X646683Y718170D01*
X646683Y722010D01*
X648153Y725558D01*
X650868Y728273D01*
X654416Y729743D01*
X671464Y729743D01*
X675012Y728273D01*
X677727Y725558D01*
X679197Y722010D01*
X679197Y718170D01*
X677727Y714622D01*
X675012Y711907D01*
X671464Y710437D01*
X654416Y710437D01*
G37*
%LPD*%
%LPC*%
G36*
X578216Y710437D02*
X578216Y710437D01*
X574668Y711907D01*
X571953Y714622D01*
X570483Y718170D01*
X570483Y722010D01*
X571953Y725558D01*
X574668Y728273D01*
X578216Y729743D01*
X595264Y729743D01*
X598812Y728273D01*
X601527Y725558D01*
X602997Y722010D01*
X602997Y718170D01*
X601527Y714622D01*
X598812Y711907D01*
X595264Y710437D01*
X578216Y710437D01*
G37*
%LPD*%
%LPC*%
G36*
X505826Y709167D02*
X505826Y709167D01*
X502278Y710637D01*
X499563Y713352D01*
X498093Y716900D01*
X498093Y720740D01*
X499563Y724288D01*
X502278Y727003D01*
X505826Y728473D01*
X522874Y728473D01*
X526422Y727003D01*
X529137Y724288D01*
X530607Y720740D01*
X530607Y716900D01*
X529137Y713352D01*
X526422Y710637D01*
X522874Y709167D01*
X505826Y709167D01*
G37*
%LPD*%
%LPC*%
G36*
X429626Y709167D02*
X429626Y709167D01*
X426078Y710637D01*
X423363Y713352D01*
X421893Y716900D01*
X421893Y720740D01*
X423363Y724288D01*
X426078Y727003D01*
X429626Y728473D01*
X446674Y728473D01*
X450222Y727003D01*
X452937Y724288D01*
X454407Y720740D01*
X454407Y716900D01*
X452937Y713352D01*
X450222Y710637D01*
X446674Y709167D01*
X429626Y709167D01*
G37*
%LPD*%
%LPC*%
G36*
X654416Y685037D02*
X654416Y685037D01*
X650868Y686507D01*
X648153Y689222D01*
X646683Y692770D01*
X646683Y696610D01*
X648153Y700158D01*
X650868Y702873D01*
X654416Y704343D01*
X671464Y704343D01*
X675012Y702873D01*
X677727Y700158D01*
X679197Y696610D01*
X679197Y692770D01*
X677727Y689222D01*
X675012Y686507D01*
X671464Y685037D01*
X654416Y685037D01*
G37*
%LPD*%
%LPC*%
G36*
X578216Y685037D02*
X578216Y685037D01*
X574668Y686507D01*
X571953Y689222D01*
X570483Y692770D01*
X570483Y696610D01*
X571953Y700158D01*
X574668Y702873D01*
X578216Y704343D01*
X595264Y704343D01*
X598812Y702873D01*
X601527Y700158D01*
X602997Y696610D01*
X602997Y692770D01*
X601527Y689222D01*
X598812Y686507D01*
X595264Y685037D01*
X578216Y685037D01*
G37*
%LPD*%
%LPC*%
G36*
X505826Y683767D02*
X505826Y683767D01*
X502278Y685237D01*
X499563Y687952D01*
X498093Y691500D01*
X498093Y695340D01*
X499563Y698888D01*
X502278Y701603D01*
X505826Y703073D01*
X522874Y703073D01*
X526422Y701603D01*
X529137Y698888D01*
X530607Y695340D01*
X530607Y691500D01*
X529137Y687952D01*
X526422Y685237D01*
X522874Y683767D01*
X505826Y683767D01*
G37*
%LPD*%
%LPC*%
G36*
X654416Y659637D02*
X654416Y659637D01*
X650868Y661107D01*
X648153Y663822D01*
X646683Y667370D01*
X646683Y671210D01*
X648153Y674758D01*
X650868Y677473D01*
X654416Y678943D01*
X671464Y678943D01*
X675012Y677473D01*
X677727Y674758D01*
X679197Y671210D01*
X679197Y667370D01*
X677727Y663822D01*
X675012Y661107D01*
X671464Y659637D01*
X654416Y659637D01*
G37*
%LPD*%
%LPC*%
G36*
X505826Y658367D02*
X505826Y658367D01*
X502278Y659837D01*
X499563Y662552D01*
X498093Y666100D01*
X498093Y669940D01*
X499563Y673488D01*
X502278Y676203D01*
X505826Y677673D01*
X522874Y677673D01*
X526422Y676203D01*
X529137Y673488D01*
X530607Y669940D01*
X530607Y666100D01*
X529137Y662552D01*
X526422Y659837D01*
X522874Y658367D01*
X505826Y658367D01*
G37*
%LPD*%
%LPC*%
G36*
X429626Y531367D02*
X429626Y531367D01*
X426078Y532837D01*
X423363Y535552D01*
X421893Y539100D01*
X421893Y542940D01*
X423363Y546488D01*
X426078Y549203D01*
X429626Y550673D01*
X446674Y550673D01*
X450222Y549203D01*
X452937Y546488D01*
X454407Y542940D01*
X454407Y539100D01*
X452937Y535552D01*
X450222Y532837D01*
X446674Y531367D01*
X429626Y531367D01*
G37*
%LPD*%
%LPC*%
G36*
X654416Y532637D02*
X654416Y532637D01*
X650868Y534107D01*
X648153Y536822D01*
X646683Y540370D01*
X646683Y544210D01*
X648153Y547758D01*
X650868Y550473D01*
X654416Y551943D01*
X671464Y551943D01*
X675012Y550473D01*
X677727Y547758D01*
X679197Y544210D01*
X679197Y540370D01*
X677727Y536822D01*
X675012Y534107D01*
X671464Y532637D01*
X654416Y532637D01*
G37*
%LPD*%
%LPC*%
G36*
X505826Y582167D02*
X505826Y582167D01*
X502278Y583637D01*
X499563Y586352D01*
X498093Y589900D01*
X498093Y593740D01*
X499563Y597288D01*
X502278Y600003D01*
X505826Y601473D01*
X522874Y601473D01*
X526422Y600003D01*
X529137Y597288D01*
X530607Y593740D01*
X530607Y589900D01*
X529137Y586352D01*
X526422Y583637D01*
X522874Y582167D01*
X505826Y582167D01*
G37*
%LPD*%
%LPC*%
G36*
X654416Y558037D02*
X654416Y558037D01*
X650868Y559507D01*
X648153Y562222D01*
X646683Y565770D01*
X646683Y569610D01*
X648153Y573158D01*
X650868Y575873D01*
X654416Y577343D01*
X671464Y577343D01*
X675012Y575873D01*
X677727Y573158D01*
X679197Y569610D01*
X679197Y565770D01*
X677727Y562222D01*
X675012Y559507D01*
X671464Y558037D01*
X654416Y558037D01*
G37*
%LPD*%
%LPC*%
G36*
X578216Y558037D02*
X578216Y558037D01*
X574668Y559507D01*
X571953Y562222D01*
X570483Y565770D01*
X570483Y569610D01*
X571953Y573158D01*
X574668Y575873D01*
X578216Y577343D01*
X595264Y577343D01*
X598812Y575873D01*
X601527Y573158D01*
X602997Y569610D01*
X602997Y565770D01*
X601527Y562222D01*
X598812Y559507D01*
X595264Y558037D01*
X578216Y558037D01*
G37*
%LPD*%
%LPC*%
G36*
X505826Y556767D02*
X505826Y556767D01*
X502278Y558237D01*
X499563Y560952D01*
X498093Y564500D01*
X498093Y568340D01*
X499563Y571888D01*
X502278Y574603D01*
X505826Y576073D01*
X522874Y576073D01*
X526422Y574603D01*
X529137Y571888D01*
X530607Y568340D01*
X530607Y564500D01*
X529137Y560952D01*
X526422Y558237D01*
X522874Y556767D01*
X505826Y556767D01*
G37*
%LPD*%
%LPC*%
G36*
X429626Y556767D02*
X429626Y556767D01*
X426078Y558237D01*
X423363Y560952D01*
X421893Y564500D01*
X421893Y568340D01*
X423363Y571888D01*
X426078Y574603D01*
X429626Y576073D01*
X446674Y576073D01*
X450222Y574603D01*
X452937Y571888D01*
X454407Y568340D01*
X454407Y564500D01*
X452937Y560952D01*
X450222Y558237D01*
X446674Y556767D01*
X429626Y556767D01*
G37*
%LPD*%
%LPC*%
G36*
X680002Y297588D02*
X680002Y297588D01*
X675624Y299402D01*
X672274Y302752D01*
X670460Y307130D01*
X670460Y311868D01*
X672274Y316246D01*
X675624Y319596D01*
X680002Y321410D01*
X684740Y321410D01*
X689118Y319596D01*
X692468Y316246D01*
X694282Y311868D01*
X694282Y307130D01*
X692468Y302752D01*
X689118Y299402D01*
X684740Y297588D01*
X680002Y297588D01*
G37*
%LPD*%
%LPC*%
G36*
X680002Y229770D02*
X680002Y229770D01*
X675624Y231584D01*
X672274Y234934D01*
X670460Y239312D01*
X670460Y244050D01*
X672274Y248428D01*
X675624Y251778D01*
X680002Y253592D01*
X684740Y253592D01*
X689118Y251778D01*
X692468Y248428D01*
X694282Y244050D01*
X694282Y239312D01*
X692468Y234934D01*
X689118Y231584D01*
X684740Y229770D01*
X680002Y229770D01*
G37*
%LPD*%
%LPC*%
G36*
X584517Y293623D02*
X584517Y293623D01*
X580409Y295325D01*
X577265Y298469D01*
X575563Y302577D01*
X575563Y307023D01*
X577265Y311131D01*
X580409Y314275D01*
X584517Y315977D01*
X588963Y315977D01*
X593071Y314275D01*
X596215Y311131D01*
X597917Y307023D01*
X597917Y302577D01*
X596215Y298469D01*
X593071Y295325D01*
X588963Y293623D01*
X584517Y293623D01*
G37*
%LPD*%
%LPC*%
G36*
X584517Y268223D02*
X584517Y268223D01*
X580409Y269925D01*
X577265Y273069D01*
X575563Y277177D01*
X575563Y281623D01*
X577265Y285731D01*
X580409Y288875D01*
X584517Y290577D01*
X588963Y290577D01*
X593071Y288875D01*
X596215Y285731D01*
X597917Y281623D01*
X597917Y277177D01*
X596215Y273069D01*
X593071Y269925D01*
X588963Y268223D01*
X584517Y268223D01*
G37*
%LPD*%
%LPC*%
G36*
X508317Y268223D02*
X508317Y268223D01*
X504209Y269925D01*
X501065Y273069D01*
X499363Y277177D01*
X499363Y281623D01*
X501065Y285731D01*
X504209Y288875D01*
X508317Y290577D01*
X512763Y290577D01*
X516871Y288875D01*
X520015Y285731D01*
X521717Y281623D01*
X521717Y277177D01*
X520015Y273069D01*
X516871Y269925D01*
X512763Y268223D01*
X508317Y268223D01*
G37*
%LPD*%
%LPC*%
G36*
X584517Y242823D02*
X584517Y242823D01*
X580409Y244525D01*
X577265Y247669D01*
X575563Y251777D01*
X575563Y256223D01*
X577265Y260331D01*
X580409Y263475D01*
X584517Y265177D01*
X588963Y265177D01*
X593071Y263475D01*
X596215Y260331D01*
X597917Y256223D01*
X597917Y251777D01*
X596215Y247669D01*
X593071Y244525D01*
X588963Y242823D01*
X584517Y242823D01*
G37*
%LPD*%
%LPC*%
G36*
X508317Y242823D02*
X508317Y242823D01*
X504209Y244525D01*
X501065Y247669D01*
X499363Y251777D01*
X499363Y256223D01*
X501065Y260331D01*
X504209Y263475D01*
X508317Y265177D01*
X512763Y265177D01*
X516871Y263475D01*
X520015Y260331D01*
X521717Y256223D01*
X521717Y251777D01*
X520015Y247669D01*
X516871Y244525D01*
X512763Y242823D01*
X508317Y242823D01*
G37*
%LPD*%
%LPC*%
G36*
X584517Y217423D02*
X584517Y217423D01*
X580409Y219125D01*
X577265Y222269D01*
X575563Y226377D01*
X575563Y230823D01*
X577265Y234931D01*
X580409Y238075D01*
X584517Y239777D01*
X588963Y239777D01*
X593071Y238075D01*
X596215Y234931D01*
X597917Y230823D01*
X597917Y226377D01*
X596215Y222269D01*
X593071Y219125D01*
X588963Y217423D01*
X584517Y217423D01*
G37*
%LPD*%
%LPC*%
G36*
X508317Y217423D02*
X508317Y217423D01*
X504209Y219125D01*
X501065Y222269D01*
X499363Y226377D01*
X499363Y230823D01*
X501065Y234931D01*
X504209Y238075D01*
X508317Y239777D01*
X512763Y239777D01*
X516871Y238075D01*
X520015Y234931D01*
X521717Y230823D01*
X521717Y226377D01*
X520015Y222269D01*
X516871Y219125D01*
X512763Y217423D01*
X508317Y217423D01*
G37*
%LPD*%
%LPC*%
G36*
X584517Y192023D02*
X584517Y192023D01*
X580409Y193725D01*
X577265Y196869D01*
X575563Y200977D01*
X575563Y205423D01*
X577265Y209531D01*
X580409Y212675D01*
X584517Y214377D01*
X588963Y214377D01*
X593071Y212675D01*
X596215Y209531D01*
X597917Y205423D01*
X597917Y200977D01*
X596215Y196869D01*
X593071Y193725D01*
X588963Y192023D01*
X584517Y192023D01*
G37*
%LPD*%
%LPC*%
G36*
X508317Y192023D02*
X508317Y192023D01*
X504209Y193725D01*
X501065Y196869D01*
X499363Y200977D01*
X499363Y205423D01*
X501065Y209531D01*
X504209Y212675D01*
X508317Y214377D01*
X512763Y214377D01*
X516871Y212675D01*
X520015Y209531D01*
X521717Y205423D01*
X521717Y200977D01*
X520015Y196869D01*
X516871Y193725D01*
X512763Y192023D01*
X508317Y192023D01*
G37*
%LPD*%
%LPC*%
G36*
X584517Y166623D02*
X584517Y166623D01*
X580409Y168325D01*
X577265Y171469D01*
X575563Y175577D01*
X575563Y180023D01*
X577265Y184131D01*
X580409Y187275D01*
X584517Y188977D01*
X588963Y188977D01*
X593071Y187275D01*
X596215Y184131D01*
X597917Y180023D01*
X597917Y175577D01*
X596215Y171469D01*
X593071Y168325D01*
X588963Y166623D01*
X584517Y166623D01*
G37*
%LPD*%
%LPC*%
G36*
X508317Y166623D02*
X508317Y166623D01*
X504209Y168325D01*
X501065Y171469D01*
X499363Y175577D01*
X499363Y180023D01*
X501065Y184131D01*
X504209Y187275D01*
X508317Y188977D01*
X512763Y188977D01*
X516871Y187275D01*
X520015Y184131D01*
X521717Y180023D01*
X521717Y175577D01*
X520015Y171469D01*
X516871Y168325D01*
X512763Y166623D01*
X508317Y166623D01*
G37*
%LPD*%
%LPC*%
G36*
X584517Y141223D02*
X584517Y141223D01*
X580409Y142925D01*
X577265Y146069D01*
X575563Y150177D01*
X575563Y154623D01*
X577265Y158731D01*
X580409Y161875D01*
X584517Y163577D01*
X588963Y163577D01*
X593071Y161875D01*
X596215Y158731D01*
X597917Y154623D01*
X597917Y150177D01*
X596215Y146069D01*
X593071Y142925D01*
X588963Y141223D01*
X584517Y141223D01*
G37*
%LPD*%
%LPC*%
G36*
X508317Y141223D02*
X508317Y141223D01*
X504209Y142925D01*
X501065Y146069D01*
X499363Y150177D01*
X499363Y154623D01*
X501065Y158731D01*
X504209Y161875D01*
X508317Y163577D01*
X512763Y163577D01*
X516871Y161875D01*
X520015Y158731D01*
X521717Y154623D01*
X521717Y150177D01*
X520015Y146069D01*
X516871Y142925D01*
X512763Y141223D01*
X508317Y141223D01*
G37*
%LPD*%
%LPC*%
G36*
X508317Y369823D02*
X508317Y369823D01*
X504209Y371525D01*
X501065Y374669D01*
X499363Y378777D01*
X499363Y383223D01*
X501065Y387331D01*
X504209Y390475D01*
X508317Y392177D01*
X512763Y392177D01*
X516871Y390475D01*
X520015Y387331D01*
X521717Y383223D01*
X521717Y378777D01*
X520015Y374669D01*
X516871Y371525D01*
X512763Y369823D01*
X508317Y369823D01*
G37*
%LPD*%
%LPC*%
G36*
X584517Y446023D02*
X584517Y446023D01*
X580409Y447725D01*
X577265Y450869D01*
X575563Y454977D01*
X575563Y459423D01*
X577265Y463531D01*
X580409Y466675D01*
X584517Y468377D01*
X588963Y468377D01*
X593071Y466675D01*
X596215Y463531D01*
X597917Y459423D01*
X597917Y454977D01*
X596215Y450869D01*
X593071Y447725D01*
X588963Y446023D01*
X584517Y446023D01*
G37*
%LPD*%
%LPC*%
G36*
X584517Y420623D02*
X584517Y420623D01*
X580409Y422325D01*
X577265Y425469D01*
X575563Y429577D01*
X575563Y434023D01*
X577265Y438131D01*
X580409Y441275D01*
X584517Y442977D01*
X588963Y442977D01*
X593071Y441275D01*
X596215Y438131D01*
X597917Y434023D01*
X597917Y429577D01*
X596215Y425469D01*
X593071Y422325D01*
X588963Y420623D01*
X584517Y420623D01*
G37*
%LPD*%
%LPC*%
G36*
X584517Y395223D02*
X584517Y395223D01*
X580409Y396925D01*
X577265Y400069D01*
X575563Y404177D01*
X575563Y408623D01*
X577265Y412731D01*
X580409Y415875D01*
X584517Y417577D01*
X588963Y417577D01*
X593071Y415875D01*
X596215Y412731D01*
X597917Y408623D01*
X597917Y404177D01*
X596215Y400069D01*
X593071Y396925D01*
X588963Y395223D01*
X584517Y395223D01*
G37*
%LPD*%
%LPC*%
G36*
X508317Y395223D02*
X508317Y395223D01*
X504209Y396925D01*
X501065Y400069D01*
X499363Y404177D01*
X499363Y408623D01*
X501065Y412731D01*
X504209Y415875D01*
X508317Y417577D01*
X512763Y417577D01*
X516871Y415875D01*
X520015Y412731D01*
X521717Y408623D01*
X521717Y404177D01*
X520015Y400069D01*
X516871Y396925D01*
X512763Y395223D01*
X508317Y395223D01*
G37*
%LPD*%
%LPC*%
G36*
X584517Y369823D02*
X584517Y369823D01*
X580409Y371525D01*
X577265Y374669D01*
X575563Y378777D01*
X575563Y383223D01*
X577265Y387331D01*
X580409Y390475D01*
X584517Y392177D01*
X588963Y392177D01*
X593071Y390475D01*
X596215Y387331D01*
X597917Y383223D01*
X597917Y378777D01*
X596215Y374669D01*
X593071Y371525D01*
X588963Y369823D01*
X584517Y369823D01*
G37*
%LPD*%
%LPC*%
G36*
X584517Y344423D02*
X584517Y344423D01*
X580409Y346125D01*
X577265Y349269D01*
X575563Y353377D01*
X575563Y357823D01*
X577265Y361931D01*
X580409Y365075D01*
X584517Y366777D01*
X588963Y366777D01*
X593071Y365075D01*
X596215Y361931D01*
X597917Y357823D01*
X597917Y353377D01*
X596215Y349269D01*
X593071Y346125D01*
X588963Y344423D01*
X584517Y344423D01*
G37*
%LPD*%
%LPC*%
G36*
X508317Y344423D02*
X508317Y344423D01*
X504209Y346125D01*
X501065Y349269D01*
X499363Y353377D01*
X499363Y357823D01*
X501065Y361931D01*
X504209Y365075D01*
X508317Y366777D01*
X512763Y366777D01*
X516871Y365075D01*
X520015Y361931D01*
X521717Y357823D01*
X521717Y353377D01*
X520015Y349269D01*
X516871Y346125D01*
X512763Y344423D01*
X508317Y344423D01*
G37*
%LPD*%
%LPC*%
G36*
X508317Y319023D02*
X508317Y319023D01*
X504209Y320725D01*
X501065Y323869D01*
X499363Y327977D01*
X499363Y332423D01*
X501065Y336531D01*
X504209Y339675D01*
X508317Y341377D01*
X512763Y341377D01*
X516871Y339675D01*
X520015Y336531D01*
X521717Y332423D01*
X521717Y327977D01*
X520015Y323869D01*
X516871Y320725D01*
X512763Y319023D01*
X508317Y319023D01*
G37*
%LPD*%
G36*
X438850Y617233D02*
X438850Y617233D01*
X438915Y617234D01*
X438959Y617252D01*
X439006Y617261D01*
X439063Y617294D01*
X439123Y617319D01*
X439158Y617351D01*
X439199Y617375D01*
X439240Y617426D01*
X439289Y617470D01*
X439311Y617512D01*
X439340Y617549D01*
X439361Y617611D01*
X439392Y617670D01*
X439400Y617724D01*
X439412Y617761D01*
X439411Y617787D01*
X439412Y617790D01*
X439412Y617805D01*
X439419Y617855D01*
X439419Y626365D01*
X445655Y626365D01*
X447421Y626013D01*
X449086Y625324D01*
X449355Y625144D01*
X449380Y625133D01*
X449401Y625116D01*
X449482Y625089D01*
X449560Y625055D01*
X449587Y625053D01*
X449613Y625044D01*
X449699Y625047D01*
X449784Y625042D01*
X449810Y625050D01*
X449838Y625051D01*
X449917Y625083D01*
X449999Y625108D01*
X450020Y625125D01*
X450045Y625135D01*
X450109Y625193D01*
X450176Y625245D01*
X450191Y625268D01*
X450211Y625287D01*
X450250Y625363D01*
X450296Y625435D01*
X450301Y625462D01*
X450314Y625486D01*
X450333Y625616D01*
X450341Y625655D01*
X450340Y625662D01*
X450341Y625672D01*
X450341Y634168D01*
X450336Y634195D01*
X450339Y634222D01*
X450317Y634305D01*
X450302Y634389D01*
X450288Y634413D01*
X450281Y634439D01*
X450231Y634509D01*
X450187Y634582D01*
X450166Y634600D01*
X450151Y634622D01*
X450080Y634670D01*
X450013Y634724D01*
X449987Y634733D01*
X449965Y634748D01*
X449882Y634768D01*
X449801Y634796D01*
X449774Y634795D01*
X449747Y634801D01*
X449662Y634792D01*
X449576Y634789D01*
X449551Y634779D01*
X449524Y634776D01*
X449406Y634720D01*
X449369Y634705D01*
X449363Y634700D01*
X449355Y634696D01*
X449086Y634516D01*
X447421Y633827D01*
X445655Y633475D01*
X439419Y633475D01*
X439419Y641985D01*
X439408Y642050D01*
X439406Y642115D01*
X439388Y642159D01*
X439380Y642206D01*
X439346Y642262D01*
X439321Y642323D01*
X439289Y642358D01*
X439265Y642399D01*
X439214Y642440D01*
X439170Y642489D01*
X439128Y642511D01*
X439091Y642540D01*
X439029Y642561D01*
X438970Y642591D01*
X438916Y642600D01*
X438879Y642612D01*
X438839Y642611D01*
X438785Y642619D01*
X437515Y642619D01*
X437450Y642607D01*
X437384Y642606D01*
X437341Y642588D01*
X437294Y642579D01*
X437237Y642546D01*
X437177Y642521D01*
X437142Y642489D01*
X437101Y642465D01*
X437060Y642414D01*
X437011Y642370D01*
X436989Y642328D01*
X436960Y642291D01*
X436939Y642229D01*
X436908Y642170D01*
X436900Y642116D01*
X436888Y642079D01*
X436889Y642039D01*
X436881Y641985D01*
X436881Y633475D01*
X430645Y633475D01*
X428879Y633827D01*
X427214Y634516D01*
X425717Y635517D01*
X424501Y636732D01*
X424468Y636755D01*
X424445Y636781D01*
X424407Y636800D01*
X424359Y636839D01*
X424337Y636846D01*
X424317Y636860D01*
X424263Y636874D01*
X424245Y636883D01*
X424215Y636888D01*
X424147Y636911D01*
X424123Y636910D01*
X424100Y636916D01*
X424011Y636907D01*
X423922Y636904D01*
X423900Y636895D01*
X423877Y636893D01*
X423833Y636871D01*
X423832Y636871D01*
X423828Y636869D01*
X423797Y636853D01*
X423715Y636820D01*
X423697Y636804D01*
X423676Y636793D01*
X423645Y636760D01*
X423639Y636757D01*
X423624Y636738D01*
X423615Y636729D01*
X423549Y636668D01*
X423538Y636647D01*
X423522Y636630D01*
X423506Y636594D01*
X423498Y636583D01*
X423483Y636541D01*
X423446Y636469D01*
X423443Y636443D01*
X423434Y636423D01*
X423433Y636392D01*
X423426Y636370D01*
X423427Y636337D01*
X423419Y636283D01*
X423419Y625364D01*
X423426Y625322D01*
X423424Y625280D01*
X423446Y625213D01*
X423458Y625143D01*
X423480Y625107D01*
X423493Y625066D01*
X423547Y624994D01*
X423573Y624950D01*
X423589Y624937D01*
X423604Y624916D01*
X424508Y624012D01*
X424562Y623974D01*
X424610Y623929D01*
X424654Y623911D01*
X424692Y623884D01*
X424756Y623867D01*
X424817Y623842D01*
X424864Y623840D01*
X424910Y623828D01*
X424975Y623835D01*
X425041Y623832D01*
X425086Y623846D01*
X425133Y623851D01*
X425192Y623880D01*
X425255Y623900D01*
X425299Y623933D01*
X425334Y623950D01*
X425361Y623979D01*
X425405Y624012D01*
X425717Y624323D01*
X427214Y625324D01*
X428879Y626013D01*
X430645Y626365D01*
X436881Y626365D01*
X436881Y617855D01*
X436892Y617790D01*
X436894Y617725D01*
X436912Y617681D01*
X436920Y617634D01*
X436954Y617578D01*
X436979Y617517D01*
X437010Y617482D01*
X437035Y617441D01*
X437086Y617400D01*
X437130Y617351D01*
X437172Y617329D01*
X437209Y617300D01*
X437271Y617279D01*
X437330Y617249D01*
X437384Y617240D01*
X437421Y617228D01*
X437461Y617229D01*
X437515Y617221D01*
X438785Y617221D01*
X438850Y617233D01*
G37*
G36*
X438850Y642633D02*
X438850Y642633D01*
X438915Y642634D01*
X438959Y642652D01*
X439006Y642661D01*
X439063Y642694D01*
X439123Y642719D01*
X439158Y642751D01*
X439199Y642775D01*
X439240Y642826D01*
X439289Y642870D01*
X439311Y642912D01*
X439340Y642949D01*
X439361Y643011D01*
X439392Y643070D01*
X439400Y643124D01*
X439412Y643161D01*
X439411Y643201D01*
X439419Y643255D01*
X439419Y651765D01*
X445655Y651765D01*
X447421Y651413D01*
X447773Y651268D01*
X447860Y651249D01*
X447945Y651223D01*
X447969Y651225D01*
X447992Y651220D01*
X448080Y651232D01*
X448169Y651238D01*
X448191Y651248D01*
X448214Y651251D01*
X448293Y651294D01*
X448374Y651330D01*
X448391Y651347D01*
X448412Y651358D01*
X448470Y651425D01*
X448534Y651488D01*
X448544Y651509D01*
X448559Y651527D01*
X448591Y651610D01*
X448629Y651691D01*
X448631Y651714D01*
X448639Y651737D01*
X448640Y651826D01*
X448647Y651914D01*
X448641Y651940D01*
X448641Y651961D01*
X448624Y652008D01*
X448602Y652096D01*
X447829Y653961D01*
X447829Y656679D01*
X448327Y657880D01*
X448346Y657967D01*
X448371Y658052D01*
X448370Y658076D01*
X448375Y658099D01*
X448362Y658187D01*
X448356Y658276D01*
X448347Y658298D01*
X448343Y658321D01*
X448301Y658399D01*
X448264Y658481D01*
X448248Y658498D01*
X448236Y658519D01*
X448169Y658577D01*
X448107Y658641D01*
X448085Y658651D01*
X448068Y658666D01*
X447984Y658698D01*
X447904Y658736D01*
X447880Y658738D01*
X447858Y658746D01*
X447769Y658747D01*
X447680Y658754D01*
X447654Y658748D01*
X447633Y658748D01*
X447586Y658731D01*
X447498Y658709D01*
X446674Y658367D01*
X429626Y658367D01*
X426078Y659837D01*
X424501Y661414D01*
X424428Y661464D01*
X424359Y661520D01*
X424337Y661528D01*
X424317Y661542D01*
X424231Y661564D01*
X424147Y661592D01*
X424123Y661592D01*
X424100Y661598D01*
X424011Y661588D01*
X423922Y661586D01*
X423900Y661577D01*
X423877Y661574D01*
X423797Y661535D01*
X423715Y661501D01*
X423697Y661485D01*
X423676Y661475D01*
X423615Y661410D01*
X423549Y661350D01*
X423538Y661329D01*
X423522Y661312D01*
X423487Y661230D01*
X423446Y661150D01*
X423443Y661124D01*
X423434Y661105D01*
X423432Y661055D01*
X423419Y660965D01*
X423419Y648957D01*
X423431Y648891D01*
X423432Y648831D01*
X423441Y648811D01*
X423444Y648780D01*
X423454Y648759D01*
X423458Y648736D01*
X423498Y648668D01*
X423517Y648623D01*
X423527Y648611D01*
X423543Y648579D01*
X423560Y648563D01*
X423573Y648542D01*
X423641Y648487D01*
X423668Y648457D01*
X423678Y648452D01*
X423706Y648425D01*
X423728Y648416D01*
X423747Y648401D01*
X423831Y648373D01*
X423843Y648367D01*
X423868Y648355D01*
X423876Y648354D01*
X423913Y648338D01*
X423937Y648337D01*
X423959Y648329D01*
X424026Y648331D01*
X424053Y648327D01*
X424058Y648327D01*
X424077Y648331D01*
X424137Y648328D01*
X424160Y648335D01*
X424184Y648336D01*
X424245Y648361D01*
X424279Y648367D01*
X424303Y648381D01*
X424351Y648397D01*
X424372Y648412D01*
X424391Y648420D01*
X424429Y648454D01*
X424437Y648460D01*
X424472Y648481D01*
X424483Y648494D01*
X424501Y648508D01*
X425717Y649723D01*
X427214Y650724D01*
X428879Y651413D01*
X430645Y651765D01*
X436881Y651765D01*
X436881Y643255D01*
X436892Y643190D01*
X436894Y643125D01*
X436912Y643081D01*
X436920Y643034D01*
X436954Y642978D01*
X436979Y642917D01*
X437010Y642882D01*
X437035Y642841D01*
X437086Y642800D01*
X437130Y642751D01*
X437172Y642729D01*
X437209Y642700D01*
X437271Y642679D01*
X437330Y642649D01*
X437384Y642640D01*
X437421Y642628D01*
X437461Y642629D01*
X437515Y642621D01*
X438785Y642621D01*
X438850Y642633D01*
G37*
%LPC*%
G36*
X588009Y645159D02*
X588009Y645159D01*
X588009Y653035D01*
X594245Y653035D01*
X596011Y652683D01*
X597676Y651994D01*
X599173Y650993D01*
X600447Y649719D01*
X601448Y648222D01*
X602137Y646557D01*
X602415Y645159D01*
X588009Y645159D01*
G37*
%LPD*%
%LPC*%
G36*
X515619Y643889D02*
X515619Y643889D01*
X515619Y651765D01*
X521855Y651765D01*
X523621Y651413D01*
X525286Y650724D01*
X526783Y649723D01*
X528057Y648449D01*
X529058Y646952D01*
X529747Y645287D01*
X530025Y643889D01*
X515619Y643889D01*
G37*
%LPD*%
%LPC*%
G36*
X664209Y619759D02*
X664209Y619759D01*
X664209Y627635D01*
X670445Y627635D01*
X672211Y627283D01*
X673876Y626594D01*
X675373Y625593D01*
X676647Y624319D01*
X677648Y622822D01*
X678337Y621157D01*
X678615Y619759D01*
X664209Y619759D01*
G37*
%LPD*%
%LPC*%
G36*
X515619Y618489D02*
X515619Y618489D01*
X515619Y626365D01*
X521855Y626365D01*
X523621Y626013D01*
X525286Y625324D01*
X526783Y624323D01*
X528057Y623049D01*
X529058Y621552D01*
X529747Y619887D01*
X530025Y618489D01*
X515619Y618489D01*
G37*
%LPD*%
%LPC*%
G36*
X588009Y619759D02*
X588009Y619759D01*
X588009Y627635D01*
X594245Y627635D01*
X596011Y627283D01*
X597676Y626594D01*
X599173Y625593D01*
X600447Y624319D01*
X601448Y622822D01*
X602137Y621157D01*
X602415Y619759D01*
X588009Y619759D01*
G37*
%LPD*%
%LPC*%
G36*
X571065Y645159D02*
X571065Y645159D01*
X571343Y646557D01*
X572032Y648222D01*
X573033Y649719D01*
X574307Y650993D01*
X575804Y651994D01*
X577469Y652683D01*
X579235Y653035D01*
X585471Y653035D01*
X585471Y645159D01*
X571065Y645159D01*
G37*
%LPD*%
%LPC*%
G36*
X498675Y643889D02*
X498675Y643889D01*
X498953Y645287D01*
X499642Y646952D01*
X500643Y648449D01*
X501917Y649723D01*
X503414Y650724D01*
X505079Y651413D01*
X506845Y651765D01*
X513081Y651765D01*
X513081Y643889D01*
X498675Y643889D01*
G37*
%LPD*%
%LPC*%
G36*
X647265Y619759D02*
X647265Y619759D01*
X647543Y621157D01*
X648232Y622822D01*
X649233Y624319D01*
X650507Y625593D01*
X652004Y626594D01*
X653669Y627283D01*
X655435Y627635D01*
X661671Y627635D01*
X661671Y619759D01*
X647265Y619759D01*
G37*
%LPD*%
%LPC*%
G36*
X571065Y619759D02*
X571065Y619759D01*
X571343Y621157D01*
X572032Y622822D01*
X573033Y624319D01*
X574307Y625593D01*
X575804Y626594D01*
X577469Y627283D01*
X579235Y627635D01*
X585471Y627635D01*
X585471Y619759D01*
X571065Y619759D01*
G37*
%LPD*%
%LPC*%
G36*
X498675Y618489D02*
X498675Y618489D01*
X498953Y619887D01*
X499642Y621552D01*
X500643Y623049D01*
X501917Y624323D01*
X503414Y625324D01*
X505079Y626013D01*
X506845Y626365D01*
X513081Y626365D01*
X513081Y618489D01*
X498675Y618489D01*
G37*
%LPD*%
%LPC*%
G36*
X515619Y608075D02*
X515619Y608075D01*
X515619Y615951D01*
X530025Y615951D01*
X529747Y614553D01*
X529058Y612888D01*
X528057Y611391D01*
X526783Y610117D01*
X525286Y609116D01*
X523621Y608427D01*
X521855Y608075D01*
X515619Y608075D01*
G37*
%LPD*%
%LPC*%
G36*
X588009Y634745D02*
X588009Y634745D01*
X588009Y642621D01*
X602415Y642621D01*
X602137Y641223D01*
X601448Y639558D01*
X600447Y638061D01*
X599173Y636787D01*
X597676Y635786D01*
X596011Y635097D01*
X594245Y634745D01*
X588009Y634745D01*
G37*
%LPD*%
%LPC*%
G36*
X664209Y634745D02*
X664209Y634745D01*
X664209Y642621D01*
X678615Y642621D01*
X678337Y641223D01*
X677648Y639558D01*
X676647Y638061D01*
X675373Y636787D01*
X673876Y635786D01*
X672211Y635097D01*
X670445Y634745D01*
X664209Y634745D01*
G37*
%LPD*%
%LPC*%
G36*
X515619Y633475D02*
X515619Y633475D01*
X515619Y641351D01*
X530025Y641351D01*
X529747Y639953D01*
X529058Y638288D01*
X528057Y636791D01*
X526783Y635517D01*
X525286Y634516D01*
X523621Y633827D01*
X521855Y633475D01*
X515619Y633475D01*
G37*
%LPD*%
%LPC*%
G36*
X506845Y608075D02*
X506845Y608075D01*
X505079Y608427D01*
X503414Y609116D01*
X501917Y610117D01*
X500643Y611391D01*
X499642Y612888D01*
X498953Y614553D01*
X498675Y615951D01*
X513081Y615951D01*
X513081Y608075D01*
X506845Y608075D01*
G37*
%LPD*%
%LPC*%
G36*
X579235Y634745D02*
X579235Y634745D01*
X577469Y635097D01*
X575804Y635786D01*
X574307Y636787D01*
X573033Y638061D01*
X572032Y639558D01*
X571343Y641223D01*
X571065Y642621D01*
X585471Y642621D01*
X585471Y634745D01*
X579235Y634745D01*
G37*
%LPD*%
%LPC*%
G36*
X655435Y634745D02*
X655435Y634745D01*
X653669Y635097D01*
X652004Y635786D01*
X650507Y636787D01*
X649233Y638061D01*
X648232Y639558D01*
X647543Y641223D01*
X647265Y642621D01*
X661671Y642621D01*
X661671Y634745D01*
X655435Y634745D01*
G37*
%LPD*%
%LPC*%
G36*
X506845Y633475D02*
X506845Y633475D01*
X505079Y633827D01*
X503414Y634516D01*
X501917Y635517D01*
X500643Y636791D01*
X499642Y638288D01*
X498953Y639953D01*
X498675Y641351D01*
X513081Y641351D01*
X513081Y633475D01*
X506845Y633475D01*
G37*
%LPD*%
%LPC*%
G36*
X511809Y306069D02*
X511809Y306069D01*
X511809Y315401D01*
X513038Y315206D01*
X514635Y314687D01*
X516132Y313925D01*
X517490Y312938D01*
X518678Y311750D01*
X519665Y310392D01*
X520427Y308895D01*
X520946Y307298D01*
X521141Y306069D01*
X511809Y306069D01*
G37*
%LPD*%
%LPC*%
G36*
X588009Y331469D02*
X588009Y331469D01*
X588009Y340801D01*
X589238Y340606D01*
X590835Y340087D01*
X592332Y339325D01*
X593690Y338338D01*
X594878Y337150D01*
X595865Y335792D01*
X596627Y334295D01*
X597146Y332698D01*
X597341Y331469D01*
X588009Y331469D01*
G37*
%LPD*%
%LPC*%
G36*
X576139Y331469D02*
X576139Y331469D01*
X576334Y332698D01*
X576853Y334295D01*
X577615Y335792D01*
X578602Y337150D01*
X579790Y338338D01*
X581148Y339325D01*
X582645Y340087D01*
X584242Y340606D01*
X585471Y340801D01*
X585471Y331469D01*
X576139Y331469D01*
G37*
%LPD*%
%LPC*%
G36*
X588009Y328931D02*
X588009Y328931D01*
X597341Y328931D01*
X597146Y327702D01*
X596627Y326105D01*
X595865Y324608D01*
X594878Y323250D01*
X593690Y322062D01*
X592332Y321075D01*
X590835Y320313D01*
X589238Y319794D01*
X588009Y319599D01*
X588009Y328931D01*
G37*
%LPD*%
%LPC*%
G36*
X499939Y306069D02*
X499939Y306069D01*
X500134Y307298D01*
X500653Y308895D01*
X501415Y310392D01*
X502402Y311750D01*
X503590Y312938D01*
X504948Y313925D01*
X506445Y314687D01*
X508042Y315206D01*
X509271Y315401D01*
X509271Y306069D01*
X499939Y306069D01*
G37*
%LPD*%
%LPC*%
G36*
X511809Y303531D02*
X511809Y303531D01*
X521141Y303531D01*
X520946Y302302D01*
X520427Y300705D01*
X519665Y299208D01*
X518678Y297850D01*
X517490Y296662D01*
X516132Y295675D01*
X514635Y294913D01*
X513038Y294394D01*
X511809Y294199D01*
X511809Y303531D01*
G37*
%LPD*%
%LPC*%
G36*
X508042Y294394D02*
X508042Y294394D01*
X506445Y294913D01*
X504948Y295675D01*
X503590Y296662D01*
X502402Y297850D01*
X501415Y299208D01*
X500653Y300705D01*
X500134Y302302D01*
X499939Y303531D01*
X509271Y303531D01*
X509271Y294199D01*
X508042Y294394D01*
G37*
%LPD*%
%LPC*%
G36*
X584242Y319794D02*
X584242Y319794D01*
X582645Y320313D01*
X581148Y321075D01*
X579790Y322062D01*
X578602Y323250D01*
X577615Y324608D01*
X576853Y326105D01*
X576334Y327702D01*
X576139Y328931D01*
X585471Y328931D01*
X585471Y319599D01*
X584242Y319794D01*
G37*
%LPD*%
%LPC*%
G36*
X514349Y642619D02*
X514349Y642619D01*
X514349Y642621D01*
X514351Y642621D01*
X514351Y642619D01*
X514349Y642619D01*
G37*
%LPD*%
%LPC*%
G36*
X514349Y617219D02*
X514349Y617219D01*
X514349Y617221D01*
X514351Y617221D01*
X514351Y617219D01*
X514349Y617219D01*
G37*
%LPD*%
%LPC*%
G36*
X586739Y643889D02*
X586739Y643889D01*
X586739Y643891D01*
X586741Y643891D01*
X586741Y643889D01*
X586739Y643889D01*
G37*
%LPD*%
%LPC*%
G36*
X586739Y330199D02*
X586739Y330199D01*
X586739Y330201D01*
X586741Y330201D01*
X586741Y330199D01*
X586739Y330199D01*
G37*
%LPD*%
%LPC*%
G36*
X510539Y304799D02*
X510539Y304799D01*
X510539Y304801D01*
X510541Y304801D01*
X510541Y304799D01*
X510539Y304799D01*
G37*
%LPD*%
D10*
X580136Y720090D02*
X593344Y720090D01*
X593344Y694690D02*
X580136Y694690D01*
X580136Y567690D02*
X593344Y567690D01*
X593344Y542290D02*
X580136Y542290D01*
X580136Y669290D02*
X593344Y669290D01*
X593344Y643890D02*
X580136Y643890D01*
X580136Y593090D02*
X593344Y593090D01*
X593344Y618490D02*
X580136Y618490D01*
X656336Y542290D02*
X669544Y542290D01*
X669544Y567690D02*
X656336Y567690D01*
X656336Y593090D02*
X669544Y593090D01*
X669544Y618490D02*
X656336Y618490D01*
X656336Y643890D02*
X669544Y643890D01*
X669544Y669290D02*
X656336Y669290D01*
X656336Y694690D02*
X669544Y694690D01*
X669544Y720090D02*
X656336Y720090D01*
X444754Y718820D02*
X431546Y718820D01*
X431546Y693420D02*
X444754Y693420D01*
X444754Y566420D02*
X431546Y566420D01*
X431546Y541020D02*
X444754Y541020D01*
X444754Y668020D02*
X431546Y668020D01*
X431546Y642620D02*
X444754Y642620D01*
X444754Y591820D02*
X431546Y591820D01*
X431546Y617220D02*
X444754Y617220D01*
X507746Y541020D02*
X520954Y541020D01*
X520954Y566420D02*
X507746Y566420D01*
X507746Y591820D02*
X520954Y591820D01*
X520954Y617220D02*
X507746Y617220D01*
X507746Y642620D02*
X520954Y642620D01*
X520954Y668020D02*
X507746Y668020D01*
X507746Y693420D02*
X520954Y693420D01*
X520954Y718820D02*
X507746Y718820D01*
D11*
X586740Y152400D03*
X586740Y177800D03*
X586740Y203200D03*
X586740Y228600D03*
X586740Y254000D03*
X586740Y279400D03*
X586740Y304800D03*
X586740Y330200D03*
X586740Y355600D03*
X586740Y381000D03*
X586740Y406400D03*
X586740Y431800D03*
X586740Y457200D03*
X586740Y482600D03*
X510540Y482600D03*
X510540Y457200D03*
X510540Y431800D03*
X510540Y406400D03*
X510540Y381000D03*
X510540Y355600D03*
X510540Y330200D03*
X510540Y304800D03*
X510540Y279400D03*
X510540Y254000D03*
X510540Y228600D03*
X510540Y203200D03*
X510540Y177800D03*
X510540Y152400D03*
D12*
X787400Y368300D03*
D13*
X792480Y368300D01*
D12*
X685800Y368300D03*
D13*
X685800Y360680D01*
D12*
X695960Y187960D03*
D13*
X693420Y187960D01*
X690880Y185420D01*
D12*
X431800Y124460D03*
D13*
X434340Y127000D01*
X439420Y127000D01*
D12*
X434340Y236220D03*
D13*
X431800Y233680D01*
X426720Y233680D01*
D12*
X431800Y337820D03*
D13*
X421640Y337820D01*
D12*
X429260Y447040D03*
X688340Y469900D03*
X739140Y520700D03*
X749300Y284480D03*
X703580Y650240D03*
X607060Y668020D03*
D14*
X676485Y650240D02*
X703580Y650240D01*
X676485Y650240D02*
X673437Y653288D01*
X621792Y653288D02*
X607060Y668020D01*
X621792Y653288D02*
X673437Y653288D01*
D12*
X683260Y607060D03*
D14*
X680720Y604520D01*
X586740Y604520D01*
D12*
X586740Y604520D03*
X462280Y645160D03*
D14*
X464820Y642620D01*
X464820Y604520D01*
D12*
X464820Y604520D03*
X454660Y655320D03*
D14*
X454660Y604520D01*
D12*
X454660Y604520D03*
X454660Y502920D03*
D15*
X454660Y525780D01*
X474980Y546100D01*
D12*
X474980Y546100D03*
X429260Y370840D03*
D14*
X469900Y330200D01*
X470126Y330200D01*
D12*
X470126Y330200D03*
X429260Y474980D03*
D14*
X470126Y434114D01*
X470126Y431800D01*
D12*
X470126Y431800D03*
X429260Y261620D03*
D14*
X452120Y261620D01*
X485140Y228600D01*
D12*
X485140Y228600D03*
X429260Y152400D03*
D14*
X434340Y152400D01*
X485140Y203200D01*
D12*
X485140Y203200D03*
X558800Y530860D03*
D13*
X558800Y508000D01*
D12*
X558800Y508000D03*
X594360Y508000D03*
D14*
X609600Y523240D01*
X609600Y533400D01*
D12*
X609600Y533400D03*
X601980Y497840D03*
D13*
X622300Y518160D01*
X622300Y533400D01*
D12*
X622300Y533400D03*
X614680Y480060D03*
D13*
X591527Y494157D02*
X590423Y494157D01*
X566420Y518160D01*
X605624Y480060D02*
X614680Y480060D01*
X605624Y480060D02*
X591527Y494157D01*
X566420Y518160D02*
X566420Y548640D01*
X568960Y551180D01*
D12*
X568960Y551180D03*
X419100Y619760D03*
D14*
X419100Y690880D01*
D12*
X419100Y690880D03*
X477520Y504980D03*
D14*
X474980Y507520D01*
X474980Y533400D01*
D12*
X474980Y533400D03*
X497106Y431800D03*
D14*
X497106Y500329D01*
X531789Y535011D01*
D12*
X531789Y535011D03*
X487680Y487680D03*
D14*
X487680Y563880D01*
D12*
X487680Y563880D03*
M02*
