G04 EAGLE Gerber X2 export*
%TF.Part,Single*%
%TF.FileFunction,Legend,Top,1*%
%TF.FilePolarity,Positive*%
%TF.GenerationSoftware,Autodesk,EAGLE,8.6.3*%
%TF.CreationDate,2018-03-05T01:58:30Z*%
G75*
%MOMM*%
%FSLAX34Y34*%
%LPD*%
%AMOC8*
5,1,8,0,0,1.08239X$1,22.5*%
G01*
%ADD10R,0.254000X0.254000*%
%ADD11C,0.127000*%
%ADD12C,0.076200*%
%ADD13C,0.101600*%
%ADD14C,0.304800*%
%ADD15C,0.203200*%
%ADD16C,0.152400*%
%ADD17C,0.254000*%


D10*
X727710Y308610D03*
D11*
X805180Y99060D02*
X355600Y99060D01*
X355600Y751840D02*
X805180Y751840D01*
X355600Y751840D02*
X355600Y99060D01*
X805180Y99060D02*
X805180Y751840D01*
D12*
X404382Y515549D02*
X404380Y515460D01*
X404374Y515372D01*
X404365Y515284D01*
X404352Y515196D01*
X404335Y515109D01*
X404315Y515023D01*
X404290Y514938D01*
X404263Y514853D01*
X404231Y514770D01*
X404197Y514689D01*
X404158Y514609D01*
X404117Y514531D01*
X404072Y514454D01*
X404024Y514380D01*
X403973Y514307D01*
X403919Y514237D01*
X403861Y514170D01*
X403801Y514104D01*
X403739Y514042D01*
X403673Y513982D01*
X403606Y513924D01*
X403536Y513870D01*
X403463Y513819D01*
X403389Y513771D01*
X403312Y513726D01*
X403234Y513685D01*
X403154Y513646D01*
X403073Y513612D01*
X402990Y513580D01*
X402905Y513553D01*
X402820Y513528D01*
X402734Y513508D01*
X402647Y513491D01*
X402559Y513478D01*
X402471Y513469D01*
X402383Y513463D01*
X402294Y513461D01*
X402165Y513463D01*
X402036Y513469D01*
X401907Y513478D01*
X401779Y513491D01*
X401651Y513508D01*
X401524Y513529D01*
X401397Y513553D01*
X401271Y513581D01*
X401146Y513613D01*
X401022Y513648D01*
X400899Y513687D01*
X400777Y513730D01*
X400657Y513776D01*
X400538Y513826D01*
X400420Y513879D01*
X400304Y513935D01*
X400190Y513995D01*
X400077Y514058D01*
X399967Y514125D01*
X399858Y514194D01*
X399752Y514267D01*
X399647Y514343D01*
X399545Y514422D01*
X399446Y514504D01*
X399348Y514588D01*
X399253Y514676D01*
X399161Y514766D01*
X399422Y520771D02*
X399424Y520860D01*
X399430Y520948D01*
X399439Y521036D01*
X399452Y521124D01*
X399469Y521211D01*
X399489Y521297D01*
X399514Y521382D01*
X399541Y521467D01*
X399573Y521550D01*
X399607Y521631D01*
X399646Y521711D01*
X399687Y521789D01*
X399732Y521866D01*
X399780Y521940D01*
X399831Y522013D01*
X399885Y522083D01*
X399943Y522150D01*
X400003Y522216D01*
X400065Y522278D01*
X400131Y522338D01*
X400198Y522396D01*
X400268Y522450D01*
X400341Y522501D01*
X400415Y522549D01*
X400492Y522594D01*
X400570Y522635D01*
X400650Y522674D01*
X400731Y522708D01*
X400814Y522740D01*
X400899Y522767D01*
X400984Y522792D01*
X401070Y522812D01*
X401157Y522829D01*
X401245Y522842D01*
X401333Y522851D01*
X401421Y522857D01*
X401510Y522859D01*
X401630Y522857D01*
X401750Y522852D01*
X401870Y522842D01*
X401989Y522830D01*
X402108Y522813D01*
X402226Y522793D01*
X402344Y522769D01*
X402460Y522742D01*
X402576Y522711D01*
X402691Y522677D01*
X402805Y522639D01*
X402918Y522597D01*
X403029Y522552D01*
X403139Y522504D01*
X403247Y522453D01*
X403354Y522398D01*
X403459Y522340D01*
X403562Y522278D01*
X403663Y522214D01*
X403763Y522146D01*
X403860Y522076D01*
X400466Y518944D02*
X400388Y518992D01*
X400312Y519044D01*
X400239Y519098D01*
X400168Y519156D01*
X400099Y519217D01*
X400033Y519281D01*
X399970Y519348D01*
X399910Y519417D01*
X399853Y519489D01*
X399799Y519563D01*
X399749Y519640D01*
X399701Y519719D01*
X399658Y519799D01*
X399617Y519882D01*
X399581Y519966D01*
X399548Y520051D01*
X399519Y520138D01*
X399493Y520227D01*
X399471Y520316D01*
X399454Y520406D01*
X399440Y520496D01*
X399430Y520588D01*
X399424Y520679D01*
X399422Y520771D01*
X403338Y517376D02*
X403416Y517328D01*
X403492Y517276D01*
X403565Y517222D01*
X403636Y517164D01*
X403705Y517103D01*
X403771Y517039D01*
X403834Y516972D01*
X403894Y516903D01*
X403951Y516831D01*
X404005Y516757D01*
X404055Y516680D01*
X404103Y516601D01*
X404146Y516521D01*
X404187Y516438D01*
X404223Y516354D01*
X404256Y516269D01*
X404285Y516182D01*
X404311Y516093D01*
X404333Y516004D01*
X404350Y515914D01*
X404364Y515824D01*
X404374Y515732D01*
X404380Y515641D01*
X404382Y515549D01*
X403338Y517377D02*
X400466Y518943D01*
X409479Y513461D02*
X412090Y513461D01*
X409479Y513461D02*
X409402Y513463D01*
X409326Y513469D01*
X409249Y513478D01*
X409173Y513491D01*
X409098Y513508D01*
X409024Y513528D01*
X408951Y513553D01*
X408880Y513580D01*
X408809Y513611D01*
X408741Y513646D01*
X408674Y513684D01*
X408609Y513725D01*
X408546Y513769D01*
X408486Y513816D01*
X408427Y513867D01*
X408372Y513920D01*
X408319Y513975D01*
X408268Y514034D01*
X408221Y514094D01*
X408177Y514157D01*
X408136Y514222D01*
X408098Y514289D01*
X408063Y514357D01*
X408032Y514428D01*
X408005Y514499D01*
X407980Y514572D01*
X407960Y514646D01*
X407943Y514721D01*
X407930Y514797D01*
X407921Y514874D01*
X407915Y514950D01*
X407913Y515027D01*
X407913Y517638D01*
X407915Y517728D01*
X407921Y517817D01*
X407930Y517907D01*
X407944Y517996D01*
X407961Y518084D01*
X407982Y518171D01*
X408007Y518258D01*
X408036Y518343D01*
X408068Y518427D01*
X408103Y518509D01*
X408143Y518590D01*
X408185Y518669D01*
X408231Y518746D01*
X408281Y518821D01*
X408333Y518894D01*
X408389Y518965D01*
X408447Y519033D01*
X408509Y519098D01*
X408573Y519161D01*
X408640Y519221D01*
X408709Y519278D01*
X408781Y519332D01*
X408855Y519383D01*
X408931Y519431D01*
X409009Y519475D01*
X409089Y519516D01*
X409171Y519554D01*
X409254Y519588D01*
X409339Y519618D01*
X409425Y519645D01*
X409511Y519668D01*
X409599Y519687D01*
X409688Y519702D01*
X409777Y519714D01*
X409866Y519722D01*
X409956Y519726D01*
X410046Y519726D01*
X410136Y519722D01*
X410225Y519714D01*
X410314Y519702D01*
X410403Y519687D01*
X410491Y519668D01*
X410577Y519645D01*
X410663Y519618D01*
X410748Y519588D01*
X410831Y519554D01*
X410913Y519516D01*
X410993Y519475D01*
X411071Y519431D01*
X411147Y519383D01*
X411221Y519332D01*
X411293Y519278D01*
X411362Y519221D01*
X411429Y519161D01*
X411493Y519098D01*
X411555Y519033D01*
X411613Y518965D01*
X411669Y518894D01*
X411721Y518821D01*
X411771Y518746D01*
X411817Y518669D01*
X411859Y518590D01*
X411899Y518509D01*
X411934Y518427D01*
X411966Y518343D01*
X411995Y518258D01*
X412020Y518171D01*
X412041Y518084D01*
X412058Y517996D01*
X412072Y517907D01*
X412081Y517817D01*
X412087Y517728D01*
X412089Y517638D01*
X412090Y517638D02*
X412090Y516594D01*
X407913Y516594D01*
X416142Y519726D02*
X416142Y513461D01*
X416142Y519726D02*
X418753Y519726D01*
X418830Y519724D01*
X418906Y519718D01*
X418983Y519709D01*
X419059Y519696D01*
X419134Y519679D01*
X419208Y519659D01*
X419281Y519634D01*
X419352Y519607D01*
X419423Y519576D01*
X419491Y519541D01*
X419558Y519503D01*
X419623Y519462D01*
X419686Y519418D01*
X419746Y519371D01*
X419805Y519320D01*
X419860Y519267D01*
X419913Y519212D01*
X419964Y519153D01*
X420011Y519093D01*
X420055Y519030D01*
X420096Y518965D01*
X420134Y518898D01*
X420169Y518830D01*
X420200Y518759D01*
X420227Y518688D01*
X420252Y518615D01*
X420272Y518541D01*
X420289Y518466D01*
X420302Y518390D01*
X420311Y518314D01*
X420317Y518237D01*
X420319Y518160D01*
X420319Y513461D01*
X425155Y517116D02*
X427765Y516072D01*
X425155Y517116D02*
X425089Y517144D01*
X425024Y517177D01*
X424961Y517212D01*
X424900Y517251D01*
X424841Y517293D01*
X424785Y517338D01*
X424731Y517386D01*
X424680Y517437D01*
X424631Y517490D01*
X424586Y517547D01*
X424543Y517605D01*
X424504Y517665D01*
X424467Y517728D01*
X424435Y517793D01*
X424406Y517859D01*
X424380Y517926D01*
X424358Y517995D01*
X424340Y518065D01*
X424325Y518136D01*
X424314Y518207D01*
X424307Y518279D01*
X424304Y518351D01*
X424305Y518423D01*
X424310Y518496D01*
X424318Y518567D01*
X424330Y518639D01*
X424346Y518709D01*
X424366Y518778D01*
X424390Y518847D01*
X424417Y518914D01*
X424447Y518979D01*
X424481Y519043D01*
X424519Y519105D01*
X424559Y519165D01*
X424603Y519222D01*
X424650Y519277D01*
X424700Y519330D01*
X424752Y519379D01*
X424807Y519426D01*
X424864Y519470D01*
X424924Y519511D01*
X424986Y519548D01*
X425050Y519583D01*
X425115Y519613D01*
X425182Y519641D01*
X425250Y519664D01*
X425320Y519684D01*
X425390Y519700D01*
X425461Y519713D01*
X425533Y519721D01*
X425605Y519726D01*
X425677Y519727D01*
X425677Y519726D02*
X425828Y519722D01*
X425979Y519714D01*
X426130Y519703D01*
X426281Y519687D01*
X426431Y519667D01*
X426581Y519644D01*
X426730Y519617D01*
X426878Y519586D01*
X427026Y519551D01*
X427172Y519513D01*
X427318Y519470D01*
X427462Y519424D01*
X427605Y519375D01*
X427747Y519322D01*
X427887Y519265D01*
X428026Y519204D01*
X427766Y516072D02*
X427832Y516044D01*
X427897Y516011D01*
X427960Y515976D01*
X428021Y515937D01*
X428080Y515895D01*
X428136Y515850D01*
X428190Y515802D01*
X428241Y515751D01*
X428290Y515698D01*
X428335Y515641D01*
X428378Y515583D01*
X428417Y515523D01*
X428454Y515460D01*
X428486Y515395D01*
X428515Y515329D01*
X428541Y515262D01*
X428563Y515193D01*
X428581Y515123D01*
X428596Y515052D01*
X428607Y514981D01*
X428614Y514909D01*
X428617Y514837D01*
X428616Y514765D01*
X428611Y514692D01*
X428603Y514621D01*
X428591Y514549D01*
X428575Y514479D01*
X428555Y514410D01*
X428531Y514341D01*
X428504Y514274D01*
X428474Y514209D01*
X428440Y514145D01*
X428402Y514083D01*
X428362Y514023D01*
X428318Y513966D01*
X428271Y513911D01*
X428221Y513858D01*
X428169Y513809D01*
X428114Y513762D01*
X428057Y513718D01*
X427997Y513677D01*
X427935Y513640D01*
X427871Y513605D01*
X427806Y513575D01*
X427739Y513547D01*
X427671Y513524D01*
X427601Y513504D01*
X427531Y513488D01*
X427460Y513475D01*
X427388Y513467D01*
X427316Y513462D01*
X427244Y513461D01*
X427034Y513466D01*
X426825Y513477D01*
X426616Y513492D01*
X426408Y513512D01*
X426200Y513538D01*
X425993Y513568D01*
X425786Y513603D01*
X425581Y513643D01*
X425376Y513687D01*
X425173Y513737D01*
X424970Y513791D01*
X424769Y513851D01*
X424570Y513914D01*
X424372Y513983D01*
X432297Y515549D02*
X432297Y517638D01*
X432299Y517728D01*
X432305Y517817D01*
X432314Y517907D01*
X432328Y517996D01*
X432345Y518084D01*
X432366Y518171D01*
X432391Y518258D01*
X432420Y518343D01*
X432452Y518427D01*
X432487Y518509D01*
X432527Y518590D01*
X432569Y518669D01*
X432615Y518746D01*
X432665Y518821D01*
X432717Y518894D01*
X432773Y518965D01*
X432831Y519033D01*
X432893Y519098D01*
X432957Y519161D01*
X433024Y519221D01*
X433093Y519278D01*
X433165Y519332D01*
X433239Y519383D01*
X433315Y519431D01*
X433393Y519475D01*
X433473Y519516D01*
X433555Y519554D01*
X433638Y519588D01*
X433723Y519618D01*
X433809Y519645D01*
X433895Y519668D01*
X433983Y519687D01*
X434072Y519702D01*
X434161Y519714D01*
X434250Y519722D01*
X434340Y519726D01*
X434430Y519726D01*
X434520Y519722D01*
X434609Y519714D01*
X434698Y519702D01*
X434787Y519687D01*
X434875Y519668D01*
X434961Y519645D01*
X435047Y519618D01*
X435132Y519588D01*
X435215Y519554D01*
X435297Y519516D01*
X435377Y519475D01*
X435455Y519431D01*
X435531Y519383D01*
X435605Y519332D01*
X435677Y519278D01*
X435746Y519221D01*
X435813Y519161D01*
X435877Y519098D01*
X435939Y519033D01*
X435997Y518965D01*
X436053Y518894D01*
X436105Y518821D01*
X436155Y518746D01*
X436201Y518669D01*
X436243Y518590D01*
X436283Y518509D01*
X436318Y518427D01*
X436350Y518343D01*
X436379Y518258D01*
X436404Y518171D01*
X436425Y518084D01*
X436442Y517996D01*
X436456Y517907D01*
X436465Y517817D01*
X436471Y517728D01*
X436473Y517638D01*
X436473Y515549D01*
X436471Y515459D01*
X436465Y515370D01*
X436456Y515280D01*
X436442Y515191D01*
X436425Y515103D01*
X436404Y515016D01*
X436379Y514929D01*
X436350Y514844D01*
X436318Y514760D01*
X436283Y514678D01*
X436243Y514597D01*
X436201Y514518D01*
X436155Y514441D01*
X436105Y514366D01*
X436053Y514293D01*
X435997Y514222D01*
X435939Y514154D01*
X435877Y514089D01*
X435813Y514026D01*
X435746Y513966D01*
X435677Y513909D01*
X435605Y513855D01*
X435531Y513804D01*
X435455Y513756D01*
X435377Y513712D01*
X435297Y513671D01*
X435215Y513633D01*
X435132Y513599D01*
X435047Y513569D01*
X434961Y513542D01*
X434875Y513519D01*
X434787Y513500D01*
X434698Y513485D01*
X434609Y513473D01*
X434520Y513465D01*
X434430Y513461D01*
X434340Y513461D01*
X434250Y513465D01*
X434161Y513473D01*
X434072Y513485D01*
X433983Y513500D01*
X433895Y513519D01*
X433809Y513542D01*
X433723Y513569D01*
X433638Y513599D01*
X433555Y513633D01*
X433473Y513671D01*
X433393Y513712D01*
X433315Y513756D01*
X433239Y513804D01*
X433165Y513855D01*
X433093Y513909D01*
X433024Y513966D01*
X432957Y514026D01*
X432893Y514089D01*
X432831Y514154D01*
X432773Y514222D01*
X432717Y514293D01*
X432665Y514366D01*
X432615Y514441D01*
X432569Y514518D01*
X432527Y514597D01*
X432487Y514678D01*
X432452Y514760D01*
X432420Y514844D01*
X432391Y514929D01*
X432366Y515016D01*
X432345Y515103D01*
X432328Y515191D01*
X432314Y515280D01*
X432305Y515370D01*
X432299Y515459D01*
X432297Y515549D01*
X440578Y513461D02*
X440578Y519726D01*
X443710Y519726D01*
X443710Y518682D01*
X446710Y520771D02*
X449320Y522859D01*
X449320Y513461D01*
X446710Y513461D02*
X451931Y513461D01*
X404382Y413949D02*
X404380Y413860D01*
X404374Y413772D01*
X404365Y413684D01*
X404352Y413596D01*
X404335Y413509D01*
X404315Y413423D01*
X404290Y413338D01*
X404263Y413253D01*
X404231Y413170D01*
X404197Y413089D01*
X404158Y413009D01*
X404117Y412931D01*
X404072Y412854D01*
X404024Y412780D01*
X403973Y412707D01*
X403919Y412637D01*
X403861Y412570D01*
X403801Y412504D01*
X403739Y412442D01*
X403673Y412382D01*
X403606Y412324D01*
X403536Y412270D01*
X403463Y412219D01*
X403389Y412171D01*
X403312Y412126D01*
X403234Y412085D01*
X403154Y412046D01*
X403073Y412012D01*
X402990Y411980D01*
X402905Y411953D01*
X402820Y411928D01*
X402734Y411908D01*
X402647Y411891D01*
X402559Y411878D01*
X402471Y411869D01*
X402383Y411863D01*
X402294Y411861D01*
X402165Y411863D01*
X402036Y411869D01*
X401907Y411878D01*
X401779Y411891D01*
X401651Y411908D01*
X401524Y411929D01*
X401397Y411953D01*
X401271Y411981D01*
X401146Y412013D01*
X401022Y412048D01*
X400899Y412087D01*
X400777Y412130D01*
X400657Y412176D01*
X400538Y412226D01*
X400420Y412279D01*
X400304Y412335D01*
X400190Y412395D01*
X400077Y412458D01*
X399967Y412525D01*
X399858Y412594D01*
X399752Y412667D01*
X399647Y412743D01*
X399545Y412822D01*
X399446Y412904D01*
X399348Y412988D01*
X399253Y413076D01*
X399161Y413166D01*
X399422Y419171D02*
X399424Y419260D01*
X399430Y419348D01*
X399439Y419436D01*
X399452Y419524D01*
X399469Y419611D01*
X399489Y419697D01*
X399514Y419782D01*
X399541Y419867D01*
X399573Y419950D01*
X399607Y420031D01*
X399646Y420111D01*
X399687Y420189D01*
X399732Y420266D01*
X399780Y420340D01*
X399831Y420413D01*
X399885Y420483D01*
X399943Y420550D01*
X400003Y420616D01*
X400065Y420678D01*
X400131Y420738D01*
X400198Y420796D01*
X400268Y420850D01*
X400341Y420901D01*
X400415Y420949D01*
X400492Y420994D01*
X400570Y421035D01*
X400650Y421074D01*
X400731Y421108D01*
X400814Y421140D01*
X400899Y421167D01*
X400984Y421192D01*
X401070Y421212D01*
X401157Y421229D01*
X401245Y421242D01*
X401333Y421251D01*
X401421Y421257D01*
X401510Y421259D01*
X401630Y421257D01*
X401750Y421252D01*
X401870Y421242D01*
X401989Y421230D01*
X402108Y421213D01*
X402226Y421193D01*
X402344Y421169D01*
X402460Y421142D01*
X402576Y421111D01*
X402691Y421077D01*
X402805Y421039D01*
X402918Y420997D01*
X403029Y420952D01*
X403139Y420904D01*
X403247Y420853D01*
X403354Y420798D01*
X403459Y420740D01*
X403562Y420678D01*
X403663Y420614D01*
X403763Y420546D01*
X403860Y420476D01*
X400466Y417344D02*
X400388Y417392D01*
X400312Y417444D01*
X400239Y417498D01*
X400168Y417556D01*
X400099Y417617D01*
X400033Y417681D01*
X399970Y417748D01*
X399910Y417817D01*
X399853Y417889D01*
X399799Y417963D01*
X399749Y418040D01*
X399701Y418119D01*
X399658Y418199D01*
X399617Y418282D01*
X399581Y418366D01*
X399548Y418451D01*
X399519Y418538D01*
X399493Y418627D01*
X399471Y418716D01*
X399454Y418806D01*
X399440Y418896D01*
X399430Y418988D01*
X399424Y419079D01*
X399422Y419171D01*
X403338Y415776D02*
X403416Y415728D01*
X403492Y415676D01*
X403565Y415622D01*
X403636Y415564D01*
X403705Y415503D01*
X403771Y415439D01*
X403834Y415372D01*
X403894Y415303D01*
X403951Y415231D01*
X404005Y415157D01*
X404055Y415080D01*
X404103Y415001D01*
X404146Y414921D01*
X404187Y414838D01*
X404223Y414754D01*
X404256Y414669D01*
X404285Y414582D01*
X404311Y414493D01*
X404333Y414404D01*
X404350Y414314D01*
X404364Y414224D01*
X404374Y414132D01*
X404380Y414041D01*
X404382Y413949D01*
X403338Y415777D02*
X400466Y417343D01*
X409479Y411861D02*
X412090Y411861D01*
X409479Y411861D02*
X409402Y411863D01*
X409326Y411869D01*
X409249Y411878D01*
X409173Y411891D01*
X409098Y411908D01*
X409024Y411928D01*
X408951Y411953D01*
X408880Y411980D01*
X408809Y412011D01*
X408741Y412046D01*
X408674Y412084D01*
X408609Y412125D01*
X408546Y412169D01*
X408486Y412216D01*
X408427Y412267D01*
X408372Y412320D01*
X408319Y412375D01*
X408268Y412434D01*
X408221Y412494D01*
X408177Y412557D01*
X408136Y412622D01*
X408098Y412689D01*
X408063Y412757D01*
X408032Y412828D01*
X408005Y412899D01*
X407980Y412972D01*
X407960Y413046D01*
X407943Y413121D01*
X407930Y413197D01*
X407921Y413274D01*
X407915Y413350D01*
X407913Y413427D01*
X407913Y416038D01*
X407915Y416128D01*
X407921Y416217D01*
X407930Y416307D01*
X407944Y416396D01*
X407961Y416484D01*
X407982Y416571D01*
X408007Y416658D01*
X408036Y416743D01*
X408068Y416827D01*
X408103Y416909D01*
X408143Y416990D01*
X408185Y417069D01*
X408231Y417146D01*
X408281Y417221D01*
X408333Y417294D01*
X408389Y417365D01*
X408447Y417433D01*
X408509Y417498D01*
X408573Y417561D01*
X408640Y417621D01*
X408709Y417678D01*
X408781Y417732D01*
X408855Y417783D01*
X408931Y417831D01*
X409009Y417875D01*
X409089Y417916D01*
X409171Y417954D01*
X409254Y417988D01*
X409339Y418018D01*
X409425Y418045D01*
X409511Y418068D01*
X409599Y418087D01*
X409688Y418102D01*
X409777Y418114D01*
X409866Y418122D01*
X409956Y418126D01*
X410046Y418126D01*
X410136Y418122D01*
X410225Y418114D01*
X410314Y418102D01*
X410403Y418087D01*
X410491Y418068D01*
X410577Y418045D01*
X410663Y418018D01*
X410748Y417988D01*
X410831Y417954D01*
X410913Y417916D01*
X410993Y417875D01*
X411071Y417831D01*
X411147Y417783D01*
X411221Y417732D01*
X411293Y417678D01*
X411362Y417621D01*
X411429Y417561D01*
X411493Y417498D01*
X411555Y417433D01*
X411613Y417365D01*
X411669Y417294D01*
X411721Y417221D01*
X411771Y417146D01*
X411817Y417069D01*
X411859Y416990D01*
X411899Y416909D01*
X411934Y416827D01*
X411966Y416743D01*
X411995Y416658D01*
X412020Y416571D01*
X412041Y416484D01*
X412058Y416396D01*
X412072Y416307D01*
X412081Y416217D01*
X412087Y416128D01*
X412089Y416038D01*
X412090Y416038D02*
X412090Y414994D01*
X407913Y414994D01*
X416142Y418126D02*
X416142Y411861D01*
X416142Y418126D02*
X418753Y418126D01*
X418830Y418124D01*
X418906Y418118D01*
X418983Y418109D01*
X419059Y418096D01*
X419134Y418079D01*
X419208Y418059D01*
X419281Y418034D01*
X419352Y418007D01*
X419423Y417976D01*
X419491Y417941D01*
X419558Y417903D01*
X419623Y417862D01*
X419686Y417818D01*
X419746Y417771D01*
X419805Y417720D01*
X419860Y417667D01*
X419913Y417612D01*
X419964Y417553D01*
X420011Y417493D01*
X420055Y417430D01*
X420096Y417365D01*
X420134Y417298D01*
X420169Y417230D01*
X420200Y417159D01*
X420227Y417088D01*
X420252Y417015D01*
X420272Y416941D01*
X420289Y416866D01*
X420302Y416790D01*
X420311Y416714D01*
X420317Y416637D01*
X420319Y416560D01*
X420319Y411861D01*
X425155Y415516D02*
X427765Y414472D01*
X425155Y415516D02*
X425089Y415544D01*
X425024Y415577D01*
X424961Y415612D01*
X424900Y415651D01*
X424841Y415693D01*
X424785Y415738D01*
X424731Y415786D01*
X424680Y415837D01*
X424631Y415890D01*
X424586Y415947D01*
X424543Y416005D01*
X424504Y416065D01*
X424467Y416128D01*
X424435Y416193D01*
X424406Y416259D01*
X424380Y416326D01*
X424358Y416395D01*
X424340Y416465D01*
X424325Y416536D01*
X424314Y416607D01*
X424307Y416679D01*
X424304Y416751D01*
X424305Y416823D01*
X424310Y416896D01*
X424318Y416967D01*
X424330Y417039D01*
X424346Y417109D01*
X424366Y417178D01*
X424390Y417247D01*
X424417Y417314D01*
X424447Y417379D01*
X424481Y417443D01*
X424519Y417505D01*
X424559Y417565D01*
X424603Y417622D01*
X424650Y417677D01*
X424700Y417730D01*
X424752Y417779D01*
X424807Y417826D01*
X424864Y417870D01*
X424924Y417911D01*
X424986Y417948D01*
X425050Y417983D01*
X425115Y418013D01*
X425182Y418041D01*
X425250Y418064D01*
X425320Y418084D01*
X425390Y418100D01*
X425461Y418113D01*
X425533Y418121D01*
X425605Y418126D01*
X425677Y418127D01*
X425677Y418126D02*
X425828Y418122D01*
X425979Y418114D01*
X426130Y418103D01*
X426281Y418087D01*
X426431Y418067D01*
X426581Y418044D01*
X426730Y418017D01*
X426878Y417986D01*
X427026Y417951D01*
X427172Y417913D01*
X427318Y417870D01*
X427462Y417824D01*
X427605Y417775D01*
X427747Y417722D01*
X427887Y417665D01*
X428026Y417604D01*
X427766Y414472D02*
X427832Y414444D01*
X427897Y414411D01*
X427960Y414376D01*
X428021Y414337D01*
X428080Y414295D01*
X428136Y414250D01*
X428190Y414202D01*
X428241Y414151D01*
X428290Y414098D01*
X428335Y414041D01*
X428378Y413983D01*
X428417Y413923D01*
X428454Y413860D01*
X428486Y413795D01*
X428515Y413729D01*
X428541Y413662D01*
X428563Y413593D01*
X428581Y413523D01*
X428596Y413452D01*
X428607Y413381D01*
X428614Y413309D01*
X428617Y413237D01*
X428616Y413165D01*
X428611Y413092D01*
X428603Y413021D01*
X428591Y412949D01*
X428575Y412879D01*
X428555Y412810D01*
X428531Y412741D01*
X428504Y412674D01*
X428474Y412609D01*
X428440Y412545D01*
X428402Y412483D01*
X428362Y412423D01*
X428318Y412366D01*
X428271Y412311D01*
X428221Y412258D01*
X428169Y412209D01*
X428114Y412162D01*
X428057Y412118D01*
X427997Y412077D01*
X427935Y412040D01*
X427871Y412005D01*
X427806Y411975D01*
X427739Y411947D01*
X427671Y411924D01*
X427601Y411904D01*
X427531Y411888D01*
X427460Y411875D01*
X427388Y411867D01*
X427316Y411862D01*
X427244Y411861D01*
X427034Y411866D01*
X426825Y411877D01*
X426616Y411892D01*
X426408Y411912D01*
X426200Y411938D01*
X425993Y411968D01*
X425786Y412003D01*
X425581Y412043D01*
X425376Y412087D01*
X425173Y412137D01*
X424970Y412191D01*
X424769Y412251D01*
X424570Y412314D01*
X424372Y412383D01*
X432297Y413949D02*
X432297Y416038D01*
X432299Y416128D01*
X432305Y416217D01*
X432314Y416307D01*
X432328Y416396D01*
X432345Y416484D01*
X432366Y416571D01*
X432391Y416658D01*
X432420Y416743D01*
X432452Y416827D01*
X432487Y416909D01*
X432527Y416990D01*
X432569Y417069D01*
X432615Y417146D01*
X432665Y417221D01*
X432717Y417294D01*
X432773Y417365D01*
X432831Y417433D01*
X432893Y417498D01*
X432957Y417561D01*
X433024Y417621D01*
X433093Y417678D01*
X433165Y417732D01*
X433239Y417783D01*
X433315Y417831D01*
X433393Y417875D01*
X433473Y417916D01*
X433555Y417954D01*
X433638Y417988D01*
X433723Y418018D01*
X433809Y418045D01*
X433895Y418068D01*
X433983Y418087D01*
X434072Y418102D01*
X434161Y418114D01*
X434250Y418122D01*
X434340Y418126D01*
X434430Y418126D01*
X434520Y418122D01*
X434609Y418114D01*
X434698Y418102D01*
X434787Y418087D01*
X434875Y418068D01*
X434961Y418045D01*
X435047Y418018D01*
X435132Y417988D01*
X435215Y417954D01*
X435297Y417916D01*
X435377Y417875D01*
X435455Y417831D01*
X435531Y417783D01*
X435605Y417732D01*
X435677Y417678D01*
X435746Y417621D01*
X435813Y417561D01*
X435877Y417498D01*
X435939Y417433D01*
X435997Y417365D01*
X436053Y417294D01*
X436105Y417221D01*
X436155Y417146D01*
X436201Y417069D01*
X436243Y416990D01*
X436283Y416909D01*
X436318Y416827D01*
X436350Y416743D01*
X436379Y416658D01*
X436404Y416571D01*
X436425Y416484D01*
X436442Y416396D01*
X436456Y416307D01*
X436465Y416217D01*
X436471Y416128D01*
X436473Y416038D01*
X436473Y413949D01*
X436471Y413859D01*
X436465Y413770D01*
X436456Y413680D01*
X436442Y413591D01*
X436425Y413503D01*
X436404Y413416D01*
X436379Y413329D01*
X436350Y413244D01*
X436318Y413160D01*
X436283Y413078D01*
X436243Y412997D01*
X436201Y412918D01*
X436155Y412841D01*
X436105Y412766D01*
X436053Y412693D01*
X435997Y412622D01*
X435939Y412554D01*
X435877Y412489D01*
X435813Y412426D01*
X435746Y412366D01*
X435677Y412309D01*
X435605Y412255D01*
X435531Y412204D01*
X435455Y412156D01*
X435377Y412112D01*
X435297Y412071D01*
X435215Y412033D01*
X435132Y411999D01*
X435047Y411969D01*
X434961Y411942D01*
X434875Y411919D01*
X434787Y411900D01*
X434698Y411885D01*
X434609Y411873D01*
X434520Y411865D01*
X434430Y411861D01*
X434340Y411861D01*
X434250Y411865D01*
X434161Y411873D01*
X434072Y411885D01*
X433983Y411900D01*
X433895Y411919D01*
X433809Y411942D01*
X433723Y411969D01*
X433638Y411999D01*
X433555Y412033D01*
X433473Y412071D01*
X433393Y412112D01*
X433315Y412156D01*
X433239Y412204D01*
X433165Y412255D01*
X433093Y412309D01*
X433024Y412366D01*
X432957Y412426D01*
X432893Y412489D01*
X432831Y412554D01*
X432773Y412622D01*
X432717Y412693D01*
X432665Y412766D01*
X432615Y412841D01*
X432569Y412918D01*
X432527Y412997D01*
X432487Y413078D01*
X432452Y413160D01*
X432420Y413244D01*
X432391Y413329D01*
X432366Y413416D01*
X432345Y413503D01*
X432328Y413591D01*
X432314Y413680D01*
X432305Y413770D01*
X432299Y413859D01*
X432297Y413949D01*
X440578Y411861D02*
X440578Y418126D01*
X443710Y418126D01*
X443710Y417082D01*
X449581Y421260D02*
X449676Y421258D01*
X449770Y421252D01*
X449864Y421243D01*
X449958Y421230D01*
X450051Y421213D01*
X450143Y421192D01*
X450235Y421167D01*
X450325Y421139D01*
X450414Y421107D01*
X450502Y421072D01*
X450588Y421033D01*
X450673Y420991D01*
X450756Y420945D01*
X450837Y420896D01*
X450916Y420844D01*
X450993Y420789D01*
X451067Y420730D01*
X451139Y420669D01*
X451209Y420605D01*
X451276Y420538D01*
X451340Y420468D01*
X451401Y420396D01*
X451460Y420322D01*
X451515Y420245D01*
X451567Y420166D01*
X451616Y420085D01*
X451662Y420002D01*
X451704Y419917D01*
X451743Y419831D01*
X451778Y419743D01*
X451810Y419654D01*
X451838Y419564D01*
X451863Y419472D01*
X451884Y419380D01*
X451901Y419287D01*
X451914Y419193D01*
X451923Y419099D01*
X451929Y419005D01*
X451931Y418910D01*
X449581Y421259D02*
X449473Y421257D01*
X449364Y421251D01*
X449256Y421241D01*
X449149Y421228D01*
X449042Y421210D01*
X448935Y421189D01*
X448830Y421164D01*
X448725Y421135D01*
X448622Y421103D01*
X448520Y421066D01*
X448419Y421026D01*
X448320Y420983D01*
X448222Y420936D01*
X448126Y420885D01*
X448032Y420831D01*
X447940Y420774D01*
X447850Y420713D01*
X447762Y420649D01*
X447677Y420583D01*
X447594Y420513D01*
X447514Y420440D01*
X447436Y420364D01*
X447361Y420286D01*
X447289Y420205D01*
X447220Y420121D01*
X447154Y420035D01*
X447091Y419947D01*
X447032Y419856D01*
X446975Y419764D01*
X446922Y419669D01*
X446873Y419573D01*
X446827Y419474D01*
X446784Y419375D01*
X446745Y419273D01*
X446710Y419171D01*
X451148Y417082D02*
X451217Y417151D01*
X451283Y417222D01*
X451347Y417295D01*
X451408Y417371D01*
X451466Y417450D01*
X451520Y417530D01*
X451572Y417613D01*
X451620Y417697D01*
X451666Y417783D01*
X451707Y417871D01*
X451746Y417961D01*
X451781Y418052D01*
X451812Y418144D01*
X451840Y418237D01*
X451864Y418331D01*
X451884Y418426D01*
X451901Y418522D01*
X451914Y418619D01*
X451923Y418716D01*
X451929Y418813D01*
X451931Y418910D01*
X451148Y417082D02*
X446710Y411861D01*
X451931Y411861D01*
X406922Y304729D02*
X406920Y304640D01*
X406914Y304552D01*
X406905Y304464D01*
X406892Y304376D01*
X406875Y304289D01*
X406855Y304203D01*
X406830Y304118D01*
X406803Y304033D01*
X406771Y303950D01*
X406737Y303869D01*
X406698Y303789D01*
X406657Y303711D01*
X406612Y303634D01*
X406564Y303560D01*
X406513Y303487D01*
X406459Y303417D01*
X406401Y303350D01*
X406341Y303284D01*
X406279Y303222D01*
X406213Y303162D01*
X406146Y303104D01*
X406076Y303050D01*
X406003Y302999D01*
X405929Y302951D01*
X405852Y302906D01*
X405774Y302865D01*
X405694Y302826D01*
X405613Y302792D01*
X405530Y302760D01*
X405445Y302733D01*
X405360Y302708D01*
X405274Y302688D01*
X405187Y302671D01*
X405099Y302658D01*
X405011Y302649D01*
X404923Y302643D01*
X404834Y302641D01*
X404705Y302643D01*
X404576Y302649D01*
X404447Y302658D01*
X404319Y302671D01*
X404191Y302688D01*
X404064Y302709D01*
X403937Y302733D01*
X403811Y302761D01*
X403686Y302793D01*
X403562Y302828D01*
X403439Y302867D01*
X403317Y302910D01*
X403197Y302956D01*
X403078Y303006D01*
X402960Y303059D01*
X402844Y303115D01*
X402730Y303175D01*
X402617Y303238D01*
X402507Y303305D01*
X402398Y303374D01*
X402292Y303447D01*
X402187Y303523D01*
X402085Y303602D01*
X401986Y303684D01*
X401888Y303768D01*
X401793Y303856D01*
X401701Y303946D01*
X401962Y309951D02*
X401964Y310040D01*
X401970Y310128D01*
X401979Y310216D01*
X401992Y310304D01*
X402009Y310391D01*
X402029Y310477D01*
X402054Y310562D01*
X402081Y310647D01*
X402113Y310730D01*
X402147Y310811D01*
X402186Y310891D01*
X402227Y310969D01*
X402272Y311046D01*
X402320Y311120D01*
X402371Y311193D01*
X402425Y311263D01*
X402483Y311330D01*
X402543Y311396D01*
X402605Y311458D01*
X402671Y311518D01*
X402738Y311576D01*
X402808Y311630D01*
X402881Y311681D01*
X402955Y311729D01*
X403032Y311774D01*
X403110Y311815D01*
X403190Y311854D01*
X403271Y311888D01*
X403354Y311920D01*
X403439Y311947D01*
X403524Y311972D01*
X403610Y311992D01*
X403697Y312009D01*
X403785Y312022D01*
X403873Y312031D01*
X403961Y312037D01*
X404050Y312039D01*
X404170Y312037D01*
X404290Y312032D01*
X404410Y312022D01*
X404529Y312010D01*
X404648Y311993D01*
X404766Y311973D01*
X404884Y311949D01*
X405000Y311922D01*
X405116Y311891D01*
X405231Y311857D01*
X405345Y311819D01*
X405458Y311777D01*
X405569Y311732D01*
X405679Y311684D01*
X405787Y311633D01*
X405894Y311578D01*
X405999Y311520D01*
X406102Y311458D01*
X406203Y311394D01*
X406303Y311326D01*
X406400Y311256D01*
X403006Y308124D02*
X402928Y308172D01*
X402852Y308224D01*
X402779Y308278D01*
X402708Y308336D01*
X402639Y308397D01*
X402573Y308461D01*
X402510Y308528D01*
X402450Y308597D01*
X402393Y308669D01*
X402339Y308743D01*
X402289Y308820D01*
X402241Y308899D01*
X402198Y308979D01*
X402157Y309062D01*
X402121Y309146D01*
X402088Y309231D01*
X402059Y309318D01*
X402033Y309407D01*
X402011Y309496D01*
X401994Y309586D01*
X401980Y309676D01*
X401970Y309768D01*
X401964Y309859D01*
X401962Y309951D01*
X405878Y306556D02*
X405956Y306508D01*
X406032Y306456D01*
X406105Y306402D01*
X406176Y306344D01*
X406245Y306283D01*
X406311Y306219D01*
X406374Y306152D01*
X406434Y306083D01*
X406491Y306011D01*
X406545Y305937D01*
X406595Y305860D01*
X406643Y305781D01*
X406686Y305701D01*
X406727Y305618D01*
X406763Y305534D01*
X406796Y305449D01*
X406825Y305362D01*
X406851Y305273D01*
X406873Y305184D01*
X406890Y305094D01*
X406904Y305004D01*
X406914Y304912D01*
X406920Y304821D01*
X406922Y304729D01*
X405878Y306557D02*
X403006Y308123D01*
X412019Y302641D02*
X414630Y302641D01*
X412019Y302641D02*
X411942Y302643D01*
X411866Y302649D01*
X411789Y302658D01*
X411713Y302671D01*
X411638Y302688D01*
X411564Y302708D01*
X411491Y302733D01*
X411420Y302760D01*
X411349Y302791D01*
X411281Y302826D01*
X411214Y302864D01*
X411149Y302905D01*
X411086Y302949D01*
X411026Y302996D01*
X410967Y303047D01*
X410912Y303100D01*
X410859Y303155D01*
X410808Y303214D01*
X410761Y303274D01*
X410717Y303337D01*
X410676Y303402D01*
X410638Y303469D01*
X410603Y303537D01*
X410572Y303608D01*
X410545Y303679D01*
X410520Y303752D01*
X410500Y303826D01*
X410483Y303901D01*
X410470Y303977D01*
X410461Y304054D01*
X410455Y304130D01*
X410453Y304207D01*
X410453Y306818D01*
X410455Y306908D01*
X410461Y306997D01*
X410470Y307087D01*
X410484Y307176D01*
X410501Y307264D01*
X410522Y307351D01*
X410547Y307438D01*
X410576Y307523D01*
X410608Y307607D01*
X410643Y307689D01*
X410683Y307770D01*
X410725Y307849D01*
X410771Y307926D01*
X410821Y308001D01*
X410873Y308074D01*
X410929Y308145D01*
X410987Y308213D01*
X411049Y308278D01*
X411113Y308341D01*
X411180Y308401D01*
X411249Y308458D01*
X411321Y308512D01*
X411395Y308563D01*
X411471Y308611D01*
X411549Y308655D01*
X411629Y308696D01*
X411711Y308734D01*
X411794Y308768D01*
X411879Y308798D01*
X411965Y308825D01*
X412051Y308848D01*
X412139Y308867D01*
X412228Y308882D01*
X412317Y308894D01*
X412406Y308902D01*
X412496Y308906D01*
X412586Y308906D01*
X412676Y308902D01*
X412765Y308894D01*
X412854Y308882D01*
X412943Y308867D01*
X413031Y308848D01*
X413117Y308825D01*
X413203Y308798D01*
X413288Y308768D01*
X413371Y308734D01*
X413453Y308696D01*
X413533Y308655D01*
X413611Y308611D01*
X413687Y308563D01*
X413761Y308512D01*
X413833Y308458D01*
X413902Y308401D01*
X413969Y308341D01*
X414033Y308278D01*
X414095Y308213D01*
X414153Y308145D01*
X414209Y308074D01*
X414261Y308001D01*
X414311Y307926D01*
X414357Y307849D01*
X414399Y307770D01*
X414439Y307689D01*
X414474Y307607D01*
X414506Y307523D01*
X414535Y307438D01*
X414560Y307351D01*
X414581Y307264D01*
X414598Y307176D01*
X414612Y307087D01*
X414621Y306997D01*
X414627Y306908D01*
X414629Y306818D01*
X414630Y306818D02*
X414630Y305774D01*
X410453Y305774D01*
X418682Y308906D02*
X418682Y302641D01*
X418682Y308906D02*
X421293Y308906D01*
X421370Y308904D01*
X421446Y308898D01*
X421523Y308889D01*
X421599Y308876D01*
X421674Y308859D01*
X421748Y308839D01*
X421821Y308814D01*
X421892Y308787D01*
X421963Y308756D01*
X422031Y308721D01*
X422098Y308683D01*
X422163Y308642D01*
X422226Y308598D01*
X422286Y308551D01*
X422345Y308500D01*
X422400Y308447D01*
X422453Y308392D01*
X422504Y308333D01*
X422551Y308273D01*
X422595Y308210D01*
X422636Y308145D01*
X422674Y308078D01*
X422709Y308010D01*
X422740Y307939D01*
X422767Y307868D01*
X422792Y307795D01*
X422812Y307721D01*
X422829Y307646D01*
X422842Y307570D01*
X422851Y307494D01*
X422857Y307417D01*
X422859Y307340D01*
X422859Y302641D01*
X427695Y306296D02*
X430305Y305252D01*
X427695Y306296D02*
X427629Y306324D01*
X427564Y306357D01*
X427501Y306392D01*
X427440Y306431D01*
X427381Y306473D01*
X427325Y306518D01*
X427271Y306566D01*
X427220Y306617D01*
X427171Y306670D01*
X427126Y306727D01*
X427083Y306785D01*
X427044Y306845D01*
X427007Y306908D01*
X426975Y306973D01*
X426946Y307039D01*
X426920Y307106D01*
X426898Y307175D01*
X426880Y307245D01*
X426865Y307316D01*
X426854Y307387D01*
X426847Y307459D01*
X426844Y307531D01*
X426845Y307603D01*
X426850Y307676D01*
X426858Y307747D01*
X426870Y307819D01*
X426886Y307889D01*
X426906Y307958D01*
X426930Y308027D01*
X426957Y308094D01*
X426987Y308159D01*
X427021Y308223D01*
X427059Y308285D01*
X427099Y308345D01*
X427143Y308402D01*
X427190Y308457D01*
X427240Y308510D01*
X427292Y308559D01*
X427347Y308606D01*
X427404Y308650D01*
X427464Y308691D01*
X427526Y308728D01*
X427590Y308763D01*
X427655Y308793D01*
X427722Y308821D01*
X427790Y308844D01*
X427860Y308864D01*
X427930Y308880D01*
X428001Y308893D01*
X428073Y308901D01*
X428145Y308906D01*
X428217Y308907D01*
X428217Y308906D02*
X428368Y308902D01*
X428519Y308894D01*
X428670Y308883D01*
X428821Y308867D01*
X428971Y308847D01*
X429121Y308824D01*
X429270Y308797D01*
X429418Y308766D01*
X429566Y308731D01*
X429712Y308693D01*
X429858Y308650D01*
X430002Y308604D01*
X430145Y308555D01*
X430287Y308502D01*
X430427Y308445D01*
X430566Y308384D01*
X430306Y305252D02*
X430372Y305224D01*
X430437Y305191D01*
X430500Y305156D01*
X430561Y305117D01*
X430620Y305075D01*
X430676Y305030D01*
X430730Y304982D01*
X430781Y304931D01*
X430830Y304878D01*
X430875Y304821D01*
X430918Y304763D01*
X430957Y304703D01*
X430994Y304640D01*
X431026Y304575D01*
X431055Y304509D01*
X431081Y304442D01*
X431103Y304373D01*
X431121Y304303D01*
X431136Y304232D01*
X431147Y304161D01*
X431154Y304089D01*
X431157Y304017D01*
X431156Y303945D01*
X431151Y303872D01*
X431143Y303801D01*
X431131Y303729D01*
X431115Y303659D01*
X431095Y303590D01*
X431071Y303521D01*
X431044Y303454D01*
X431014Y303389D01*
X430980Y303325D01*
X430942Y303263D01*
X430902Y303203D01*
X430858Y303146D01*
X430811Y303091D01*
X430761Y303038D01*
X430709Y302989D01*
X430654Y302942D01*
X430597Y302898D01*
X430537Y302857D01*
X430475Y302820D01*
X430411Y302785D01*
X430346Y302755D01*
X430279Y302727D01*
X430211Y302704D01*
X430141Y302684D01*
X430071Y302668D01*
X430000Y302655D01*
X429928Y302647D01*
X429856Y302642D01*
X429784Y302641D01*
X429574Y302646D01*
X429365Y302657D01*
X429156Y302672D01*
X428948Y302692D01*
X428740Y302718D01*
X428533Y302748D01*
X428326Y302783D01*
X428121Y302823D01*
X427916Y302867D01*
X427713Y302917D01*
X427510Y302971D01*
X427309Y303031D01*
X427110Y303094D01*
X426912Y303163D01*
X434837Y304729D02*
X434837Y306818D01*
X434839Y306908D01*
X434845Y306997D01*
X434854Y307087D01*
X434868Y307176D01*
X434885Y307264D01*
X434906Y307351D01*
X434931Y307438D01*
X434960Y307523D01*
X434992Y307607D01*
X435027Y307689D01*
X435067Y307770D01*
X435109Y307849D01*
X435155Y307926D01*
X435205Y308001D01*
X435257Y308074D01*
X435313Y308145D01*
X435371Y308213D01*
X435433Y308278D01*
X435497Y308341D01*
X435564Y308401D01*
X435633Y308458D01*
X435705Y308512D01*
X435779Y308563D01*
X435855Y308611D01*
X435933Y308655D01*
X436013Y308696D01*
X436095Y308734D01*
X436178Y308768D01*
X436263Y308798D01*
X436349Y308825D01*
X436435Y308848D01*
X436523Y308867D01*
X436612Y308882D01*
X436701Y308894D01*
X436790Y308902D01*
X436880Y308906D01*
X436970Y308906D01*
X437060Y308902D01*
X437149Y308894D01*
X437238Y308882D01*
X437327Y308867D01*
X437415Y308848D01*
X437501Y308825D01*
X437587Y308798D01*
X437672Y308768D01*
X437755Y308734D01*
X437837Y308696D01*
X437917Y308655D01*
X437995Y308611D01*
X438071Y308563D01*
X438145Y308512D01*
X438217Y308458D01*
X438286Y308401D01*
X438353Y308341D01*
X438417Y308278D01*
X438479Y308213D01*
X438537Y308145D01*
X438593Y308074D01*
X438645Y308001D01*
X438695Y307926D01*
X438741Y307849D01*
X438783Y307770D01*
X438823Y307689D01*
X438858Y307607D01*
X438890Y307523D01*
X438919Y307438D01*
X438944Y307351D01*
X438965Y307264D01*
X438982Y307176D01*
X438996Y307087D01*
X439005Y306997D01*
X439011Y306908D01*
X439013Y306818D01*
X439013Y304729D01*
X439011Y304639D01*
X439005Y304550D01*
X438996Y304460D01*
X438982Y304371D01*
X438965Y304283D01*
X438944Y304196D01*
X438919Y304109D01*
X438890Y304024D01*
X438858Y303940D01*
X438823Y303858D01*
X438783Y303777D01*
X438741Y303698D01*
X438695Y303621D01*
X438645Y303546D01*
X438593Y303473D01*
X438537Y303402D01*
X438479Y303334D01*
X438417Y303269D01*
X438353Y303206D01*
X438286Y303146D01*
X438217Y303089D01*
X438145Y303035D01*
X438071Y302984D01*
X437995Y302936D01*
X437917Y302892D01*
X437837Y302851D01*
X437755Y302813D01*
X437672Y302779D01*
X437587Y302749D01*
X437501Y302722D01*
X437415Y302699D01*
X437327Y302680D01*
X437238Y302665D01*
X437149Y302653D01*
X437060Y302645D01*
X436970Y302641D01*
X436880Y302641D01*
X436790Y302645D01*
X436701Y302653D01*
X436612Y302665D01*
X436523Y302680D01*
X436435Y302699D01*
X436349Y302722D01*
X436263Y302749D01*
X436178Y302779D01*
X436095Y302813D01*
X436013Y302851D01*
X435933Y302892D01*
X435855Y302936D01*
X435779Y302984D01*
X435705Y303035D01*
X435633Y303089D01*
X435564Y303146D01*
X435497Y303206D01*
X435433Y303269D01*
X435371Y303334D01*
X435313Y303402D01*
X435257Y303473D01*
X435205Y303546D01*
X435155Y303621D01*
X435109Y303698D01*
X435067Y303777D01*
X435027Y303858D01*
X434992Y303940D01*
X434960Y304024D01*
X434931Y304109D01*
X434906Y304196D01*
X434885Y304283D01*
X434868Y304371D01*
X434854Y304460D01*
X434845Y304550D01*
X434839Y304639D01*
X434837Y304729D01*
X443118Y302641D02*
X443118Y308906D01*
X446250Y308906D01*
X446250Y307862D01*
X449250Y302641D02*
X451860Y302641D01*
X451961Y302643D01*
X452062Y302649D01*
X452163Y302659D01*
X452263Y302672D01*
X452363Y302690D01*
X452462Y302711D01*
X452560Y302737D01*
X452657Y302766D01*
X452753Y302798D01*
X452847Y302835D01*
X452940Y302875D01*
X453032Y302919D01*
X453121Y302966D01*
X453209Y303017D01*
X453295Y303071D01*
X453378Y303128D01*
X453460Y303188D01*
X453538Y303252D01*
X453615Y303318D01*
X453688Y303388D01*
X453759Y303460D01*
X453827Y303535D01*
X453892Y303613D01*
X453954Y303693D01*
X454013Y303775D01*
X454069Y303860D01*
X454121Y303947D01*
X454170Y304035D01*
X454216Y304126D01*
X454257Y304218D01*
X454296Y304312D01*
X454330Y304407D01*
X454361Y304503D01*
X454388Y304601D01*
X454412Y304699D01*
X454431Y304799D01*
X454447Y304899D01*
X454459Y304999D01*
X454467Y305100D01*
X454471Y305201D01*
X454471Y305303D01*
X454467Y305404D01*
X454459Y305505D01*
X454447Y305605D01*
X454431Y305705D01*
X454412Y305805D01*
X454388Y305903D01*
X454361Y306001D01*
X454330Y306097D01*
X454296Y306192D01*
X454257Y306286D01*
X454216Y306378D01*
X454170Y306469D01*
X454121Y306557D01*
X454069Y306644D01*
X454013Y306729D01*
X453954Y306811D01*
X453892Y306891D01*
X453827Y306969D01*
X453759Y307044D01*
X453688Y307116D01*
X453615Y307186D01*
X453538Y307252D01*
X453460Y307316D01*
X453378Y307376D01*
X453295Y307433D01*
X453209Y307487D01*
X453121Y307538D01*
X453032Y307585D01*
X452940Y307629D01*
X452847Y307669D01*
X452753Y307706D01*
X452657Y307738D01*
X452560Y307767D01*
X452462Y307793D01*
X452363Y307814D01*
X452263Y307832D01*
X452163Y307845D01*
X452062Y307855D01*
X451961Y307861D01*
X451860Y307863D01*
X452382Y312039D02*
X449250Y312039D01*
X452382Y312039D02*
X452472Y312037D01*
X452561Y312031D01*
X452651Y312022D01*
X452740Y312008D01*
X452828Y311991D01*
X452915Y311970D01*
X453002Y311945D01*
X453087Y311916D01*
X453171Y311884D01*
X453253Y311849D01*
X453334Y311809D01*
X453413Y311767D01*
X453490Y311721D01*
X453565Y311671D01*
X453638Y311619D01*
X453709Y311563D01*
X453777Y311505D01*
X453842Y311443D01*
X453905Y311379D01*
X453965Y311312D01*
X454022Y311243D01*
X454076Y311171D01*
X454127Y311097D01*
X454175Y311021D01*
X454219Y310943D01*
X454260Y310863D01*
X454298Y310781D01*
X454332Y310698D01*
X454362Y310613D01*
X454389Y310527D01*
X454412Y310441D01*
X454431Y310353D01*
X454446Y310264D01*
X454458Y310175D01*
X454466Y310086D01*
X454470Y309996D01*
X454470Y309906D01*
X454466Y309816D01*
X454458Y309727D01*
X454446Y309638D01*
X454431Y309549D01*
X454412Y309461D01*
X454389Y309375D01*
X454362Y309289D01*
X454332Y309204D01*
X454298Y309121D01*
X454260Y309039D01*
X454219Y308959D01*
X454175Y308881D01*
X454127Y308805D01*
X454076Y308731D01*
X454022Y308659D01*
X453965Y308590D01*
X453905Y308523D01*
X453842Y308459D01*
X453777Y308397D01*
X453709Y308339D01*
X453638Y308283D01*
X453565Y308231D01*
X453490Y308181D01*
X453413Y308135D01*
X453334Y308093D01*
X453253Y308053D01*
X453171Y308018D01*
X453087Y307986D01*
X453002Y307957D01*
X452915Y307932D01*
X452828Y307911D01*
X452740Y307894D01*
X452651Y307880D01*
X452561Y307871D01*
X452472Y307865D01*
X452382Y307863D01*
X452382Y307862D02*
X450294Y307862D01*
X404382Y192969D02*
X404380Y192880D01*
X404374Y192792D01*
X404365Y192704D01*
X404352Y192616D01*
X404335Y192529D01*
X404315Y192443D01*
X404290Y192358D01*
X404263Y192273D01*
X404231Y192190D01*
X404197Y192109D01*
X404158Y192029D01*
X404117Y191951D01*
X404072Y191874D01*
X404024Y191800D01*
X403973Y191727D01*
X403919Y191657D01*
X403861Y191590D01*
X403801Y191524D01*
X403739Y191462D01*
X403673Y191402D01*
X403606Y191344D01*
X403536Y191290D01*
X403463Y191239D01*
X403389Y191191D01*
X403312Y191146D01*
X403234Y191105D01*
X403154Y191066D01*
X403073Y191032D01*
X402990Y191000D01*
X402905Y190973D01*
X402820Y190948D01*
X402734Y190928D01*
X402647Y190911D01*
X402559Y190898D01*
X402471Y190889D01*
X402383Y190883D01*
X402294Y190881D01*
X402165Y190883D01*
X402036Y190889D01*
X401907Y190898D01*
X401779Y190911D01*
X401651Y190928D01*
X401524Y190949D01*
X401397Y190973D01*
X401271Y191001D01*
X401146Y191033D01*
X401022Y191068D01*
X400899Y191107D01*
X400777Y191150D01*
X400657Y191196D01*
X400538Y191246D01*
X400420Y191299D01*
X400304Y191355D01*
X400190Y191415D01*
X400077Y191478D01*
X399967Y191545D01*
X399858Y191614D01*
X399752Y191687D01*
X399647Y191763D01*
X399545Y191842D01*
X399446Y191924D01*
X399348Y192008D01*
X399253Y192096D01*
X399161Y192186D01*
X399422Y198191D02*
X399424Y198280D01*
X399430Y198368D01*
X399439Y198456D01*
X399452Y198544D01*
X399469Y198631D01*
X399489Y198717D01*
X399514Y198802D01*
X399541Y198887D01*
X399573Y198970D01*
X399607Y199051D01*
X399646Y199131D01*
X399687Y199209D01*
X399732Y199286D01*
X399780Y199360D01*
X399831Y199433D01*
X399885Y199503D01*
X399943Y199570D01*
X400003Y199636D01*
X400065Y199698D01*
X400131Y199758D01*
X400198Y199816D01*
X400268Y199870D01*
X400341Y199921D01*
X400415Y199969D01*
X400492Y200014D01*
X400570Y200055D01*
X400650Y200094D01*
X400731Y200128D01*
X400814Y200160D01*
X400899Y200187D01*
X400984Y200212D01*
X401070Y200232D01*
X401157Y200249D01*
X401245Y200262D01*
X401333Y200271D01*
X401421Y200277D01*
X401510Y200279D01*
X401630Y200277D01*
X401750Y200272D01*
X401870Y200262D01*
X401989Y200250D01*
X402108Y200233D01*
X402226Y200213D01*
X402344Y200189D01*
X402460Y200162D01*
X402576Y200131D01*
X402691Y200097D01*
X402805Y200059D01*
X402918Y200017D01*
X403029Y199972D01*
X403139Y199924D01*
X403247Y199873D01*
X403354Y199818D01*
X403459Y199760D01*
X403562Y199698D01*
X403663Y199634D01*
X403763Y199566D01*
X403860Y199496D01*
X400466Y196364D02*
X400388Y196412D01*
X400312Y196464D01*
X400239Y196518D01*
X400168Y196576D01*
X400099Y196637D01*
X400033Y196701D01*
X399970Y196768D01*
X399910Y196837D01*
X399853Y196909D01*
X399799Y196983D01*
X399749Y197060D01*
X399701Y197139D01*
X399658Y197219D01*
X399617Y197302D01*
X399581Y197386D01*
X399548Y197471D01*
X399519Y197558D01*
X399493Y197647D01*
X399471Y197736D01*
X399454Y197826D01*
X399440Y197916D01*
X399430Y198008D01*
X399424Y198099D01*
X399422Y198191D01*
X403338Y194796D02*
X403416Y194748D01*
X403492Y194696D01*
X403565Y194642D01*
X403636Y194584D01*
X403705Y194523D01*
X403771Y194459D01*
X403834Y194392D01*
X403894Y194323D01*
X403951Y194251D01*
X404005Y194177D01*
X404055Y194100D01*
X404103Y194021D01*
X404146Y193941D01*
X404187Y193858D01*
X404223Y193774D01*
X404256Y193689D01*
X404285Y193602D01*
X404311Y193513D01*
X404333Y193424D01*
X404350Y193334D01*
X404364Y193244D01*
X404374Y193152D01*
X404380Y193061D01*
X404382Y192969D01*
X403338Y194797D02*
X400466Y196363D01*
X409479Y190881D02*
X412090Y190881D01*
X409479Y190881D02*
X409402Y190883D01*
X409326Y190889D01*
X409249Y190898D01*
X409173Y190911D01*
X409098Y190928D01*
X409024Y190948D01*
X408951Y190973D01*
X408880Y191000D01*
X408809Y191031D01*
X408741Y191066D01*
X408674Y191104D01*
X408609Y191145D01*
X408546Y191189D01*
X408486Y191236D01*
X408427Y191287D01*
X408372Y191340D01*
X408319Y191395D01*
X408268Y191454D01*
X408221Y191514D01*
X408177Y191577D01*
X408136Y191642D01*
X408098Y191709D01*
X408063Y191777D01*
X408032Y191848D01*
X408005Y191919D01*
X407980Y191992D01*
X407960Y192066D01*
X407943Y192141D01*
X407930Y192217D01*
X407921Y192294D01*
X407915Y192370D01*
X407913Y192447D01*
X407913Y195058D01*
X407915Y195148D01*
X407921Y195237D01*
X407930Y195327D01*
X407944Y195416D01*
X407961Y195504D01*
X407982Y195591D01*
X408007Y195678D01*
X408036Y195763D01*
X408068Y195847D01*
X408103Y195929D01*
X408143Y196010D01*
X408185Y196089D01*
X408231Y196166D01*
X408281Y196241D01*
X408333Y196314D01*
X408389Y196385D01*
X408447Y196453D01*
X408509Y196518D01*
X408573Y196581D01*
X408640Y196641D01*
X408709Y196698D01*
X408781Y196752D01*
X408855Y196803D01*
X408931Y196851D01*
X409009Y196895D01*
X409089Y196936D01*
X409171Y196974D01*
X409254Y197008D01*
X409339Y197038D01*
X409425Y197065D01*
X409511Y197088D01*
X409599Y197107D01*
X409688Y197122D01*
X409777Y197134D01*
X409866Y197142D01*
X409956Y197146D01*
X410046Y197146D01*
X410136Y197142D01*
X410225Y197134D01*
X410314Y197122D01*
X410403Y197107D01*
X410491Y197088D01*
X410577Y197065D01*
X410663Y197038D01*
X410748Y197008D01*
X410831Y196974D01*
X410913Y196936D01*
X410993Y196895D01*
X411071Y196851D01*
X411147Y196803D01*
X411221Y196752D01*
X411293Y196698D01*
X411362Y196641D01*
X411429Y196581D01*
X411493Y196518D01*
X411555Y196453D01*
X411613Y196385D01*
X411669Y196314D01*
X411721Y196241D01*
X411771Y196166D01*
X411817Y196089D01*
X411859Y196010D01*
X411899Y195929D01*
X411934Y195847D01*
X411966Y195763D01*
X411995Y195678D01*
X412020Y195591D01*
X412041Y195504D01*
X412058Y195416D01*
X412072Y195327D01*
X412081Y195237D01*
X412087Y195148D01*
X412089Y195058D01*
X412090Y195058D02*
X412090Y194014D01*
X407913Y194014D01*
X416142Y197146D02*
X416142Y190881D01*
X416142Y197146D02*
X418753Y197146D01*
X418830Y197144D01*
X418906Y197138D01*
X418983Y197129D01*
X419059Y197116D01*
X419134Y197099D01*
X419208Y197079D01*
X419281Y197054D01*
X419352Y197027D01*
X419423Y196996D01*
X419491Y196961D01*
X419558Y196923D01*
X419623Y196882D01*
X419686Y196838D01*
X419746Y196791D01*
X419805Y196740D01*
X419860Y196687D01*
X419913Y196632D01*
X419964Y196573D01*
X420011Y196513D01*
X420055Y196450D01*
X420096Y196385D01*
X420134Y196318D01*
X420169Y196250D01*
X420200Y196179D01*
X420227Y196108D01*
X420252Y196035D01*
X420272Y195961D01*
X420289Y195886D01*
X420302Y195810D01*
X420311Y195734D01*
X420317Y195657D01*
X420319Y195580D01*
X420319Y190881D01*
X425155Y194536D02*
X427765Y193492D01*
X425155Y194536D02*
X425089Y194564D01*
X425024Y194597D01*
X424961Y194632D01*
X424900Y194671D01*
X424841Y194713D01*
X424785Y194758D01*
X424731Y194806D01*
X424680Y194857D01*
X424631Y194910D01*
X424586Y194967D01*
X424543Y195025D01*
X424504Y195085D01*
X424467Y195148D01*
X424435Y195213D01*
X424406Y195279D01*
X424380Y195346D01*
X424358Y195415D01*
X424340Y195485D01*
X424325Y195556D01*
X424314Y195627D01*
X424307Y195699D01*
X424304Y195771D01*
X424305Y195843D01*
X424310Y195916D01*
X424318Y195987D01*
X424330Y196059D01*
X424346Y196129D01*
X424366Y196198D01*
X424390Y196267D01*
X424417Y196334D01*
X424447Y196399D01*
X424481Y196463D01*
X424519Y196525D01*
X424559Y196585D01*
X424603Y196642D01*
X424650Y196697D01*
X424700Y196750D01*
X424752Y196799D01*
X424807Y196846D01*
X424864Y196890D01*
X424924Y196931D01*
X424986Y196968D01*
X425050Y197003D01*
X425115Y197033D01*
X425182Y197061D01*
X425250Y197084D01*
X425320Y197104D01*
X425390Y197120D01*
X425461Y197133D01*
X425533Y197141D01*
X425605Y197146D01*
X425677Y197147D01*
X425677Y197146D02*
X425828Y197142D01*
X425979Y197134D01*
X426130Y197123D01*
X426281Y197107D01*
X426431Y197087D01*
X426581Y197064D01*
X426730Y197037D01*
X426878Y197006D01*
X427026Y196971D01*
X427172Y196933D01*
X427318Y196890D01*
X427462Y196844D01*
X427605Y196795D01*
X427747Y196742D01*
X427887Y196685D01*
X428026Y196624D01*
X427766Y193492D02*
X427832Y193464D01*
X427897Y193431D01*
X427960Y193396D01*
X428021Y193357D01*
X428080Y193315D01*
X428136Y193270D01*
X428190Y193222D01*
X428241Y193171D01*
X428290Y193118D01*
X428335Y193061D01*
X428378Y193003D01*
X428417Y192943D01*
X428454Y192880D01*
X428486Y192815D01*
X428515Y192749D01*
X428541Y192682D01*
X428563Y192613D01*
X428581Y192543D01*
X428596Y192472D01*
X428607Y192401D01*
X428614Y192329D01*
X428617Y192257D01*
X428616Y192185D01*
X428611Y192112D01*
X428603Y192041D01*
X428591Y191969D01*
X428575Y191899D01*
X428555Y191830D01*
X428531Y191761D01*
X428504Y191694D01*
X428474Y191629D01*
X428440Y191565D01*
X428402Y191503D01*
X428362Y191443D01*
X428318Y191386D01*
X428271Y191331D01*
X428221Y191278D01*
X428169Y191229D01*
X428114Y191182D01*
X428057Y191138D01*
X427997Y191097D01*
X427935Y191060D01*
X427871Y191025D01*
X427806Y190995D01*
X427739Y190967D01*
X427671Y190944D01*
X427601Y190924D01*
X427531Y190908D01*
X427460Y190895D01*
X427388Y190887D01*
X427316Y190882D01*
X427244Y190881D01*
X427034Y190886D01*
X426825Y190897D01*
X426616Y190912D01*
X426408Y190932D01*
X426200Y190958D01*
X425993Y190988D01*
X425786Y191023D01*
X425581Y191063D01*
X425376Y191107D01*
X425173Y191157D01*
X424970Y191211D01*
X424769Y191271D01*
X424570Y191334D01*
X424372Y191403D01*
X432297Y192969D02*
X432297Y195058D01*
X432299Y195148D01*
X432305Y195237D01*
X432314Y195327D01*
X432328Y195416D01*
X432345Y195504D01*
X432366Y195591D01*
X432391Y195678D01*
X432420Y195763D01*
X432452Y195847D01*
X432487Y195929D01*
X432527Y196010D01*
X432569Y196089D01*
X432615Y196166D01*
X432665Y196241D01*
X432717Y196314D01*
X432773Y196385D01*
X432831Y196453D01*
X432893Y196518D01*
X432957Y196581D01*
X433024Y196641D01*
X433093Y196698D01*
X433165Y196752D01*
X433239Y196803D01*
X433315Y196851D01*
X433393Y196895D01*
X433473Y196936D01*
X433555Y196974D01*
X433638Y197008D01*
X433723Y197038D01*
X433809Y197065D01*
X433895Y197088D01*
X433983Y197107D01*
X434072Y197122D01*
X434161Y197134D01*
X434250Y197142D01*
X434340Y197146D01*
X434430Y197146D01*
X434520Y197142D01*
X434609Y197134D01*
X434698Y197122D01*
X434787Y197107D01*
X434875Y197088D01*
X434961Y197065D01*
X435047Y197038D01*
X435132Y197008D01*
X435215Y196974D01*
X435297Y196936D01*
X435377Y196895D01*
X435455Y196851D01*
X435531Y196803D01*
X435605Y196752D01*
X435677Y196698D01*
X435746Y196641D01*
X435813Y196581D01*
X435877Y196518D01*
X435939Y196453D01*
X435997Y196385D01*
X436053Y196314D01*
X436105Y196241D01*
X436155Y196166D01*
X436201Y196089D01*
X436243Y196010D01*
X436283Y195929D01*
X436318Y195847D01*
X436350Y195763D01*
X436379Y195678D01*
X436404Y195591D01*
X436425Y195504D01*
X436442Y195416D01*
X436456Y195327D01*
X436465Y195237D01*
X436471Y195148D01*
X436473Y195058D01*
X436473Y192969D01*
X436471Y192879D01*
X436465Y192790D01*
X436456Y192700D01*
X436442Y192611D01*
X436425Y192523D01*
X436404Y192436D01*
X436379Y192349D01*
X436350Y192264D01*
X436318Y192180D01*
X436283Y192098D01*
X436243Y192017D01*
X436201Y191938D01*
X436155Y191861D01*
X436105Y191786D01*
X436053Y191713D01*
X435997Y191642D01*
X435939Y191574D01*
X435877Y191509D01*
X435813Y191446D01*
X435746Y191386D01*
X435677Y191329D01*
X435605Y191275D01*
X435531Y191224D01*
X435455Y191176D01*
X435377Y191132D01*
X435297Y191091D01*
X435215Y191053D01*
X435132Y191019D01*
X435047Y190989D01*
X434961Y190962D01*
X434875Y190939D01*
X434787Y190920D01*
X434698Y190905D01*
X434609Y190893D01*
X434520Y190885D01*
X434430Y190881D01*
X434340Y190881D01*
X434250Y190885D01*
X434161Y190893D01*
X434072Y190905D01*
X433983Y190920D01*
X433895Y190939D01*
X433809Y190962D01*
X433723Y190989D01*
X433638Y191019D01*
X433555Y191053D01*
X433473Y191091D01*
X433393Y191132D01*
X433315Y191176D01*
X433239Y191224D01*
X433165Y191275D01*
X433093Y191329D01*
X433024Y191386D01*
X432957Y191446D01*
X432893Y191509D01*
X432831Y191574D01*
X432773Y191642D01*
X432717Y191713D01*
X432665Y191786D01*
X432615Y191861D01*
X432569Y191938D01*
X432527Y192017D01*
X432487Y192098D01*
X432452Y192180D01*
X432420Y192264D01*
X432391Y192349D01*
X432366Y192436D01*
X432345Y192523D01*
X432328Y192611D01*
X432314Y192700D01*
X432305Y192790D01*
X432299Y192879D01*
X432297Y192969D01*
X440578Y190881D02*
X440578Y197146D01*
X443710Y197146D01*
X443710Y196102D01*
X446710Y192969D02*
X448798Y200279D01*
X446710Y192969D02*
X451931Y192969D01*
X450364Y190881D02*
X450364Y195058D01*
X361061Y709041D02*
X361061Y718439D01*
X364194Y713218D01*
X367326Y718439D01*
X367326Y709041D01*
X371554Y711129D02*
X371554Y713218D01*
X371556Y713308D01*
X371562Y713397D01*
X371571Y713487D01*
X371585Y713576D01*
X371602Y713664D01*
X371623Y713751D01*
X371648Y713838D01*
X371677Y713923D01*
X371709Y714007D01*
X371744Y714089D01*
X371784Y714170D01*
X371826Y714249D01*
X371872Y714326D01*
X371922Y714401D01*
X371974Y714474D01*
X372030Y714545D01*
X372088Y714613D01*
X372150Y714678D01*
X372214Y714741D01*
X372281Y714801D01*
X372350Y714858D01*
X372422Y714912D01*
X372496Y714963D01*
X372572Y715011D01*
X372650Y715055D01*
X372730Y715096D01*
X372812Y715134D01*
X372895Y715168D01*
X372980Y715198D01*
X373066Y715225D01*
X373152Y715248D01*
X373240Y715267D01*
X373329Y715282D01*
X373418Y715294D01*
X373507Y715302D01*
X373597Y715306D01*
X373687Y715306D01*
X373777Y715302D01*
X373866Y715294D01*
X373955Y715282D01*
X374044Y715267D01*
X374132Y715248D01*
X374218Y715225D01*
X374304Y715198D01*
X374389Y715168D01*
X374472Y715134D01*
X374554Y715096D01*
X374634Y715055D01*
X374712Y715011D01*
X374788Y714963D01*
X374862Y714912D01*
X374934Y714858D01*
X375003Y714801D01*
X375070Y714741D01*
X375134Y714678D01*
X375196Y714613D01*
X375254Y714545D01*
X375310Y714474D01*
X375362Y714401D01*
X375412Y714326D01*
X375458Y714249D01*
X375500Y714170D01*
X375540Y714089D01*
X375575Y714007D01*
X375607Y713923D01*
X375636Y713838D01*
X375661Y713751D01*
X375682Y713664D01*
X375699Y713576D01*
X375713Y713487D01*
X375722Y713397D01*
X375728Y713308D01*
X375730Y713218D01*
X375731Y713218D02*
X375731Y711129D01*
X375730Y711129D02*
X375728Y711039D01*
X375722Y710950D01*
X375713Y710860D01*
X375699Y710771D01*
X375682Y710683D01*
X375661Y710596D01*
X375636Y710509D01*
X375607Y710424D01*
X375575Y710340D01*
X375540Y710258D01*
X375500Y710177D01*
X375458Y710098D01*
X375412Y710021D01*
X375362Y709946D01*
X375310Y709873D01*
X375254Y709802D01*
X375196Y709734D01*
X375134Y709669D01*
X375070Y709606D01*
X375003Y709546D01*
X374934Y709489D01*
X374862Y709435D01*
X374788Y709384D01*
X374712Y709336D01*
X374634Y709292D01*
X374554Y709251D01*
X374472Y709213D01*
X374389Y709179D01*
X374304Y709149D01*
X374218Y709122D01*
X374132Y709099D01*
X374044Y709080D01*
X373955Y709065D01*
X373866Y709053D01*
X373777Y709045D01*
X373687Y709041D01*
X373597Y709041D01*
X373507Y709045D01*
X373418Y709053D01*
X373329Y709065D01*
X373240Y709080D01*
X373152Y709099D01*
X373066Y709122D01*
X372980Y709149D01*
X372895Y709179D01*
X372812Y709213D01*
X372730Y709251D01*
X372650Y709292D01*
X372572Y709336D01*
X372496Y709384D01*
X372422Y709435D01*
X372350Y709489D01*
X372281Y709546D01*
X372214Y709606D01*
X372150Y709669D01*
X372088Y709734D01*
X372030Y709802D01*
X371974Y709873D01*
X371922Y709946D01*
X371872Y710021D01*
X371826Y710098D01*
X371784Y710177D01*
X371744Y710258D01*
X371709Y710340D01*
X371677Y710424D01*
X371648Y710509D01*
X371623Y710596D01*
X371602Y710683D01*
X371585Y710771D01*
X371571Y710860D01*
X371562Y710950D01*
X371556Y711039D01*
X371554Y711129D01*
X378710Y715306D02*
X381843Y715306D01*
X379754Y718439D02*
X379754Y710607D01*
X379755Y710607D02*
X379757Y710530D01*
X379763Y710454D01*
X379772Y710377D01*
X379785Y710301D01*
X379802Y710226D01*
X379822Y710152D01*
X379847Y710079D01*
X379874Y710008D01*
X379905Y709937D01*
X379940Y709869D01*
X379978Y709802D01*
X380019Y709737D01*
X380063Y709674D01*
X380110Y709614D01*
X380161Y709555D01*
X380214Y709500D01*
X380269Y709447D01*
X380328Y709396D01*
X380388Y709349D01*
X380451Y709305D01*
X380516Y709264D01*
X380583Y709226D01*
X380651Y709191D01*
X380722Y709160D01*
X380793Y709133D01*
X380866Y709108D01*
X380940Y709088D01*
X381015Y709071D01*
X381091Y709058D01*
X381168Y709049D01*
X381244Y709043D01*
X381321Y709041D01*
X381843Y709041D01*
X385270Y711129D02*
X385270Y713218D01*
X385272Y713308D01*
X385278Y713397D01*
X385287Y713487D01*
X385301Y713576D01*
X385318Y713664D01*
X385339Y713751D01*
X385364Y713838D01*
X385393Y713923D01*
X385425Y714007D01*
X385460Y714089D01*
X385500Y714170D01*
X385542Y714249D01*
X385588Y714326D01*
X385638Y714401D01*
X385690Y714474D01*
X385746Y714545D01*
X385804Y714613D01*
X385866Y714678D01*
X385930Y714741D01*
X385997Y714801D01*
X386066Y714858D01*
X386138Y714912D01*
X386212Y714963D01*
X386288Y715011D01*
X386366Y715055D01*
X386446Y715096D01*
X386528Y715134D01*
X386611Y715168D01*
X386696Y715198D01*
X386782Y715225D01*
X386868Y715248D01*
X386956Y715267D01*
X387045Y715282D01*
X387134Y715294D01*
X387223Y715302D01*
X387313Y715306D01*
X387403Y715306D01*
X387493Y715302D01*
X387582Y715294D01*
X387671Y715282D01*
X387760Y715267D01*
X387848Y715248D01*
X387934Y715225D01*
X388020Y715198D01*
X388105Y715168D01*
X388188Y715134D01*
X388270Y715096D01*
X388350Y715055D01*
X388428Y715011D01*
X388504Y714963D01*
X388578Y714912D01*
X388650Y714858D01*
X388719Y714801D01*
X388786Y714741D01*
X388850Y714678D01*
X388912Y714613D01*
X388970Y714545D01*
X389026Y714474D01*
X389078Y714401D01*
X389128Y714326D01*
X389174Y714249D01*
X389216Y714170D01*
X389256Y714089D01*
X389291Y714007D01*
X389323Y713923D01*
X389352Y713838D01*
X389377Y713751D01*
X389398Y713664D01*
X389415Y713576D01*
X389429Y713487D01*
X389438Y713397D01*
X389444Y713308D01*
X389446Y713218D01*
X389447Y713218D02*
X389447Y711129D01*
X389446Y711129D02*
X389444Y711039D01*
X389438Y710950D01*
X389429Y710860D01*
X389415Y710771D01*
X389398Y710683D01*
X389377Y710596D01*
X389352Y710509D01*
X389323Y710424D01*
X389291Y710340D01*
X389256Y710258D01*
X389216Y710177D01*
X389174Y710098D01*
X389128Y710021D01*
X389078Y709946D01*
X389026Y709873D01*
X388970Y709802D01*
X388912Y709734D01*
X388850Y709669D01*
X388786Y709606D01*
X388719Y709546D01*
X388650Y709489D01*
X388578Y709435D01*
X388504Y709384D01*
X388428Y709336D01*
X388350Y709292D01*
X388270Y709251D01*
X388188Y709213D01*
X388105Y709179D01*
X388020Y709149D01*
X387934Y709122D01*
X387848Y709099D01*
X387760Y709080D01*
X387671Y709065D01*
X387582Y709053D01*
X387493Y709045D01*
X387403Y709041D01*
X387313Y709041D01*
X387223Y709045D01*
X387134Y709053D01*
X387045Y709065D01*
X386956Y709080D01*
X386868Y709099D01*
X386782Y709122D01*
X386696Y709149D01*
X386611Y709179D01*
X386528Y709213D01*
X386446Y709251D01*
X386366Y709292D01*
X386288Y709336D01*
X386212Y709384D01*
X386138Y709435D01*
X386066Y709489D01*
X385997Y709546D01*
X385930Y709606D01*
X385866Y709669D01*
X385804Y709734D01*
X385746Y709802D01*
X385690Y709873D01*
X385638Y709946D01*
X385588Y710021D01*
X385542Y710098D01*
X385500Y710177D01*
X385460Y710258D01*
X385425Y710340D01*
X385393Y710424D01*
X385364Y710509D01*
X385339Y710596D01*
X385318Y710683D01*
X385301Y710771D01*
X385287Y710860D01*
X385278Y710950D01*
X385272Y711039D01*
X385270Y711129D01*
X393551Y709041D02*
X393551Y715306D01*
X396684Y715306D01*
X396684Y714262D01*
X402555Y718440D02*
X402650Y718438D01*
X402744Y718432D01*
X402838Y718423D01*
X402932Y718410D01*
X403025Y718393D01*
X403117Y718372D01*
X403209Y718347D01*
X403299Y718319D01*
X403388Y718287D01*
X403476Y718252D01*
X403562Y718213D01*
X403647Y718171D01*
X403730Y718125D01*
X403811Y718076D01*
X403890Y718024D01*
X403967Y717969D01*
X404041Y717910D01*
X404113Y717849D01*
X404183Y717785D01*
X404250Y717718D01*
X404314Y717648D01*
X404375Y717576D01*
X404434Y717502D01*
X404489Y717425D01*
X404541Y717346D01*
X404590Y717265D01*
X404636Y717182D01*
X404678Y717097D01*
X404717Y717011D01*
X404752Y716923D01*
X404784Y716834D01*
X404812Y716744D01*
X404837Y716652D01*
X404858Y716560D01*
X404875Y716467D01*
X404888Y716373D01*
X404897Y716279D01*
X404903Y716185D01*
X404905Y716090D01*
X402555Y718439D02*
X402447Y718437D01*
X402338Y718431D01*
X402230Y718421D01*
X402123Y718408D01*
X402016Y718390D01*
X401909Y718369D01*
X401804Y718344D01*
X401699Y718315D01*
X401596Y718283D01*
X401494Y718246D01*
X401393Y718206D01*
X401294Y718163D01*
X401196Y718116D01*
X401100Y718065D01*
X401006Y718011D01*
X400914Y717954D01*
X400824Y717893D01*
X400736Y717829D01*
X400651Y717763D01*
X400568Y717693D01*
X400488Y717620D01*
X400410Y717544D01*
X400335Y717466D01*
X400263Y717385D01*
X400194Y717301D01*
X400128Y717215D01*
X400065Y717127D01*
X400006Y717036D01*
X399949Y716944D01*
X399896Y716849D01*
X399847Y716753D01*
X399801Y716654D01*
X399758Y716555D01*
X399719Y716453D01*
X399684Y716351D01*
X404121Y714262D02*
X404190Y714331D01*
X404256Y714402D01*
X404320Y714475D01*
X404381Y714551D01*
X404439Y714630D01*
X404493Y714710D01*
X404545Y714793D01*
X404593Y714877D01*
X404639Y714963D01*
X404680Y715051D01*
X404719Y715141D01*
X404754Y715232D01*
X404785Y715324D01*
X404813Y715417D01*
X404837Y715511D01*
X404857Y715606D01*
X404874Y715702D01*
X404887Y715799D01*
X404896Y715896D01*
X404902Y715993D01*
X404904Y716090D01*
X404121Y714262D02*
X399683Y709041D01*
X404904Y709041D01*
X726821Y624459D02*
X726821Y615061D01*
X729954Y619238D02*
X726821Y624459D01*
X729954Y619238D02*
X733086Y624459D01*
X733086Y615061D01*
X737314Y617149D02*
X737314Y619238D01*
X737316Y619328D01*
X737322Y619417D01*
X737331Y619507D01*
X737345Y619596D01*
X737362Y619684D01*
X737383Y619771D01*
X737408Y619858D01*
X737437Y619943D01*
X737469Y620027D01*
X737504Y620109D01*
X737544Y620190D01*
X737586Y620269D01*
X737632Y620346D01*
X737682Y620421D01*
X737734Y620494D01*
X737790Y620565D01*
X737848Y620633D01*
X737910Y620698D01*
X737974Y620761D01*
X738041Y620821D01*
X738110Y620878D01*
X738182Y620932D01*
X738256Y620983D01*
X738332Y621031D01*
X738410Y621075D01*
X738490Y621116D01*
X738572Y621154D01*
X738655Y621188D01*
X738740Y621218D01*
X738826Y621245D01*
X738912Y621268D01*
X739000Y621287D01*
X739089Y621302D01*
X739178Y621314D01*
X739267Y621322D01*
X739357Y621326D01*
X739447Y621326D01*
X739537Y621322D01*
X739626Y621314D01*
X739715Y621302D01*
X739804Y621287D01*
X739892Y621268D01*
X739978Y621245D01*
X740064Y621218D01*
X740149Y621188D01*
X740232Y621154D01*
X740314Y621116D01*
X740394Y621075D01*
X740472Y621031D01*
X740548Y620983D01*
X740622Y620932D01*
X740694Y620878D01*
X740763Y620821D01*
X740830Y620761D01*
X740894Y620698D01*
X740956Y620633D01*
X741014Y620565D01*
X741070Y620494D01*
X741122Y620421D01*
X741172Y620346D01*
X741218Y620269D01*
X741260Y620190D01*
X741300Y620109D01*
X741335Y620027D01*
X741367Y619943D01*
X741396Y619858D01*
X741421Y619771D01*
X741442Y619684D01*
X741459Y619596D01*
X741473Y619507D01*
X741482Y619417D01*
X741488Y619328D01*
X741490Y619238D01*
X741491Y619238D02*
X741491Y617149D01*
X741490Y617149D02*
X741488Y617059D01*
X741482Y616970D01*
X741473Y616880D01*
X741459Y616791D01*
X741442Y616703D01*
X741421Y616616D01*
X741396Y616529D01*
X741367Y616444D01*
X741335Y616360D01*
X741300Y616278D01*
X741260Y616197D01*
X741218Y616118D01*
X741172Y616041D01*
X741122Y615966D01*
X741070Y615893D01*
X741014Y615822D01*
X740956Y615754D01*
X740894Y615689D01*
X740830Y615626D01*
X740763Y615566D01*
X740694Y615509D01*
X740622Y615455D01*
X740548Y615404D01*
X740472Y615356D01*
X740394Y615312D01*
X740314Y615271D01*
X740232Y615233D01*
X740149Y615199D01*
X740064Y615169D01*
X739978Y615142D01*
X739892Y615119D01*
X739804Y615100D01*
X739715Y615085D01*
X739626Y615073D01*
X739537Y615065D01*
X739447Y615061D01*
X739357Y615061D01*
X739267Y615065D01*
X739178Y615073D01*
X739089Y615085D01*
X739000Y615100D01*
X738912Y615119D01*
X738826Y615142D01*
X738740Y615169D01*
X738655Y615199D01*
X738572Y615233D01*
X738490Y615271D01*
X738410Y615312D01*
X738332Y615356D01*
X738256Y615404D01*
X738182Y615455D01*
X738110Y615509D01*
X738041Y615566D01*
X737974Y615626D01*
X737910Y615689D01*
X737848Y615754D01*
X737790Y615822D01*
X737734Y615893D01*
X737682Y615966D01*
X737632Y616041D01*
X737586Y616118D01*
X737544Y616197D01*
X737504Y616278D01*
X737469Y616360D01*
X737437Y616444D01*
X737408Y616529D01*
X737383Y616616D01*
X737362Y616703D01*
X737345Y616791D01*
X737331Y616880D01*
X737322Y616970D01*
X737316Y617059D01*
X737314Y617149D01*
X744470Y621326D02*
X747603Y621326D01*
X745514Y624459D02*
X745514Y616627D01*
X745515Y616627D02*
X745517Y616550D01*
X745523Y616474D01*
X745532Y616397D01*
X745545Y616321D01*
X745562Y616246D01*
X745582Y616172D01*
X745607Y616099D01*
X745634Y616028D01*
X745665Y615957D01*
X745700Y615889D01*
X745738Y615822D01*
X745779Y615757D01*
X745823Y615694D01*
X745870Y615634D01*
X745921Y615575D01*
X745974Y615520D01*
X746029Y615467D01*
X746088Y615416D01*
X746148Y615369D01*
X746211Y615325D01*
X746276Y615284D01*
X746343Y615246D01*
X746411Y615211D01*
X746482Y615180D01*
X746553Y615153D01*
X746626Y615128D01*
X746700Y615108D01*
X746775Y615091D01*
X746851Y615078D01*
X746928Y615069D01*
X747004Y615063D01*
X747081Y615061D01*
X747603Y615061D01*
X751030Y617149D02*
X751030Y619238D01*
X751032Y619328D01*
X751038Y619417D01*
X751047Y619507D01*
X751061Y619596D01*
X751078Y619684D01*
X751099Y619771D01*
X751124Y619858D01*
X751153Y619943D01*
X751185Y620027D01*
X751220Y620109D01*
X751260Y620190D01*
X751302Y620269D01*
X751348Y620346D01*
X751398Y620421D01*
X751450Y620494D01*
X751506Y620565D01*
X751564Y620633D01*
X751626Y620698D01*
X751690Y620761D01*
X751757Y620821D01*
X751826Y620878D01*
X751898Y620932D01*
X751972Y620983D01*
X752048Y621031D01*
X752126Y621075D01*
X752206Y621116D01*
X752288Y621154D01*
X752371Y621188D01*
X752456Y621218D01*
X752542Y621245D01*
X752628Y621268D01*
X752716Y621287D01*
X752805Y621302D01*
X752894Y621314D01*
X752983Y621322D01*
X753073Y621326D01*
X753163Y621326D01*
X753253Y621322D01*
X753342Y621314D01*
X753431Y621302D01*
X753520Y621287D01*
X753608Y621268D01*
X753694Y621245D01*
X753780Y621218D01*
X753865Y621188D01*
X753948Y621154D01*
X754030Y621116D01*
X754110Y621075D01*
X754188Y621031D01*
X754264Y620983D01*
X754338Y620932D01*
X754410Y620878D01*
X754479Y620821D01*
X754546Y620761D01*
X754610Y620698D01*
X754672Y620633D01*
X754730Y620565D01*
X754786Y620494D01*
X754838Y620421D01*
X754888Y620346D01*
X754934Y620269D01*
X754976Y620190D01*
X755016Y620109D01*
X755051Y620027D01*
X755083Y619943D01*
X755112Y619858D01*
X755137Y619771D01*
X755158Y619684D01*
X755175Y619596D01*
X755189Y619507D01*
X755198Y619417D01*
X755204Y619328D01*
X755206Y619238D01*
X755207Y619238D02*
X755207Y617149D01*
X755206Y617149D02*
X755204Y617059D01*
X755198Y616970D01*
X755189Y616880D01*
X755175Y616791D01*
X755158Y616703D01*
X755137Y616616D01*
X755112Y616529D01*
X755083Y616444D01*
X755051Y616360D01*
X755016Y616278D01*
X754976Y616197D01*
X754934Y616118D01*
X754888Y616041D01*
X754838Y615966D01*
X754786Y615893D01*
X754730Y615822D01*
X754672Y615754D01*
X754610Y615689D01*
X754546Y615626D01*
X754479Y615566D01*
X754410Y615509D01*
X754338Y615455D01*
X754264Y615404D01*
X754188Y615356D01*
X754110Y615312D01*
X754030Y615271D01*
X753948Y615233D01*
X753865Y615199D01*
X753780Y615169D01*
X753694Y615142D01*
X753608Y615119D01*
X753520Y615100D01*
X753431Y615085D01*
X753342Y615073D01*
X753253Y615065D01*
X753163Y615061D01*
X753073Y615061D01*
X752983Y615065D01*
X752894Y615073D01*
X752805Y615085D01*
X752716Y615100D01*
X752628Y615119D01*
X752542Y615142D01*
X752456Y615169D01*
X752371Y615199D01*
X752288Y615233D01*
X752206Y615271D01*
X752126Y615312D01*
X752048Y615356D01*
X751972Y615404D01*
X751898Y615455D01*
X751826Y615509D01*
X751757Y615566D01*
X751690Y615626D01*
X751626Y615689D01*
X751564Y615754D01*
X751506Y615822D01*
X751450Y615893D01*
X751398Y615966D01*
X751348Y616041D01*
X751302Y616118D01*
X751260Y616197D01*
X751220Y616278D01*
X751185Y616360D01*
X751153Y616444D01*
X751124Y616529D01*
X751099Y616616D01*
X751078Y616703D01*
X751061Y616791D01*
X751047Y616880D01*
X751038Y616970D01*
X751032Y617059D01*
X751030Y617149D01*
X759311Y615061D02*
X759311Y621326D01*
X762444Y621326D01*
X762444Y620282D01*
X765443Y622371D02*
X768053Y624459D01*
X768053Y615061D01*
X765443Y615061D02*
X770664Y615061D01*
X705005Y522859D02*
X705005Y513461D01*
X703961Y513461D02*
X706049Y513461D01*
X706049Y522859D02*
X703961Y522859D01*
X711773Y513461D02*
X713861Y513461D01*
X711773Y513461D02*
X711684Y513463D01*
X711596Y513469D01*
X711508Y513478D01*
X711420Y513491D01*
X711333Y513508D01*
X711247Y513528D01*
X711162Y513553D01*
X711077Y513580D01*
X710994Y513612D01*
X710913Y513646D01*
X710833Y513685D01*
X710755Y513726D01*
X710678Y513771D01*
X710604Y513819D01*
X710531Y513870D01*
X710461Y513924D01*
X710394Y513982D01*
X710328Y514042D01*
X710266Y514104D01*
X710206Y514170D01*
X710148Y514237D01*
X710094Y514307D01*
X710043Y514380D01*
X709995Y514454D01*
X709950Y514531D01*
X709909Y514609D01*
X709870Y514689D01*
X709836Y514770D01*
X709804Y514853D01*
X709777Y514938D01*
X709752Y515023D01*
X709732Y515109D01*
X709715Y515196D01*
X709702Y515284D01*
X709693Y515372D01*
X709687Y515460D01*
X709685Y515549D01*
X709684Y515549D02*
X709684Y520771D01*
X709685Y520771D02*
X709687Y520862D01*
X709693Y520953D01*
X709703Y521044D01*
X709717Y521134D01*
X709734Y521223D01*
X709756Y521311D01*
X709782Y521399D01*
X709811Y521485D01*
X709844Y521570D01*
X709881Y521653D01*
X709921Y521735D01*
X709965Y521815D01*
X710012Y521893D01*
X710063Y521969D01*
X710116Y522042D01*
X710173Y522113D01*
X710234Y522182D01*
X710297Y522247D01*
X710362Y522310D01*
X710431Y522370D01*
X710502Y522428D01*
X710575Y522481D01*
X710651Y522532D01*
X710729Y522579D01*
X710809Y522623D01*
X710891Y522663D01*
X710974Y522700D01*
X711059Y522733D01*
X711145Y522762D01*
X711233Y522788D01*
X711321Y522810D01*
X711410Y522827D01*
X711500Y522841D01*
X711591Y522851D01*
X711682Y522857D01*
X711773Y522859D01*
X713861Y522859D01*
X717330Y513461D02*
X719940Y513461D01*
X720041Y513463D01*
X720142Y513469D01*
X720243Y513479D01*
X720343Y513492D01*
X720443Y513510D01*
X720542Y513531D01*
X720640Y513557D01*
X720737Y513586D01*
X720833Y513618D01*
X720927Y513655D01*
X721020Y513695D01*
X721112Y513739D01*
X721201Y513786D01*
X721289Y513837D01*
X721375Y513891D01*
X721458Y513948D01*
X721540Y514008D01*
X721618Y514072D01*
X721695Y514138D01*
X721768Y514208D01*
X721839Y514280D01*
X721907Y514355D01*
X721972Y514433D01*
X722034Y514513D01*
X722093Y514595D01*
X722149Y514680D01*
X722201Y514767D01*
X722250Y514855D01*
X722296Y514946D01*
X722337Y515038D01*
X722376Y515132D01*
X722410Y515227D01*
X722441Y515323D01*
X722468Y515421D01*
X722492Y515519D01*
X722511Y515619D01*
X722527Y515719D01*
X722539Y515819D01*
X722547Y515920D01*
X722551Y516021D01*
X722551Y516123D01*
X722547Y516224D01*
X722539Y516325D01*
X722527Y516425D01*
X722511Y516525D01*
X722492Y516625D01*
X722468Y516723D01*
X722441Y516821D01*
X722410Y516917D01*
X722376Y517012D01*
X722337Y517106D01*
X722296Y517198D01*
X722250Y517289D01*
X722201Y517377D01*
X722149Y517464D01*
X722093Y517549D01*
X722034Y517631D01*
X721972Y517711D01*
X721907Y517789D01*
X721839Y517864D01*
X721768Y517936D01*
X721695Y518006D01*
X721618Y518072D01*
X721540Y518136D01*
X721458Y518196D01*
X721375Y518253D01*
X721289Y518307D01*
X721201Y518358D01*
X721112Y518405D01*
X721020Y518449D01*
X720927Y518489D01*
X720833Y518526D01*
X720737Y518558D01*
X720640Y518587D01*
X720542Y518613D01*
X720443Y518634D01*
X720343Y518652D01*
X720243Y518665D01*
X720142Y518675D01*
X720041Y518681D01*
X719940Y518683D01*
X720462Y522859D02*
X717330Y522859D01*
X720462Y522859D02*
X720552Y522857D01*
X720641Y522851D01*
X720731Y522842D01*
X720820Y522828D01*
X720908Y522811D01*
X720995Y522790D01*
X721082Y522765D01*
X721167Y522736D01*
X721251Y522704D01*
X721333Y522669D01*
X721414Y522629D01*
X721493Y522587D01*
X721570Y522541D01*
X721645Y522491D01*
X721718Y522439D01*
X721789Y522383D01*
X721857Y522325D01*
X721922Y522263D01*
X721985Y522199D01*
X722045Y522132D01*
X722102Y522063D01*
X722156Y521991D01*
X722207Y521917D01*
X722255Y521841D01*
X722299Y521763D01*
X722340Y521683D01*
X722378Y521601D01*
X722412Y521518D01*
X722442Y521433D01*
X722469Y521347D01*
X722492Y521261D01*
X722511Y521173D01*
X722526Y521084D01*
X722538Y520995D01*
X722546Y520906D01*
X722550Y520816D01*
X722550Y520726D01*
X722546Y520636D01*
X722538Y520547D01*
X722526Y520458D01*
X722511Y520369D01*
X722492Y520281D01*
X722469Y520195D01*
X722442Y520109D01*
X722412Y520024D01*
X722378Y519941D01*
X722340Y519859D01*
X722299Y519779D01*
X722255Y519701D01*
X722207Y519625D01*
X722156Y519551D01*
X722102Y519479D01*
X722045Y519410D01*
X721985Y519343D01*
X721922Y519279D01*
X721857Y519217D01*
X721789Y519159D01*
X721718Y519103D01*
X721645Y519051D01*
X721570Y519001D01*
X721493Y518955D01*
X721414Y518913D01*
X721333Y518873D01*
X721251Y518838D01*
X721167Y518806D01*
X721082Y518777D01*
X720995Y518752D01*
X720908Y518731D01*
X720820Y518714D01*
X720731Y518700D01*
X720641Y518691D01*
X720552Y518685D01*
X720462Y518683D01*
X720462Y518682D02*
X718374Y518682D01*
X759841Y314579D02*
X759841Y313535D01*
X759841Y314579D02*
X765062Y314579D01*
X762452Y305181D01*
X771596Y305181D02*
X768463Y314579D01*
X774728Y314579D02*
X771596Y305181D01*
X778129Y307269D02*
X780217Y314579D01*
X778129Y307269D02*
X783350Y307269D01*
X781784Y309358D02*
X781784Y305181D01*
X691261Y136779D02*
X691261Y127381D01*
X691261Y136779D02*
X693872Y136779D01*
X693972Y136777D01*
X694072Y136771D01*
X694171Y136762D01*
X694271Y136748D01*
X694369Y136731D01*
X694467Y136710D01*
X694564Y136686D01*
X694660Y136657D01*
X694755Y136625D01*
X694848Y136590D01*
X694940Y136551D01*
X695031Y136508D01*
X695119Y136462D01*
X695206Y136412D01*
X695291Y136360D01*
X695374Y136304D01*
X695455Y136245D01*
X695533Y136182D01*
X695609Y136117D01*
X695683Y136049D01*
X695753Y135979D01*
X695821Y135905D01*
X695886Y135829D01*
X695949Y135751D01*
X696008Y135670D01*
X696064Y135587D01*
X696116Y135502D01*
X696166Y135415D01*
X696212Y135327D01*
X696255Y135236D01*
X696294Y135144D01*
X696329Y135051D01*
X696361Y134956D01*
X696390Y134860D01*
X696414Y134763D01*
X696435Y134665D01*
X696452Y134567D01*
X696466Y134467D01*
X696475Y134368D01*
X696481Y134268D01*
X696483Y134168D01*
X696482Y134168D02*
X696482Y129992D01*
X696483Y129992D02*
X696481Y129892D01*
X696475Y129792D01*
X696466Y129693D01*
X696452Y129593D01*
X696435Y129495D01*
X696414Y129397D01*
X696390Y129300D01*
X696361Y129204D01*
X696329Y129109D01*
X696294Y129016D01*
X696255Y128924D01*
X696212Y128833D01*
X696166Y128745D01*
X696116Y128658D01*
X696064Y128573D01*
X696008Y128490D01*
X695949Y128409D01*
X695886Y128331D01*
X695821Y128255D01*
X695753Y128181D01*
X695683Y128111D01*
X695609Y128043D01*
X695533Y127978D01*
X695455Y127915D01*
X695374Y127856D01*
X695291Y127800D01*
X695206Y127748D01*
X695119Y127698D01*
X695031Y127652D01*
X694940Y127609D01*
X694848Y127570D01*
X694755Y127535D01*
X694660Y127503D01*
X694564Y127474D01*
X694467Y127450D01*
X694369Y127429D01*
X694271Y127412D01*
X694171Y127398D01*
X694072Y127389D01*
X693972Y127383D01*
X693872Y127381D01*
X691261Y127381D01*
X701032Y127381D02*
X705209Y127381D01*
X701032Y127381D02*
X701032Y136779D01*
X705209Y136779D01*
X704165Y132602D02*
X701032Y132602D01*
X709071Y132602D02*
X711681Y132602D01*
X711681Y132603D02*
X711782Y132601D01*
X711883Y132595D01*
X711984Y132585D01*
X712084Y132572D01*
X712184Y132554D01*
X712283Y132533D01*
X712381Y132507D01*
X712478Y132478D01*
X712574Y132446D01*
X712668Y132409D01*
X712761Y132369D01*
X712853Y132325D01*
X712942Y132278D01*
X713030Y132227D01*
X713116Y132173D01*
X713199Y132116D01*
X713281Y132056D01*
X713359Y131992D01*
X713436Y131926D01*
X713509Y131856D01*
X713580Y131784D01*
X713648Y131709D01*
X713713Y131631D01*
X713775Y131551D01*
X713834Y131469D01*
X713890Y131384D01*
X713942Y131297D01*
X713991Y131209D01*
X714037Y131118D01*
X714078Y131026D01*
X714117Y130932D01*
X714151Y130837D01*
X714182Y130741D01*
X714209Y130643D01*
X714233Y130545D01*
X714252Y130445D01*
X714268Y130345D01*
X714280Y130245D01*
X714288Y130144D01*
X714292Y130043D01*
X714292Y129941D01*
X714288Y129840D01*
X714280Y129739D01*
X714268Y129639D01*
X714252Y129539D01*
X714233Y129439D01*
X714209Y129341D01*
X714182Y129243D01*
X714151Y129147D01*
X714117Y129052D01*
X714078Y128958D01*
X714037Y128866D01*
X713991Y128775D01*
X713942Y128686D01*
X713890Y128600D01*
X713834Y128515D01*
X713775Y128433D01*
X713713Y128353D01*
X713648Y128275D01*
X713580Y128200D01*
X713509Y128128D01*
X713436Y128058D01*
X713359Y127992D01*
X713281Y127928D01*
X713199Y127868D01*
X713116Y127811D01*
X713030Y127757D01*
X712942Y127706D01*
X712853Y127659D01*
X712761Y127615D01*
X712668Y127575D01*
X712574Y127538D01*
X712478Y127506D01*
X712381Y127477D01*
X712283Y127451D01*
X712184Y127430D01*
X712084Y127412D01*
X711984Y127399D01*
X711883Y127389D01*
X711782Y127383D01*
X711681Y127381D01*
X709071Y127381D01*
X709071Y136779D01*
X711681Y136779D01*
X711771Y136777D01*
X711860Y136771D01*
X711950Y136762D01*
X712039Y136748D01*
X712127Y136731D01*
X712214Y136710D01*
X712301Y136685D01*
X712386Y136656D01*
X712470Y136624D01*
X712552Y136589D01*
X712633Y136549D01*
X712712Y136507D01*
X712789Y136461D01*
X712864Y136411D01*
X712937Y136359D01*
X713008Y136303D01*
X713076Y136245D01*
X713141Y136183D01*
X713204Y136119D01*
X713264Y136052D01*
X713321Y135983D01*
X713375Y135911D01*
X713426Y135837D01*
X713474Y135761D01*
X713518Y135683D01*
X713559Y135603D01*
X713597Y135521D01*
X713631Y135438D01*
X713661Y135353D01*
X713688Y135267D01*
X713711Y135181D01*
X713730Y135093D01*
X713745Y135004D01*
X713757Y134915D01*
X713765Y134826D01*
X713769Y134736D01*
X713769Y134646D01*
X713765Y134556D01*
X713757Y134467D01*
X713745Y134378D01*
X713730Y134289D01*
X713711Y134201D01*
X713688Y134115D01*
X713661Y134029D01*
X713631Y133944D01*
X713597Y133861D01*
X713559Y133779D01*
X713518Y133699D01*
X713474Y133621D01*
X713426Y133545D01*
X713375Y133471D01*
X713321Y133399D01*
X713264Y133330D01*
X713204Y133263D01*
X713141Y133199D01*
X713076Y133137D01*
X713008Y133079D01*
X712937Y133023D01*
X712864Y132971D01*
X712789Y132921D01*
X712712Y132875D01*
X712633Y132833D01*
X712552Y132793D01*
X712470Y132758D01*
X712386Y132726D01*
X712301Y132697D01*
X712214Y132672D01*
X712127Y132651D01*
X712039Y132634D01*
X711950Y132620D01*
X711860Y132611D01*
X711771Y132605D01*
X711681Y132603D01*
X718083Y129992D02*
X718083Y136779D01*
X718083Y129992D02*
X718085Y129891D01*
X718091Y129790D01*
X718101Y129689D01*
X718114Y129589D01*
X718132Y129489D01*
X718153Y129390D01*
X718179Y129292D01*
X718208Y129195D01*
X718240Y129099D01*
X718277Y129005D01*
X718317Y128912D01*
X718361Y128820D01*
X718408Y128731D01*
X718459Y128643D01*
X718513Y128557D01*
X718570Y128474D01*
X718630Y128392D01*
X718694Y128314D01*
X718760Y128237D01*
X718830Y128164D01*
X718902Y128093D01*
X718977Y128025D01*
X719055Y127960D01*
X719135Y127898D01*
X719217Y127839D01*
X719302Y127783D01*
X719389Y127731D01*
X719477Y127682D01*
X719568Y127636D01*
X719660Y127595D01*
X719754Y127556D01*
X719849Y127522D01*
X719945Y127491D01*
X720043Y127464D01*
X720141Y127440D01*
X720241Y127421D01*
X720341Y127405D01*
X720441Y127393D01*
X720542Y127385D01*
X720643Y127381D01*
X720745Y127381D01*
X720846Y127385D01*
X720947Y127393D01*
X721047Y127405D01*
X721147Y127421D01*
X721247Y127440D01*
X721345Y127464D01*
X721443Y127491D01*
X721539Y127522D01*
X721634Y127556D01*
X721728Y127595D01*
X721820Y127636D01*
X721911Y127682D01*
X722000Y127731D01*
X722086Y127783D01*
X722171Y127839D01*
X722253Y127898D01*
X722333Y127960D01*
X722411Y128025D01*
X722486Y128093D01*
X722558Y128164D01*
X722628Y128237D01*
X722694Y128314D01*
X722758Y128392D01*
X722818Y128474D01*
X722875Y128557D01*
X722929Y128643D01*
X722980Y128731D01*
X723027Y128820D01*
X723071Y128912D01*
X723111Y129005D01*
X723148Y129099D01*
X723180Y129195D01*
X723209Y129292D01*
X723235Y129390D01*
X723256Y129489D01*
X723274Y129589D01*
X723287Y129689D01*
X723297Y129790D01*
X723303Y129891D01*
X723305Y129992D01*
X723304Y129992D02*
X723304Y136779D01*
X731492Y132602D02*
X733058Y132602D01*
X733058Y127381D01*
X729925Y127381D01*
X729836Y127383D01*
X729748Y127389D01*
X729660Y127398D01*
X729572Y127411D01*
X729485Y127428D01*
X729399Y127448D01*
X729314Y127473D01*
X729229Y127500D01*
X729146Y127532D01*
X729065Y127566D01*
X728985Y127605D01*
X728907Y127646D01*
X728830Y127691D01*
X728756Y127739D01*
X728683Y127790D01*
X728613Y127844D01*
X728546Y127902D01*
X728480Y127962D01*
X728418Y128024D01*
X728358Y128090D01*
X728300Y128157D01*
X728246Y128227D01*
X728195Y128300D01*
X728147Y128374D01*
X728102Y128451D01*
X728061Y128529D01*
X728022Y128609D01*
X727988Y128690D01*
X727956Y128773D01*
X727929Y128858D01*
X727904Y128943D01*
X727884Y129029D01*
X727867Y129116D01*
X727854Y129204D01*
X727845Y129292D01*
X727839Y129380D01*
X727837Y129469D01*
X727837Y134691D01*
X727839Y134782D01*
X727845Y134873D01*
X727855Y134964D01*
X727869Y135054D01*
X727886Y135143D01*
X727908Y135231D01*
X727934Y135319D01*
X727963Y135405D01*
X727996Y135490D01*
X728033Y135573D01*
X728073Y135655D01*
X728117Y135735D01*
X728164Y135813D01*
X728215Y135889D01*
X728268Y135962D01*
X728325Y136033D01*
X728386Y136102D01*
X728449Y136167D01*
X728514Y136230D01*
X728583Y136290D01*
X728654Y136348D01*
X728727Y136401D01*
X728803Y136452D01*
X728881Y136499D01*
X728961Y136543D01*
X729043Y136583D01*
X729126Y136620D01*
X729211Y136653D01*
X729297Y136682D01*
X729385Y136708D01*
X729473Y136730D01*
X729562Y136747D01*
X729652Y136761D01*
X729743Y136771D01*
X729834Y136777D01*
X729925Y136779D01*
X733058Y136779D01*
X741245Y132602D02*
X742812Y132602D01*
X742812Y127381D01*
X739679Y127381D01*
X739590Y127383D01*
X739502Y127389D01*
X739414Y127398D01*
X739326Y127411D01*
X739239Y127428D01*
X739153Y127448D01*
X739068Y127473D01*
X738983Y127500D01*
X738900Y127532D01*
X738819Y127566D01*
X738739Y127605D01*
X738661Y127646D01*
X738584Y127691D01*
X738510Y127739D01*
X738437Y127790D01*
X738367Y127844D01*
X738300Y127902D01*
X738234Y127962D01*
X738172Y128024D01*
X738112Y128090D01*
X738054Y128157D01*
X738000Y128227D01*
X737949Y128300D01*
X737901Y128374D01*
X737856Y128451D01*
X737815Y128529D01*
X737776Y128609D01*
X737742Y128690D01*
X737710Y128773D01*
X737683Y128858D01*
X737658Y128943D01*
X737638Y129029D01*
X737621Y129116D01*
X737608Y129204D01*
X737599Y129292D01*
X737593Y129380D01*
X737591Y129469D01*
X737591Y134691D01*
X737593Y134782D01*
X737599Y134873D01*
X737609Y134964D01*
X737623Y135054D01*
X737640Y135143D01*
X737662Y135231D01*
X737688Y135319D01*
X737717Y135405D01*
X737750Y135490D01*
X737787Y135573D01*
X737827Y135655D01*
X737871Y135735D01*
X737918Y135813D01*
X737969Y135889D01*
X738022Y135962D01*
X738079Y136033D01*
X738140Y136102D01*
X738203Y136167D01*
X738268Y136230D01*
X738337Y136290D01*
X738408Y136348D01*
X738481Y136401D01*
X738557Y136452D01*
X738635Y136499D01*
X738715Y136543D01*
X738797Y136583D01*
X738880Y136620D01*
X738965Y136653D01*
X739051Y136682D01*
X739139Y136708D01*
X739227Y136730D01*
X739316Y136747D01*
X739406Y136761D01*
X739497Y136771D01*
X739588Y136777D01*
X739679Y136779D01*
X742812Y136779D01*
X747362Y127381D02*
X751538Y127381D01*
X747362Y127381D02*
X747362Y136779D01*
X751538Y136779D01*
X750494Y132602D02*
X747362Y132602D01*
X755326Y136779D02*
X755326Y127381D01*
X755326Y136779D02*
X757936Y136779D01*
X758037Y136777D01*
X758138Y136771D01*
X758239Y136761D01*
X758339Y136748D01*
X758439Y136730D01*
X758538Y136709D01*
X758636Y136683D01*
X758733Y136654D01*
X758829Y136622D01*
X758923Y136585D01*
X759016Y136545D01*
X759108Y136501D01*
X759197Y136454D01*
X759285Y136403D01*
X759371Y136349D01*
X759454Y136292D01*
X759536Y136232D01*
X759614Y136168D01*
X759691Y136102D01*
X759764Y136032D01*
X759835Y135960D01*
X759903Y135885D01*
X759968Y135807D01*
X760030Y135727D01*
X760089Y135645D01*
X760145Y135560D01*
X760197Y135473D01*
X760246Y135385D01*
X760292Y135294D01*
X760333Y135202D01*
X760372Y135108D01*
X760406Y135013D01*
X760437Y134917D01*
X760464Y134819D01*
X760488Y134721D01*
X760507Y134621D01*
X760523Y134521D01*
X760535Y134421D01*
X760543Y134320D01*
X760547Y134219D01*
X760547Y134117D01*
X760543Y134016D01*
X760535Y133915D01*
X760523Y133815D01*
X760507Y133715D01*
X760488Y133615D01*
X760464Y133517D01*
X760437Y133419D01*
X760406Y133323D01*
X760372Y133228D01*
X760333Y133134D01*
X760292Y133042D01*
X760246Y132951D01*
X760197Y132862D01*
X760145Y132776D01*
X760089Y132691D01*
X760030Y132609D01*
X759968Y132529D01*
X759903Y132451D01*
X759835Y132376D01*
X759764Y132304D01*
X759691Y132234D01*
X759614Y132168D01*
X759536Y132104D01*
X759454Y132044D01*
X759371Y131987D01*
X759285Y131933D01*
X759197Y131882D01*
X759108Y131835D01*
X759016Y131791D01*
X758923Y131751D01*
X758829Y131714D01*
X758733Y131682D01*
X758636Y131653D01*
X758538Y131627D01*
X758439Y131606D01*
X758339Y131588D01*
X758239Y131575D01*
X758138Y131565D01*
X758037Y131559D01*
X757936Y131557D01*
X757936Y131558D02*
X755326Y131558D01*
X758459Y131558D02*
X760547Y127381D01*
D13*
X631952Y361188D02*
X620268Y361188D01*
X626759Y365083D01*
X620268Y368977D01*
X631952Y368977D01*
X631952Y374227D02*
X624163Y374227D01*
X620917Y373902D02*
X620268Y373902D01*
X620268Y374551D01*
X620917Y374551D01*
X620917Y373902D01*
X631952Y380830D02*
X631952Y383426D01*
X631952Y380830D02*
X631950Y380743D01*
X631944Y380655D01*
X631934Y380569D01*
X631921Y380482D01*
X631903Y380397D01*
X631882Y380312D01*
X631857Y380228D01*
X631828Y380146D01*
X631795Y380065D01*
X631759Y379985D01*
X631720Y379907D01*
X631676Y379831D01*
X631630Y379757D01*
X631580Y379686D01*
X631527Y379616D01*
X631471Y379549D01*
X631412Y379485D01*
X631350Y379423D01*
X631286Y379364D01*
X631219Y379308D01*
X631149Y379255D01*
X631078Y379205D01*
X631004Y379159D01*
X630928Y379115D01*
X630850Y379076D01*
X630770Y379040D01*
X630689Y379007D01*
X630607Y378978D01*
X630523Y378953D01*
X630438Y378932D01*
X630353Y378914D01*
X630266Y378901D01*
X630180Y378891D01*
X630092Y378885D01*
X630005Y378883D01*
X630005Y378882D02*
X626110Y378882D01*
X626110Y378883D02*
X626023Y378885D01*
X625935Y378891D01*
X625849Y378901D01*
X625762Y378914D01*
X625677Y378932D01*
X625592Y378953D01*
X625508Y378978D01*
X625426Y379007D01*
X625345Y379040D01*
X625265Y379076D01*
X625187Y379115D01*
X625111Y379159D01*
X625037Y379205D01*
X624966Y379255D01*
X624896Y379308D01*
X624829Y379364D01*
X624765Y379423D01*
X624703Y379485D01*
X624644Y379549D01*
X624588Y379616D01*
X624535Y379686D01*
X624485Y379757D01*
X624439Y379831D01*
X624395Y379907D01*
X624356Y379985D01*
X624320Y380065D01*
X624287Y380146D01*
X624258Y380228D01*
X624233Y380312D01*
X624212Y380397D01*
X624194Y380482D01*
X624181Y380569D01*
X624171Y380655D01*
X624165Y380743D01*
X624163Y380830D01*
X624163Y383426D01*
X624163Y388080D02*
X631952Y388080D01*
X624163Y388080D02*
X624163Y391974D01*
X625461Y391974D01*
X626759Y395633D02*
X629356Y395633D01*
X626759Y395634D02*
X626658Y395636D01*
X626558Y395642D01*
X626458Y395652D01*
X626358Y395665D01*
X626259Y395683D01*
X626160Y395704D01*
X626063Y395729D01*
X625966Y395758D01*
X625871Y395791D01*
X625777Y395827D01*
X625685Y395867D01*
X625594Y395910D01*
X625505Y395957D01*
X625418Y396007D01*
X625332Y396061D01*
X625249Y396118D01*
X625169Y396178D01*
X625090Y396241D01*
X625014Y396308D01*
X624941Y396377D01*
X624871Y396449D01*
X624803Y396523D01*
X624738Y396600D01*
X624677Y396680D01*
X624618Y396762D01*
X624563Y396846D01*
X624511Y396932D01*
X624462Y397020D01*
X624417Y397110D01*
X624375Y397202D01*
X624337Y397295D01*
X624303Y397390D01*
X624272Y397485D01*
X624245Y397582D01*
X624222Y397680D01*
X624202Y397779D01*
X624187Y397879D01*
X624175Y397979D01*
X624167Y398079D01*
X624163Y398180D01*
X624163Y398280D01*
X624167Y398381D01*
X624175Y398481D01*
X624187Y398581D01*
X624202Y398681D01*
X624222Y398780D01*
X624245Y398878D01*
X624272Y398975D01*
X624303Y399070D01*
X624337Y399165D01*
X624375Y399258D01*
X624417Y399350D01*
X624462Y399440D01*
X624511Y399528D01*
X624563Y399614D01*
X624618Y399698D01*
X624677Y399780D01*
X624738Y399860D01*
X624803Y399937D01*
X624871Y400011D01*
X624941Y400083D01*
X625014Y400152D01*
X625090Y400219D01*
X625169Y400282D01*
X625249Y400342D01*
X625332Y400399D01*
X625418Y400453D01*
X625505Y400503D01*
X625594Y400550D01*
X625685Y400593D01*
X625777Y400633D01*
X625871Y400669D01*
X625966Y400702D01*
X626063Y400731D01*
X626160Y400756D01*
X626259Y400777D01*
X626358Y400795D01*
X626458Y400808D01*
X626558Y400818D01*
X626658Y400824D01*
X626759Y400826D01*
X629356Y400826D01*
X629457Y400824D01*
X629557Y400818D01*
X629657Y400808D01*
X629757Y400795D01*
X629856Y400777D01*
X629955Y400756D01*
X630052Y400731D01*
X630149Y400702D01*
X630244Y400669D01*
X630338Y400633D01*
X630430Y400593D01*
X630521Y400550D01*
X630610Y400503D01*
X630697Y400453D01*
X630783Y400399D01*
X630866Y400342D01*
X630946Y400282D01*
X631025Y400219D01*
X631101Y400152D01*
X631174Y400083D01*
X631244Y400011D01*
X631312Y399937D01*
X631377Y399860D01*
X631438Y399780D01*
X631497Y399698D01*
X631552Y399614D01*
X631604Y399528D01*
X631653Y399440D01*
X631698Y399350D01*
X631740Y399258D01*
X631778Y399165D01*
X631812Y399070D01*
X631843Y398975D01*
X631870Y398878D01*
X631893Y398780D01*
X631913Y398681D01*
X631928Y398581D01*
X631940Y398481D01*
X631948Y398381D01*
X631952Y398280D01*
X631952Y398180D01*
X631948Y398079D01*
X631940Y397979D01*
X631928Y397879D01*
X631913Y397779D01*
X631893Y397680D01*
X631870Y397582D01*
X631843Y397485D01*
X631812Y397390D01*
X631778Y397295D01*
X631740Y397202D01*
X631698Y397110D01*
X631653Y397020D01*
X631604Y396932D01*
X631552Y396846D01*
X631497Y396762D01*
X631438Y396680D01*
X631377Y396600D01*
X631312Y396523D01*
X631244Y396449D01*
X631174Y396377D01*
X631101Y396308D01*
X631025Y396241D01*
X630946Y396178D01*
X630866Y396118D01*
X630783Y396061D01*
X630697Y396007D01*
X630610Y395957D01*
X630521Y395910D01*
X630430Y395867D01*
X630338Y395827D01*
X630244Y395791D01*
X630149Y395758D01*
X630052Y395729D01*
X629955Y395704D01*
X629856Y395683D01*
X629757Y395665D01*
X629657Y395652D01*
X629557Y395642D01*
X629457Y395636D01*
X629356Y395634D01*
X631952Y406146D02*
X624163Y406146D01*
X624163Y411988D01*
X624165Y412075D01*
X624171Y412163D01*
X624181Y412249D01*
X624194Y412336D01*
X624212Y412421D01*
X624233Y412506D01*
X624258Y412590D01*
X624287Y412672D01*
X624320Y412753D01*
X624356Y412833D01*
X624395Y412911D01*
X624439Y412987D01*
X624485Y413061D01*
X624535Y413132D01*
X624588Y413202D01*
X624644Y413269D01*
X624703Y413333D01*
X624765Y413395D01*
X624829Y413454D01*
X624896Y413510D01*
X624966Y413563D01*
X625037Y413613D01*
X625111Y413659D01*
X625187Y413703D01*
X625265Y413742D01*
X625345Y413778D01*
X625426Y413811D01*
X625508Y413840D01*
X625592Y413865D01*
X625677Y413886D01*
X625762Y413904D01*
X625849Y413917D01*
X625935Y413927D01*
X626023Y413933D01*
X626110Y413935D01*
X631952Y413935D01*
X631952Y410041D02*
X624163Y410041D01*
X626759Y419255D02*
X629356Y419255D01*
X626759Y419256D02*
X626658Y419258D01*
X626558Y419264D01*
X626458Y419274D01*
X626358Y419287D01*
X626259Y419305D01*
X626160Y419326D01*
X626063Y419351D01*
X625966Y419380D01*
X625871Y419413D01*
X625777Y419449D01*
X625685Y419489D01*
X625594Y419532D01*
X625505Y419579D01*
X625418Y419629D01*
X625332Y419683D01*
X625249Y419740D01*
X625169Y419800D01*
X625090Y419863D01*
X625014Y419930D01*
X624941Y419999D01*
X624871Y420071D01*
X624803Y420145D01*
X624738Y420222D01*
X624677Y420302D01*
X624618Y420384D01*
X624563Y420468D01*
X624511Y420554D01*
X624462Y420642D01*
X624417Y420732D01*
X624375Y420824D01*
X624337Y420917D01*
X624303Y421012D01*
X624272Y421107D01*
X624245Y421204D01*
X624222Y421302D01*
X624202Y421401D01*
X624187Y421501D01*
X624175Y421601D01*
X624167Y421701D01*
X624163Y421802D01*
X624163Y421902D01*
X624167Y422003D01*
X624175Y422103D01*
X624187Y422203D01*
X624202Y422303D01*
X624222Y422402D01*
X624245Y422500D01*
X624272Y422597D01*
X624303Y422692D01*
X624337Y422787D01*
X624375Y422880D01*
X624417Y422972D01*
X624462Y423062D01*
X624511Y423150D01*
X624563Y423236D01*
X624618Y423320D01*
X624677Y423402D01*
X624738Y423482D01*
X624803Y423559D01*
X624871Y423633D01*
X624941Y423705D01*
X625014Y423774D01*
X625090Y423841D01*
X625169Y423904D01*
X625249Y423964D01*
X625332Y424021D01*
X625418Y424075D01*
X625505Y424125D01*
X625594Y424172D01*
X625685Y424215D01*
X625777Y424255D01*
X625871Y424291D01*
X625966Y424324D01*
X626063Y424353D01*
X626160Y424378D01*
X626259Y424399D01*
X626358Y424417D01*
X626458Y424430D01*
X626558Y424440D01*
X626658Y424446D01*
X626759Y424448D01*
X629356Y424448D01*
X629457Y424446D01*
X629557Y424440D01*
X629657Y424430D01*
X629757Y424417D01*
X629856Y424399D01*
X629955Y424378D01*
X630052Y424353D01*
X630149Y424324D01*
X630244Y424291D01*
X630338Y424255D01*
X630430Y424215D01*
X630521Y424172D01*
X630610Y424125D01*
X630697Y424075D01*
X630783Y424021D01*
X630866Y423964D01*
X630946Y423904D01*
X631025Y423841D01*
X631101Y423774D01*
X631174Y423705D01*
X631244Y423633D01*
X631312Y423559D01*
X631377Y423482D01*
X631438Y423402D01*
X631497Y423320D01*
X631552Y423236D01*
X631604Y423150D01*
X631653Y423062D01*
X631698Y422972D01*
X631740Y422880D01*
X631778Y422787D01*
X631812Y422692D01*
X631843Y422597D01*
X631870Y422500D01*
X631893Y422402D01*
X631913Y422303D01*
X631928Y422203D01*
X631940Y422103D01*
X631948Y422003D01*
X631952Y421902D01*
X631952Y421802D01*
X631948Y421701D01*
X631940Y421601D01*
X631928Y421501D01*
X631913Y421401D01*
X631893Y421302D01*
X631870Y421204D01*
X631843Y421107D01*
X631812Y421012D01*
X631778Y420917D01*
X631740Y420824D01*
X631698Y420732D01*
X631653Y420642D01*
X631604Y420554D01*
X631552Y420468D01*
X631497Y420384D01*
X631438Y420302D01*
X631377Y420222D01*
X631312Y420145D01*
X631244Y420071D01*
X631174Y419999D01*
X631101Y419930D01*
X631025Y419863D01*
X630946Y419800D01*
X630866Y419740D01*
X630783Y419683D01*
X630697Y419629D01*
X630610Y419579D01*
X630521Y419532D01*
X630430Y419489D01*
X630338Y419449D01*
X630244Y419413D01*
X630149Y419380D01*
X630052Y419351D01*
X629955Y419326D01*
X629856Y419305D01*
X629757Y419287D01*
X629657Y419274D01*
X629557Y419264D01*
X629457Y419258D01*
X629356Y419256D01*
X630005Y429542D02*
X624163Y429542D01*
X630005Y429542D02*
X630092Y429544D01*
X630180Y429550D01*
X630266Y429560D01*
X630353Y429573D01*
X630438Y429591D01*
X630523Y429612D01*
X630607Y429637D01*
X630689Y429666D01*
X630770Y429699D01*
X630850Y429735D01*
X630928Y429774D01*
X631004Y429818D01*
X631078Y429864D01*
X631149Y429914D01*
X631219Y429967D01*
X631286Y430023D01*
X631350Y430082D01*
X631412Y430144D01*
X631471Y430208D01*
X631527Y430275D01*
X631580Y430345D01*
X631630Y430416D01*
X631676Y430490D01*
X631720Y430566D01*
X631759Y430644D01*
X631795Y430724D01*
X631828Y430805D01*
X631857Y430887D01*
X631882Y430971D01*
X631903Y431056D01*
X631921Y431141D01*
X631934Y431228D01*
X631944Y431314D01*
X631950Y431402D01*
X631952Y431489D01*
X631952Y434735D01*
X624163Y434735D01*
X627408Y440803D02*
X628706Y444048D01*
X627409Y440803D02*
X627376Y440728D01*
X627340Y440654D01*
X627301Y440582D01*
X627258Y440512D01*
X627212Y440445D01*
X627162Y440379D01*
X627110Y440317D01*
X627054Y440256D01*
X626996Y440199D01*
X626935Y440144D01*
X626871Y440093D01*
X626805Y440045D01*
X626736Y440000D01*
X626666Y439958D01*
X626593Y439920D01*
X626519Y439885D01*
X626443Y439854D01*
X626366Y439827D01*
X626287Y439804D01*
X626208Y439784D01*
X626127Y439769D01*
X626046Y439757D01*
X625964Y439749D01*
X625883Y439745D01*
X625801Y439746D01*
X625719Y439750D01*
X625637Y439758D01*
X625556Y439770D01*
X625476Y439786D01*
X625396Y439806D01*
X625318Y439830D01*
X625241Y439858D01*
X625165Y439889D01*
X625091Y439924D01*
X625019Y439962D01*
X624948Y440004D01*
X624880Y440050D01*
X624814Y440098D01*
X624751Y440150D01*
X624690Y440205D01*
X624632Y440263D01*
X624576Y440323D01*
X624524Y440386D01*
X624475Y440452D01*
X624429Y440520D01*
X624387Y440590D01*
X624347Y440662D01*
X624312Y440736D01*
X624280Y440811D01*
X624252Y440888D01*
X624228Y440966D01*
X624207Y441046D01*
X624190Y441126D01*
X624178Y441207D01*
X624169Y441288D01*
X624164Y441370D01*
X624163Y441452D01*
X624167Y441629D01*
X624176Y441806D01*
X624190Y441983D01*
X624207Y442160D01*
X624229Y442335D01*
X624254Y442511D01*
X624285Y442685D01*
X624319Y442859D01*
X624357Y443032D01*
X624400Y443204D01*
X624447Y443375D01*
X624497Y443545D01*
X624552Y443714D01*
X624611Y443881D01*
X624674Y444047D01*
X624741Y444211D01*
X624812Y444373D01*
X628706Y444048D02*
X628739Y444123D01*
X628775Y444197D01*
X628814Y444269D01*
X628857Y444339D01*
X628903Y444406D01*
X628953Y444472D01*
X629005Y444534D01*
X629061Y444595D01*
X629119Y444652D01*
X629180Y444707D01*
X629244Y444758D01*
X629310Y444806D01*
X629379Y444851D01*
X629449Y444893D01*
X629522Y444931D01*
X629596Y444966D01*
X629672Y444997D01*
X629749Y445024D01*
X629828Y445047D01*
X629908Y445067D01*
X629988Y445082D01*
X630069Y445094D01*
X630151Y445102D01*
X630232Y445106D01*
X630314Y445105D01*
X630396Y445101D01*
X630478Y445093D01*
X630559Y445081D01*
X630639Y445065D01*
X630719Y445045D01*
X630797Y445021D01*
X630874Y444993D01*
X630950Y444962D01*
X631024Y444927D01*
X631096Y444889D01*
X631167Y444847D01*
X631235Y444801D01*
X631301Y444753D01*
X631364Y444701D01*
X631425Y444646D01*
X631483Y444588D01*
X631539Y444528D01*
X631591Y444465D01*
X631640Y444399D01*
X631686Y444331D01*
X631728Y444261D01*
X631768Y444189D01*
X631803Y444115D01*
X631835Y444040D01*
X631863Y443963D01*
X631887Y443885D01*
X631908Y443805D01*
X631925Y443725D01*
X631937Y443644D01*
X631946Y443563D01*
X631951Y443481D01*
X631952Y443399D01*
X631945Y443139D01*
X631932Y442879D01*
X631913Y442619D01*
X631888Y442360D01*
X631856Y442101D01*
X631819Y441844D01*
X631775Y441587D01*
X631726Y441331D01*
X631670Y441077D01*
X631609Y440824D01*
X631541Y440573D01*
X631467Y440323D01*
X631388Y440075D01*
X631303Y439829D01*
X631952Y451682D02*
X631952Y454928D01*
X631952Y451682D02*
X631950Y451595D01*
X631944Y451507D01*
X631934Y451421D01*
X631921Y451334D01*
X631903Y451249D01*
X631882Y451164D01*
X631857Y451080D01*
X631828Y450998D01*
X631795Y450917D01*
X631759Y450837D01*
X631720Y450759D01*
X631676Y450683D01*
X631630Y450609D01*
X631580Y450538D01*
X631527Y450468D01*
X631471Y450401D01*
X631412Y450337D01*
X631350Y450275D01*
X631286Y450216D01*
X631219Y450160D01*
X631149Y450107D01*
X631078Y450057D01*
X631004Y450011D01*
X630928Y449967D01*
X630850Y449928D01*
X630770Y449892D01*
X630689Y449859D01*
X630607Y449830D01*
X630523Y449805D01*
X630438Y449784D01*
X630353Y449766D01*
X630266Y449753D01*
X630180Y449743D01*
X630092Y449737D01*
X630005Y449735D01*
X626759Y449735D01*
X626759Y449736D02*
X626658Y449738D01*
X626558Y449744D01*
X626458Y449754D01*
X626358Y449767D01*
X626259Y449785D01*
X626160Y449806D01*
X626063Y449831D01*
X625966Y449860D01*
X625871Y449893D01*
X625777Y449929D01*
X625685Y449969D01*
X625594Y450012D01*
X625505Y450059D01*
X625418Y450109D01*
X625332Y450163D01*
X625249Y450220D01*
X625169Y450280D01*
X625090Y450343D01*
X625014Y450410D01*
X624941Y450479D01*
X624871Y450551D01*
X624803Y450625D01*
X624738Y450702D01*
X624677Y450782D01*
X624618Y450864D01*
X624563Y450948D01*
X624511Y451034D01*
X624462Y451122D01*
X624417Y451212D01*
X624375Y451304D01*
X624337Y451397D01*
X624303Y451492D01*
X624272Y451587D01*
X624245Y451684D01*
X624222Y451782D01*
X624202Y451881D01*
X624187Y451981D01*
X624175Y452081D01*
X624167Y452181D01*
X624163Y452282D01*
X624163Y452382D01*
X624167Y452483D01*
X624175Y452583D01*
X624187Y452683D01*
X624202Y452783D01*
X624222Y452882D01*
X624245Y452980D01*
X624272Y453077D01*
X624303Y453172D01*
X624337Y453267D01*
X624375Y453360D01*
X624417Y453452D01*
X624462Y453542D01*
X624511Y453630D01*
X624563Y453716D01*
X624618Y453800D01*
X624677Y453882D01*
X624738Y453962D01*
X624803Y454039D01*
X624871Y454113D01*
X624941Y454185D01*
X625014Y454254D01*
X625090Y454321D01*
X625169Y454384D01*
X625249Y454444D01*
X625332Y454501D01*
X625418Y454555D01*
X625505Y454605D01*
X625594Y454652D01*
X625685Y454695D01*
X625777Y454735D01*
X625871Y454771D01*
X625966Y454804D01*
X626063Y454833D01*
X626160Y454858D01*
X626259Y454879D01*
X626358Y454897D01*
X626458Y454910D01*
X626558Y454920D01*
X626658Y454926D01*
X626759Y454928D01*
X628057Y454928D01*
X628057Y449735D01*
X624163Y465356D02*
X631952Y467953D01*
X624163Y470549D01*
X622864Y474994D02*
X620268Y478240D01*
X631952Y478240D01*
X631952Y481485D02*
X631952Y474994D01*
X631952Y485916D02*
X631303Y485916D01*
X631303Y486565D01*
X631952Y486565D01*
X631952Y485916D01*
X626110Y490996D02*
X625880Y490999D01*
X625650Y491007D01*
X625421Y491021D01*
X625192Y491040D01*
X624963Y491065D01*
X624735Y491095D01*
X624508Y491130D01*
X624282Y491171D01*
X624057Y491217D01*
X623833Y491269D01*
X623610Y491326D01*
X623389Y491388D01*
X623169Y491456D01*
X622951Y491529D01*
X622735Y491607D01*
X622521Y491690D01*
X622309Y491778D01*
X622098Y491871D01*
X621891Y491970D01*
X621801Y492003D01*
X621712Y492039D01*
X621624Y492079D01*
X621539Y492123D01*
X621455Y492170D01*
X621373Y492220D01*
X621293Y492274D01*
X621216Y492330D01*
X621140Y492390D01*
X621067Y492453D01*
X620997Y492518D01*
X620929Y492587D01*
X620865Y492658D01*
X620803Y492731D01*
X620744Y492807D01*
X620688Y492885D01*
X620635Y492966D01*
X620586Y493048D01*
X620540Y493132D01*
X620497Y493219D01*
X620458Y493306D01*
X620422Y493396D01*
X620390Y493486D01*
X620362Y493578D01*
X620337Y493671D01*
X620316Y493765D01*
X620299Y493859D01*
X620285Y493954D01*
X620276Y494050D01*
X620270Y494146D01*
X620268Y494242D01*
X620270Y494338D01*
X620276Y494434D01*
X620285Y494530D01*
X620299Y494625D01*
X620316Y494719D01*
X620337Y494813D01*
X620362Y494906D01*
X620390Y494998D01*
X620422Y495088D01*
X620458Y495178D01*
X620497Y495266D01*
X620540Y495352D01*
X620586Y495436D01*
X620635Y495518D01*
X620688Y495599D01*
X620744Y495677D01*
X620803Y495753D01*
X620865Y495826D01*
X620929Y495897D01*
X620997Y495966D01*
X621067Y496031D01*
X621140Y496094D01*
X621216Y496154D01*
X621293Y496210D01*
X621373Y496264D01*
X621455Y496314D01*
X621539Y496361D01*
X621624Y496405D01*
X621712Y496445D01*
X621801Y496481D01*
X621891Y496514D01*
X621891Y496513D02*
X622098Y496612D01*
X622309Y496705D01*
X622521Y496793D01*
X622735Y496876D01*
X622951Y496954D01*
X623169Y497027D01*
X623389Y497095D01*
X623610Y497157D01*
X623833Y497214D01*
X624057Y497266D01*
X624282Y497312D01*
X624508Y497353D01*
X624735Y497388D01*
X624963Y497418D01*
X625192Y497443D01*
X625421Y497462D01*
X625650Y497476D01*
X625880Y497484D01*
X626110Y497487D01*
X626110Y490996D02*
X626340Y490999D01*
X626570Y491007D01*
X626799Y491021D01*
X627028Y491040D01*
X627257Y491065D01*
X627485Y491095D01*
X627712Y491130D01*
X627938Y491171D01*
X628163Y491217D01*
X628387Y491269D01*
X628610Y491326D01*
X628831Y491388D01*
X629051Y491456D01*
X629269Y491529D01*
X629485Y491607D01*
X629699Y491690D01*
X629911Y491778D01*
X630122Y491871D01*
X630329Y491970D01*
X630419Y492003D01*
X630508Y492039D01*
X630596Y492080D01*
X630681Y492123D01*
X630765Y492170D01*
X630847Y492220D01*
X630927Y492274D01*
X631004Y492330D01*
X631080Y492390D01*
X631153Y492453D01*
X631223Y492518D01*
X631291Y492587D01*
X631355Y492658D01*
X631417Y492731D01*
X631476Y492807D01*
X631532Y492885D01*
X631585Y492966D01*
X631634Y493048D01*
X631680Y493132D01*
X631723Y493219D01*
X631762Y493306D01*
X631798Y493396D01*
X631830Y493486D01*
X631858Y493578D01*
X631883Y493671D01*
X631904Y493765D01*
X631921Y493859D01*
X631935Y493954D01*
X631944Y494050D01*
X631950Y494146D01*
X631952Y494242D01*
X630329Y496513D02*
X630122Y496612D01*
X629911Y496705D01*
X629699Y496793D01*
X629485Y496876D01*
X629269Y496954D01*
X629051Y497027D01*
X628831Y497095D01*
X628610Y497157D01*
X628387Y497214D01*
X628163Y497266D01*
X627938Y497312D01*
X627712Y497353D01*
X627485Y497388D01*
X627257Y497418D01*
X627028Y497443D01*
X626799Y497462D01*
X626570Y497476D01*
X626340Y497484D01*
X626110Y497487D01*
X630329Y496514D02*
X630419Y496481D01*
X630508Y496445D01*
X630596Y496405D01*
X630681Y496361D01*
X630765Y496314D01*
X630847Y496264D01*
X630927Y496210D01*
X631004Y496154D01*
X631080Y496094D01*
X631153Y496031D01*
X631223Y495966D01*
X631291Y495897D01*
X631355Y495826D01*
X631417Y495753D01*
X631476Y495677D01*
X631532Y495599D01*
X631585Y495518D01*
X631634Y495436D01*
X631680Y495352D01*
X631723Y495265D01*
X631762Y495178D01*
X631798Y495088D01*
X631830Y494998D01*
X631858Y494906D01*
X631883Y494813D01*
X631904Y494719D01*
X631921Y494625D01*
X631935Y494530D01*
X631944Y494434D01*
X631950Y494338D01*
X631952Y494242D01*
X629356Y491645D02*
X622864Y496838D01*
D12*
X635381Y361061D02*
X644779Y361061D01*
X640602Y364194D02*
X635381Y361061D01*
X640602Y364194D02*
X635381Y367326D01*
X644779Y367326D01*
X641124Y373336D02*
X641124Y375685D01*
X641125Y373336D02*
X641127Y373252D01*
X641133Y373167D01*
X641143Y373084D01*
X641156Y373000D01*
X641174Y372918D01*
X641195Y372836D01*
X641220Y372755D01*
X641248Y372676D01*
X641281Y372598D01*
X641317Y372522D01*
X641356Y372447D01*
X641399Y372374D01*
X641445Y372303D01*
X641494Y372235D01*
X641546Y372169D01*
X641602Y372105D01*
X641660Y372044D01*
X641721Y371986D01*
X641785Y371930D01*
X641851Y371878D01*
X641919Y371829D01*
X641990Y371783D01*
X642063Y371740D01*
X642138Y371701D01*
X642214Y371665D01*
X642292Y371632D01*
X642371Y371604D01*
X642452Y371579D01*
X642534Y371558D01*
X642616Y371540D01*
X642700Y371527D01*
X642783Y371517D01*
X642868Y371511D01*
X642952Y371509D01*
X643036Y371511D01*
X643121Y371517D01*
X643204Y371527D01*
X643288Y371540D01*
X643370Y371558D01*
X643452Y371579D01*
X643533Y371604D01*
X643612Y371632D01*
X643690Y371665D01*
X643766Y371701D01*
X643841Y371740D01*
X643914Y371783D01*
X643985Y371829D01*
X644053Y371878D01*
X644119Y371930D01*
X644183Y371986D01*
X644244Y372044D01*
X644302Y372105D01*
X644358Y372169D01*
X644410Y372235D01*
X644459Y372303D01*
X644505Y372374D01*
X644548Y372447D01*
X644587Y372522D01*
X644623Y372598D01*
X644656Y372676D01*
X644684Y372755D01*
X644709Y372836D01*
X644730Y372918D01*
X644748Y373000D01*
X644761Y373084D01*
X644771Y373167D01*
X644777Y373252D01*
X644779Y373336D01*
X644779Y375685D01*
X640080Y375685D01*
X640003Y375683D01*
X639927Y375677D01*
X639850Y375668D01*
X639774Y375655D01*
X639699Y375638D01*
X639625Y375618D01*
X639552Y375593D01*
X639481Y375566D01*
X639410Y375535D01*
X639342Y375500D01*
X639275Y375462D01*
X639210Y375421D01*
X639147Y375377D01*
X639087Y375330D01*
X639028Y375279D01*
X638973Y375226D01*
X638920Y375171D01*
X638869Y375112D01*
X638822Y375052D01*
X638778Y374989D01*
X638737Y374924D01*
X638699Y374857D01*
X638664Y374789D01*
X638633Y374718D01*
X638606Y374647D01*
X638581Y374574D01*
X638561Y374500D01*
X638544Y374425D01*
X638531Y374349D01*
X638522Y374272D01*
X638516Y374196D01*
X638514Y374119D01*
X638514Y372030D01*
X635381Y383915D02*
X644779Y383915D01*
X644779Y381304D01*
X644777Y381227D01*
X644771Y381151D01*
X644762Y381074D01*
X644749Y380998D01*
X644732Y380923D01*
X644712Y380849D01*
X644687Y380776D01*
X644660Y380705D01*
X644629Y380634D01*
X644594Y380566D01*
X644556Y380499D01*
X644515Y380434D01*
X644471Y380371D01*
X644424Y380311D01*
X644373Y380252D01*
X644320Y380197D01*
X644265Y380144D01*
X644206Y380093D01*
X644146Y380046D01*
X644083Y380002D01*
X644018Y379961D01*
X643951Y379923D01*
X643883Y379888D01*
X643812Y379857D01*
X643741Y379830D01*
X643668Y379805D01*
X643594Y379785D01*
X643519Y379768D01*
X643443Y379755D01*
X643366Y379746D01*
X643290Y379740D01*
X643213Y379738D01*
X640080Y379738D01*
X640003Y379740D01*
X639927Y379746D01*
X639850Y379755D01*
X639774Y379768D01*
X639699Y379785D01*
X639625Y379805D01*
X639552Y379830D01*
X639481Y379857D01*
X639410Y379888D01*
X639342Y379923D01*
X639275Y379961D01*
X639210Y380002D01*
X639147Y380046D01*
X639087Y380093D01*
X639028Y380144D01*
X638973Y380197D01*
X638920Y380252D01*
X638869Y380311D01*
X638822Y380371D01*
X638778Y380434D01*
X638737Y380499D01*
X638699Y380566D01*
X638664Y380634D01*
X638633Y380705D01*
X638606Y380776D01*
X638581Y380849D01*
X638561Y380923D01*
X638544Y380998D01*
X638531Y381074D01*
X638522Y381151D01*
X638516Y381227D01*
X638514Y381304D01*
X638514Y383915D01*
X644779Y389579D02*
X644779Y392190D01*
X644779Y389579D02*
X644777Y389502D01*
X644771Y389426D01*
X644762Y389349D01*
X644749Y389273D01*
X644732Y389198D01*
X644712Y389124D01*
X644687Y389051D01*
X644660Y388980D01*
X644629Y388909D01*
X644594Y388841D01*
X644556Y388774D01*
X644515Y388709D01*
X644471Y388646D01*
X644424Y388586D01*
X644373Y388527D01*
X644320Y388472D01*
X644265Y388419D01*
X644206Y388368D01*
X644146Y388321D01*
X644083Y388277D01*
X644018Y388236D01*
X643951Y388198D01*
X643883Y388163D01*
X643812Y388132D01*
X643741Y388105D01*
X643668Y388080D01*
X643594Y388060D01*
X643519Y388043D01*
X643443Y388030D01*
X643366Y388021D01*
X643290Y388015D01*
X643213Y388013D01*
X640602Y388013D01*
X640512Y388015D01*
X640423Y388021D01*
X640333Y388030D01*
X640244Y388044D01*
X640156Y388061D01*
X640069Y388082D01*
X639982Y388107D01*
X639897Y388136D01*
X639813Y388168D01*
X639731Y388203D01*
X639650Y388243D01*
X639571Y388285D01*
X639494Y388331D01*
X639419Y388381D01*
X639346Y388433D01*
X639275Y388489D01*
X639207Y388547D01*
X639142Y388609D01*
X639079Y388673D01*
X639019Y388740D01*
X638962Y388809D01*
X638908Y388881D01*
X638857Y388955D01*
X638809Y389031D01*
X638765Y389109D01*
X638724Y389189D01*
X638686Y389271D01*
X638652Y389354D01*
X638622Y389439D01*
X638595Y389525D01*
X638572Y389611D01*
X638553Y389699D01*
X638538Y389788D01*
X638526Y389877D01*
X638518Y389966D01*
X638514Y390056D01*
X638514Y390146D01*
X638518Y390236D01*
X638526Y390325D01*
X638538Y390414D01*
X638553Y390503D01*
X638572Y390591D01*
X638595Y390677D01*
X638622Y390763D01*
X638652Y390848D01*
X638686Y390931D01*
X638724Y391013D01*
X638765Y391093D01*
X638809Y391171D01*
X638857Y391247D01*
X638908Y391321D01*
X638962Y391393D01*
X639019Y391462D01*
X639079Y391529D01*
X639142Y391593D01*
X639207Y391655D01*
X639275Y391713D01*
X639346Y391769D01*
X639419Y391821D01*
X639494Y391871D01*
X639571Y391917D01*
X639650Y391959D01*
X639731Y391999D01*
X639813Y392034D01*
X639897Y392066D01*
X639982Y392095D01*
X640069Y392120D01*
X640156Y392141D01*
X640244Y392158D01*
X640333Y392172D01*
X640423Y392181D01*
X640512Y392187D01*
X640602Y392189D01*
X640602Y392190D02*
X641646Y392190D01*
X641646Y388013D01*
X644779Y401165D02*
X635381Y401165D01*
X644779Y401165D02*
X644779Y403776D01*
X644777Y403853D01*
X644771Y403929D01*
X644762Y404006D01*
X644749Y404082D01*
X644732Y404157D01*
X644712Y404231D01*
X644687Y404304D01*
X644660Y404375D01*
X644629Y404446D01*
X644594Y404514D01*
X644556Y404581D01*
X644515Y404646D01*
X644471Y404709D01*
X644424Y404769D01*
X644373Y404828D01*
X644320Y404883D01*
X644265Y404936D01*
X644206Y404987D01*
X644146Y405034D01*
X644083Y405078D01*
X644018Y405119D01*
X643951Y405157D01*
X643883Y405192D01*
X643812Y405223D01*
X643741Y405250D01*
X643668Y405275D01*
X643594Y405295D01*
X643519Y405312D01*
X643443Y405325D01*
X643366Y405334D01*
X643290Y405340D01*
X643213Y405342D01*
X640080Y405342D01*
X640003Y405340D01*
X639927Y405334D01*
X639850Y405325D01*
X639774Y405312D01*
X639699Y405295D01*
X639625Y405275D01*
X639552Y405250D01*
X639481Y405223D01*
X639410Y405192D01*
X639342Y405157D01*
X639275Y405119D01*
X639210Y405078D01*
X639147Y405034D01*
X639087Y404987D01*
X639028Y404936D01*
X638973Y404883D01*
X638920Y404828D01*
X638869Y404769D01*
X638822Y404709D01*
X638778Y404646D01*
X638737Y404581D01*
X638699Y404514D01*
X638664Y404446D01*
X638633Y404375D01*
X638606Y404304D01*
X638581Y404231D01*
X638561Y404157D01*
X638544Y404082D01*
X638531Y404006D01*
X638522Y403929D01*
X638516Y403853D01*
X638514Y403776D01*
X638514Y401165D01*
X647912Y408739D02*
X647912Y409783D01*
X638514Y412916D01*
X638514Y408739D02*
X644779Y410828D01*
X643996Y416358D02*
X643474Y416358D01*
X643474Y416880D01*
X643996Y416880D01*
X643996Y416358D01*
X639819Y416358D02*
X639297Y416358D01*
X639297Y416880D01*
X639819Y416880D01*
X639819Y416358D01*
X635381Y425895D02*
X644779Y425895D01*
X644779Y431117D02*
X635381Y425895D01*
X635381Y431117D02*
X644779Y431117D01*
X644779Y435212D02*
X638514Y435212D01*
X635903Y434951D02*
X635381Y434951D01*
X635381Y435473D01*
X635903Y435473D01*
X635903Y434951D01*
X644779Y440491D02*
X644779Y442579D01*
X644779Y440491D02*
X644777Y440414D01*
X644771Y440338D01*
X644762Y440261D01*
X644749Y440185D01*
X644732Y440110D01*
X644712Y440036D01*
X644687Y439963D01*
X644660Y439892D01*
X644629Y439821D01*
X644594Y439753D01*
X644556Y439686D01*
X644515Y439621D01*
X644471Y439558D01*
X644424Y439498D01*
X644373Y439439D01*
X644320Y439384D01*
X644265Y439331D01*
X644206Y439280D01*
X644146Y439233D01*
X644083Y439189D01*
X644018Y439148D01*
X643951Y439110D01*
X643883Y439075D01*
X643812Y439044D01*
X643741Y439017D01*
X643668Y438992D01*
X643594Y438972D01*
X643519Y438955D01*
X643443Y438942D01*
X643366Y438933D01*
X643290Y438927D01*
X643213Y438925D01*
X640080Y438925D01*
X640003Y438927D01*
X639927Y438933D01*
X639850Y438942D01*
X639774Y438955D01*
X639699Y438972D01*
X639625Y438992D01*
X639552Y439017D01*
X639481Y439044D01*
X639410Y439075D01*
X639342Y439110D01*
X639275Y439148D01*
X639210Y439189D01*
X639147Y439233D01*
X639087Y439280D01*
X639028Y439331D01*
X638973Y439384D01*
X638920Y439439D01*
X638869Y439498D01*
X638822Y439558D01*
X638778Y439621D01*
X638737Y439686D01*
X638699Y439753D01*
X638664Y439821D01*
X638633Y439892D01*
X638606Y439963D01*
X638581Y440036D01*
X638561Y440110D01*
X638544Y440185D01*
X638531Y440261D01*
X638522Y440338D01*
X638516Y440414D01*
X638514Y440491D01*
X638514Y442579D01*
X635381Y446334D02*
X644779Y446334D01*
X641646Y446334D02*
X638514Y450511D01*
X640341Y448162D02*
X644779Y450511D01*
X644779Y459118D02*
X635381Y459118D01*
X644779Y464340D01*
X635381Y464340D01*
X644779Y470000D02*
X644779Y472611D01*
X644779Y470000D02*
X644777Y469923D01*
X644771Y469847D01*
X644762Y469770D01*
X644749Y469694D01*
X644732Y469619D01*
X644712Y469545D01*
X644687Y469472D01*
X644660Y469401D01*
X644629Y469330D01*
X644594Y469262D01*
X644556Y469195D01*
X644515Y469130D01*
X644471Y469067D01*
X644424Y469007D01*
X644373Y468948D01*
X644320Y468893D01*
X644265Y468840D01*
X644206Y468789D01*
X644146Y468742D01*
X644083Y468698D01*
X644018Y468657D01*
X643951Y468619D01*
X643883Y468584D01*
X643812Y468553D01*
X643741Y468526D01*
X643668Y468501D01*
X643594Y468481D01*
X643519Y468464D01*
X643443Y468451D01*
X643366Y468442D01*
X643290Y468436D01*
X643213Y468434D01*
X640080Y468434D01*
X640003Y468436D01*
X639927Y468442D01*
X639850Y468451D01*
X639774Y468464D01*
X639699Y468481D01*
X639625Y468501D01*
X639552Y468526D01*
X639481Y468553D01*
X639410Y468584D01*
X639342Y468619D01*
X639275Y468657D01*
X639210Y468698D01*
X639147Y468742D01*
X639087Y468789D01*
X639028Y468840D01*
X638973Y468893D01*
X638920Y468948D01*
X638869Y469007D01*
X638822Y469067D01*
X638778Y469130D01*
X638737Y469195D01*
X638699Y469262D01*
X638664Y469330D01*
X638633Y469401D01*
X638606Y469472D01*
X638581Y469545D01*
X638561Y469619D01*
X638544Y469694D01*
X638531Y469770D01*
X638522Y469847D01*
X638516Y469923D01*
X638514Y470000D01*
X638514Y472611D01*
X646345Y472611D01*
X646422Y472609D01*
X646498Y472603D01*
X646575Y472594D01*
X646651Y472581D01*
X646726Y472564D01*
X646800Y472544D01*
X646873Y472519D01*
X646944Y472492D01*
X647015Y472461D01*
X647083Y472426D01*
X647150Y472388D01*
X647215Y472347D01*
X647278Y472303D01*
X647338Y472256D01*
X647397Y472205D01*
X647452Y472152D01*
X647505Y472097D01*
X647556Y472038D01*
X647603Y471978D01*
X647647Y471915D01*
X647688Y471850D01*
X647726Y471783D01*
X647761Y471715D01*
X647792Y471644D01*
X647819Y471573D01*
X647844Y471500D01*
X647864Y471426D01*
X647881Y471351D01*
X647894Y471275D01*
X647903Y471198D01*
X647909Y471122D01*
X647911Y471045D01*
X647912Y471045D02*
X647912Y468956D01*
X643213Y477014D02*
X638514Y477014D01*
X643213Y477014D02*
X643290Y477016D01*
X643366Y477022D01*
X643443Y477031D01*
X643519Y477044D01*
X643594Y477061D01*
X643668Y477081D01*
X643741Y477106D01*
X643812Y477133D01*
X643883Y477164D01*
X643951Y477199D01*
X644018Y477237D01*
X644083Y477278D01*
X644146Y477322D01*
X644206Y477369D01*
X644265Y477420D01*
X644320Y477473D01*
X644373Y477528D01*
X644424Y477587D01*
X644471Y477647D01*
X644515Y477710D01*
X644556Y477775D01*
X644594Y477842D01*
X644629Y477910D01*
X644660Y477981D01*
X644687Y478052D01*
X644712Y478125D01*
X644732Y478199D01*
X644749Y478274D01*
X644762Y478350D01*
X644771Y478427D01*
X644777Y478503D01*
X644779Y478580D01*
X644779Y481191D01*
X638514Y481191D01*
X647912Y484939D02*
X647912Y485983D01*
X638514Y489116D01*
X638514Y484939D02*
X644779Y487027D01*
X644779Y494125D02*
X644779Y496736D01*
X644779Y494125D02*
X644777Y494048D01*
X644771Y493972D01*
X644762Y493895D01*
X644749Y493819D01*
X644732Y493744D01*
X644712Y493670D01*
X644687Y493597D01*
X644660Y493526D01*
X644629Y493455D01*
X644594Y493387D01*
X644556Y493320D01*
X644515Y493255D01*
X644471Y493192D01*
X644424Y493132D01*
X644373Y493073D01*
X644320Y493018D01*
X644265Y492965D01*
X644206Y492914D01*
X644146Y492867D01*
X644083Y492823D01*
X644018Y492782D01*
X643951Y492744D01*
X643883Y492709D01*
X643812Y492678D01*
X643741Y492651D01*
X643668Y492626D01*
X643594Y492606D01*
X643519Y492589D01*
X643443Y492576D01*
X643366Y492567D01*
X643290Y492561D01*
X643213Y492559D01*
X640602Y492559D01*
X640512Y492561D01*
X640423Y492567D01*
X640333Y492576D01*
X640244Y492590D01*
X640156Y492607D01*
X640069Y492628D01*
X639982Y492653D01*
X639897Y492682D01*
X639813Y492714D01*
X639731Y492749D01*
X639650Y492789D01*
X639571Y492831D01*
X639494Y492877D01*
X639419Y492927D01*
X639346Y492979D01*
X639275Y493035D01*
X639207Y493093D01*
X639142Y493155D01*
X639079Y493219D01*
X639019Y493286D01*
X638962Y493355D01*
X638908Y493427D01*
X638857Y493501D01*
X638809Y493577D01*
X638765Y493655D01*
X638724Y493735D01*
X638686Y493817D01*
X638652Y493900D01*
X638622Y493985D01*
X638595Y494071D01*
X638572Y494157D01*
X638553Y494245D01*
X638538Y494334D01*
X638526Y494423D01*
X638518Y494512D01*
X638514Y494602D01*
X638514Y494692D01*
X638518Y494782D01*
X638526Y494871D01*
X638538Y494960D01*
X638553Y495049D01*
X638572Y495137D01*
X638595Y495223D01*
X638622Y495309D01*
X638652Y495394D01*
X638686Y495477D01*
X638724Y495559D01*
X638765Y495639D01*
X638809Y495717D01*
X638857Y495793D01*
X638908Y495867D01*
X638962Y495939D01*
X639019Y496008D01*
X639079Y496075D01*
X639142Y496139D01*
X639207Y496201D01*
X639275Y496259D01*
X639346Y496315D01*
X639419Y496367D01*
X639494Y496417D01*
X639571Y496463D01*
X639650Y496505D01*
X639731Y496545D01*
X639813Y496580D01*
X639897Y496612D01*
X639982Y496641D01*
X640069Y496666D01*
X640156Y496687D01*
X640244Y496704D01*
X640333Y496718D01*
X640423Y496727D01*
X640512Y496733D01*
X640602Y496735D01*
X640602Y496736D02*
X641646Y496736D01*
X641646Y492559D01*
X638514Y500788D02*
X644779Y500788D01*
X638514Y500788D02*
X638514Y503399D01*
X638516Y503476D01*
X638522Y503552D01*
X638531Y503629D01*
X638544Y503705D01*
X638561Y503780D01*
X638581Y503854D01*
X638606Y503927D01*
X638633Y503998D01*
X638664Y504069D01*
X638699Y504137D01*
X638737Y504204D01*
X638778Y504269D01*
X638822Y504332D01*
X638869Y504392D01*
X638920Y504451D01*
X638973Y504506D01*
X639028Y504559D01*
X639087Y504610D01*
X639147Y504657D01*
X639210Y504701D01*
X639275Y504742D01*
X639342Y504780D01*
X639410Y504815D01*
X639481Y504846D01*
X639552Y504873D01*
X639625Y504898D01*
X639699Y504918D01*
X639774Y504935D01*
X639850Y504948D01*
X639926Y504957D01*
X640003Y504963D01*
X640080Y504965D01*
X644779Y504965D01*
D14*
X795460Y289870D02*
X795460Y233370D01*
X795460Y289870D02*
X759460Y289870D01*
X759460Y233370D01*
X795460Y233370D01*
D15*
X743194Y240386D02*
X741896Y240386D01*
X741896Y241684D01*
X743194Y241684D01*
X743194Y240386D01*
D11*
X775970Y509270D02*
X701040Y509270D01*
X775970Y509270D02*
X775970Y388620D01*
X701040Y388620D01*
X701040Y509270D01*
D13*
X446532Y451104D02*
X444500Y451104D01*
X444411Y451106D01*
X444323Y451112D01*
X444235Y451121D01*
X444147Y451135D01*
X444060Y451152D01*
X443974Y451173D01*
X443889Y451198D01*
X443805Y451227D01*
X443722Y451259D01*
X443641Y451294D01*
X443562Y451334D01*
X443484Y451376D01*
X443408Y451422D01*
X443334Y451471D01*
X443263Y451524D01*
X443194Y451579D01*
X443127Y451638D01*
X443063Y451699D01*
X443002Y451763D01*
X442943Y451830D01*
X442888Y451899D01*
X442835Y451970D01*
X442786Y452044D01*
X442740Y452120D01*
X442698Y452198D01*
X442658Y452277D01*
X442623Y452358D01*
X442591Y452441D01*
X442562Y452525D01*
X442537Y452610D01*
X442516Y452696D01*
X442499Y452783D01*
X442485Y452871D01*
X442476Y452959D01*
X442470Y453047D01*
X442468Y453136D01*
X442468Y458216D01*
X442470Y458305D01*
X442476Y458393D01*
X442485Y458481D01*
X442499Y458569D01*
X442516Y458656D01*
X442537Y458742D01*
X442562Y458827D01*
X442591Y458911D01*
X442623Y458994D01*
X442658Y459075D01*
X442698Y459154D01*
X442740Y459232D01*
X442786Y459308D01*
X442835Y459382D01*
X442888Y459453D01*
X442943Y459522D01*
X443002Y459589D01*
X443063Y459653D01*
X443127Y459714D01*
X443194Y459773D01*
X443263Y459828D01*
X443334Y459881D01*
X443408Y459930D01*
X443484Y459976D01*
X443562Y460018D01*
X443641Y460058D01*
X443722Y460093D01*
X443805Y460125D01*
X443889Y460154D01*
X443974Y460179D01*
X444060Y460200D01*
X444147Y460217D01*
X444235Y460231D01*
X444323Y460240D01*
X444411Y460246D01*
X444500Y460248D01*
X446532Y460248D01*
X450118Y458216D02*
X452658Y460248D01*
X452658Y451104D01*
X450118Y451104D02*
X455198Y451104D01*
X446532Y390144D02*
X444500Y390144D01*
X444411Y390146D01*
X444323Y390152D01*
X444235Y390161D01*
X444147Y390175D01*
X444060Y390192D01*
X443974Y390213D01*
X443889Y390238D01*
X443805Y390267D01*
X443722Y390299D01*
X443641Y390334D01*
X443562Y390374D01*
X443484Y390416D01*
X443408Y390462D01*
X443334Y390511D01*
X443263Y390564D01*
X443194Y390619D01*
X443127Y390678D01*
X443063Y390739D01*
X443002Y390803D01*
X442943Y390870D01*
X442888Y390939D01*
X442835Y391010D01*
X442786Y391084D01*
X442740Y391160D01*
X442698Y391238D01*
X442658Y391317D01*
X442623Y391398D01*
X442591Y391481D01*
X442562Y391565D01*
X442537Y391650D01*
X442516Y391736D01*
X442499Y391823D01*
X442485Y391911D01*
X442476Y391999D01*
X442470Y392087D01*
X442468Y392176D01*
X442468Y397256D01*
X442470Y397345D01*
X442476Y397433D01*
X442485Y397521D01*
X442499Y397609D01*
X442516Y397696D01*
X442537Y397782D01*
X442562Y397867D01*
X442591Y397951D01*
X442623Y398034D01*
X442658Y398115D01*
X442698Y398194D01*
X442740Y398272D01*
X442786Y398348D01*
X442835Y398422D01*
X442888Y398493D01*
X442943Y398562D01*
X443002Y398629D01*
X443063Y398693D01*
X443127Y398754D01*
X443194Y398813D01*
X443263Y398868D01*
X443334Y398921D01*
X443408Y398970D01*
X443484Y399016D01*
X443562Y399058D01*
X443641Y399098D01*
X443722Y399133D01*
X443805Y399165D01*
X443889Y399194D01*
X443974Y399219D01*
X444060Y399240D01*
X444147Y399257D01*
X444235Y399271D01*
X444323Y399280D01*
X444411Y399286D01*
X444500Y399288D01*
X446532Y399288D01*
X452912Y399288D02*
X453006Y399286D01*
X453101Y399280D01*
X453195Y399270D01*
X453288Y399257D01*
X453381Y399239D01*
X453473Y399218D01*
X453564Y399193D01*
X453654Y399164D01*
X453743Y399132D01*
X453830Y399095D01*
X453916Y399056D01*
X454000Y399012D01*
X454082Y398966D01*
X454162Y398916D01*
X454240Y398862D01*
X454316Y398806D01*
X454389Y398746D01*
X454460Y398684D01*
X454528Y398618D01*
X454594Y398550D01*
X454656Y398479D01*
X454716Y398406D01*
X454772Y398330D01*
X454826Y398252D01*
X454876Y398172D01*
X454922Y398090D01*
X454966Y398006D01*
X455005Y397920D01*
X455042Y397833D01*
X455074Y397744D01*
X455103Y397654D01*
X455128Y397563D01*
X455149Y397471D01*
X455167Y397378D01*
X455180Y397285D01*
X455190Y397191D01*
X455196Y397096D01*
X455198Y397002D01*
X452912Y399288D02*
X452806Y399286D01*
X452701Y399280D01*
X452596Y399271D01*
X452491Y399258D01*
X452387Y399241D01*
X452284Y399220D01*
X452181Y399196D01*
X452079Y399167D01*
X451979Y399136D01*
X451879Y399100D01*
X451781Y399062D01*
X451685Y399019D01*
X451589Y398973D01*
X451496Y398924D01*
X451405Y398872D01*
X451315Y398816D01*
X451227Y398757D01*
X451142Y398695D01*
X451059Y398630D01*
X450978Y398562D01*
X450900Y398491D01*
X450825Y398417D01*
X450752Y398341D01*
X450682Y398262D01*
X450615Y398181D01*
X450550Y398097D01*
X450489Y398011D01*
X450431Y397923D01*
X450376Y397833D01*
X450325Y397741D01*
X450276Y397647D01*
X450231Y397551D01*
X450190Y397454D01*
X450152Y397356D01*
X450118Y397256D01*
X454436Y395224D02*
X454503Y395291D01*
X454568Y395360D01*
X454630Y395432D01*
X454689Y395505D01*
X454745Y395582D01*
X454799Y395660D01*
X454849Y395740D01*
X454896Y395822D01*
X454940Y395906D01*
X454980Y395992D01*
X455018Y396079D01*
X455052Y396167D01*
X455082Y396257D01*
X455109Y396347D01*
X455133Y396439D01*
X455153Y396532D01*
X455169Y396625D01*
X455182Y396719D01*
X455191Y396813D01*
X455196Y396907D01*
X455198Y397002D01*
X454436Y395224D02*
X450118Y390144D01*
X455198Y390144D01*
X446532Y280924D02*
X444500Y280924D01*
X444411Y280926D01*
X444323Y280932D01*
X444235Y280941D01*
X444147Y280955D01*
X444060Y280972D01*
X443974Y280993D01*
X443889Y281018D01*
X443805Y281047D01*
X443722Y281079D01*
X443641Y281114D01*
X443562Y281154D01*
X443484Y281196D01*
X443408Y281242D01*
X443334Y281291D01*
X443263Y281344D01*
X443194Y281399D01*
X443127Y281458D01*
X443063Y281519D01*
X443002Y281583D01*
X442943Y281650D01*
X442888Y281719D01*
X442835Y281790D01*
X442786Y281864D01*
X442740Y281940D01*
X442698Y282018D01*
X442658Y282097D01*
X442623Y282178D01*
X442591Y282261D01*
X442562Y282345D01*
X442537Y282430D01*
X442516Y282516D01*
X442499Y282603D01*
X442485Y282691D01*
X442476Y282779D01*
X442470Y282867D01*
X442468Y282956D01*
X442468Y288036D01*
X442470Y288125D01*
X442476Y288213D01*
X442485Y288301D01*
X442499Y288389D01*
X442516Y288476D01*
X442537Y288562D01*
X442562Y288647D01*
X442591Y288731D01*
X442623Y288814D01*
X442658Y288895D01*
X442698Y288974D01*
X442740Y289052D01*
X442786Y289128D01*
X442835Y289202D01*
X442888Y289273D01*
X442943Y289342D01*
X443002Y289409D01*
X443063Y289473D01*
X443127Y289534D01*
X443194Y289593D01*
X443263Y289648D01*
X443334Y289701D01*
X443408Y289750D01*
X443484Y289796D01*
X443562Y289838D01*
X443641Y289878D01*
X443722Y289913D01*
X443805Y289945D01*
X443889Y289974D01*
X443974Y289999D01*
X444060Y290020D01*
X444147Y290037D01*
X444235Y290051D01*
X444323Y290060D01*
X444411Y290066D01*
X444500Y290068D01*
X446532Y290068D01*
X450118Y280924D02*
X452658Y280924D01*
X452758Y280926D01*
X452857Y280932D01*
X452957Y280942D01*
X453055Y280955D01*
X453154Y280973D01*
X453251Y280994D01*
X453347Y281019D01*
X453443Y281048D01*
X453537Y281081D01*
X453630Y281117D01*
X453721Y281157D01*
X453811Y281201D01*
X453899Y281248D01*
X453985Y281298D01*
X454069Y281352D01*
X454151Y281409D01*
X454230Y281469D01*
X454308Y281533D01*
X454382Y281599D01*
X454454Y281668D01*
X454523Y281740D01*
X454589Y281814D01*
X454653Y281892D01*
X454713Y281971D01*
X454770Y282053D01*
X454824Y282137D01*
X454874Y282223D01*
X454921Y282311D01*
X454965Y282401D01*
X455005Y282492D01*
X455041Y282585D01*
X455074Y282679D01*
X455103Y282775D01*
X455128Y282871D01*
X455149Y282968D01*
X455167Y283067D01*
X455180Y283165D01*
X455190Y283265D01*
X455196Y283364D01*
X455198Y283464D01*
X455196Y283564D01*
X455190Y283663D01*
X455180Y283763D01*
X455167Y283861D01*
X455149Y283960D01*
X455128Y284057D01*
X455103Y284153D01*
X455074Y284249D01*
X455041Y284343D01*
X455005Y284436D01*
X454965Y284527D01*
X454921Y284617D01*
X454874Y284705D01*
X454824Y284791D01*
X454770Y284875D01*
X454713Y284957D01*
X454653Y285036D01*
X454589Y285114D01*
X454523Y285188D01*
X454454Y285260D01*
X454382Y285329D01*
X454308Y285395D01*
X454230Y285459D01*
X454151Y285519D01*
X454069Y285576D01*
X453985Y285630D01*
X453899Y285680D01*
X453811Y285727D01*
X453721Y285771D01*
X453630Y285811D01*
X453537Y285847D01*
X453443Y285880D01*
X453347Y285909D01*
X453251Y285934D01*
X453154Y285955D01*
X453055Y285973D01*
X452957Y285986D01*
X452857Y285996D01*
X452758Y286002D01*
X452658Y286004D01*
X453166Y290068D02*
X450118Y290068D01*
X453166Y290068D02*
X453255Y290066D01*
X453343Y290060D01*
X453431Y290051D01*
X453519Y290037D01*
X453606Y290020D01*
X453692Y289999D01*
X453777Y289974D01*
X453861Y289945D01*
X453944Y289913D01*
X454025Y289878D01*
X454104Y289838D01*
X454182Y289796D01*
X454258Y289750D01*
X454332Y289701D01*
X454403Y289648D01*
X454472Y289593D01*
X454539Y289534D01*
X454603Y289473D01*
X454664Y289409D01*
X454723Y289342D01*
X454778Y289273D01*
X454831Y289202D01*
X454880Y289128D01*
X454926Y289052D01*
X454968Y288974D01*
X455008Y288895D01*
X455043Y288814D01*
X455075Y288731D01*
X455104Y288647D01*
X455129Y288562D01*
X455150Y288476D01*
X455167Y288389D01*
X455181Y288301D01*
X455190Y288213D01*
X455196Y288125D01*
X455198Y288036D01*
X455196Y287947D01*
X455190Y287859D01*
X455181Y287771D01*
X455167Y287683D01*
X455150Y287596D01*
X455129Y287510D01*
X455104Y287425D01*
X455075Y287341D01*
X455043Y287258D01*
X455008Y287177D01*
X454968Y287098D01*
X454926Y287020D01*
X454880Y286944D01*
X454831Y286870D01*
X454778Y286799D01*
X454723Y286730D01*
X454664Y286663D01*
X454603Y286599D01*
X454539Y286538D01*
X454472Y286479D01*
X454403Y286424D01*
X454332Y286371D01*
X454258Y286322D01*
X454182Y286276D01*
X454104Y286234D01*
X454025Y286194D01*
X453944Y286159D01*
X453861Y286127D01*
X453777Y286098D01*
X453692Y286073D01*
X453606Y286052D01*
X453519Y286035D01*
X453431Y286021D01*
X453343Y286012D01*
X453255Y286006D01*
X453166Y286004D01*
X451134Y286004D01*
X449072Y173482D02*
X447040Y173482D01*
X446951Y173484D01*
X446863Y173490D01*
X446775Y173499D01*
X446687Y173513D01*
X446600Y173530D01*
X446514Y173551D01*
X446429Y173576D01*
X446345Y173605D01*
X446262Y173637D01*
X446181Y173672D01*
X446102Y173712D01*
X446024Y173754D01*
X445948Y173800D01*
X445874Y173849D01*
X445803Y173902D01*
X445734Y173957D01*
X445667Y174016D01*
X445603Y174077D01*
X445542Y174141D01*
X445483Y174208D01*
X445428Y174277D01*
X445375Y174348D01*
X445326Y174422D01*
X445280Y174498D01*
X445238Y174576D01*
X445198Y174655D01*
X445163Y174736D01*
X445131Y174819D01*
X445102Y174903D01*
X445077Y174988D01*
X445056Y175074D01*
X445039Y175161D01*
X445025Y175249D01*
X445016Y175337D01*
X445010Y175425D01*
X445008Y175514D01*
X445008Y180594D01*
X445010Y180683D01*
X445016Y180771D01*
X445025Y180859D01*
X445039Y180947D01*
X445056Y181034D01*
X445077Y181120D01*
X445102Y181205D01*
X445131Y181289D01*
X445163Y181372D01*
X445198Y181453D01*
X445238Y181532D01*
X445280Y181610D01*
X445326Y181686D01*
X445375Y181760D01*
X445428Y181831D01*
X445483Y181900D01*
X445542Y181967D01*
X445603Y182031D01*
X445667Y182092D01*
X445734Y182151D01*
X445803Y182206D01*
X445874Y182259D01*
X445948Y182308D01*
X446024Y182354D01*
X446102Y182396D01*
X446181Y182436D01*
X446262Y182471D01*
X446345Y182503D01*
X446429Y182532D01*
X446514Y182557D01*
X446600Y182578D01*
X446687Y182595D01*
X446775Y182609D01*
X446863Y182618D01*
X446951Y182624D01*
X447040Y182626D01*
X449072Y182626D01*
X454690Y182626D02*
X452658Y175514D01*
X457738Y175514D01*
X456214Y177546D02*
X456214Y173482D01*
X697992Y347980D02*
X700024Y347980D01*
X697992Y347980D02*
X697903Y347982D01*
X697815Y347988D01*
X697727Y347997D01*
X697639Y348011D01*
X697552Y348028D01*
X697466Y348049D01*
X697381Y348074D01*
X697297Y348103D01*
X697214Y348135D01*
X697133Y348170D01*
X697054Y348210D01*
X696976Y348252D01*
X696900Y348298D01*
X696826Y348347D01*
X696755Y348400D01*
X696686Y348455D01*
X696619Y348514D01*
X696555Y348575D01*
X696494Y348639D01*
X696435Y348706D01*
X696380Y348775D01*
X696327Y348846D01*
X696278Y348920D01*
X696232Y348996D01*
X696190Y349074D01*
X696150Y349153D01*
X696115Y349234D01*
X696083Y349317D01*
X696054Y349401D01*
X696029Y349486D01*
X696008Y349572D01*
X695991Y349659D01*
X695977Y349747D01*
X695968Y349835D01*
X695962Y349923D01*
X695960Y350012D01*
X695960Y355092D01*
X695962Y355181D01*
X695968Y355269D01*
X695977Y355357D01*
X695991Y355445D01*
X696008Y355532D01*
X696029Y355618D01*
X696054Y355703D01*
X696083Y355787D01*
X696115Y355870D01*
X696150Y355951D01*
X696190Y356030D01*
X696232Y356108D01*
X696278Y356184D01*
X696327Y356258D01*
X696380Y356329D01*
X696435Y356398D01*
X696494Y356465D01*
X696555Y356529D01*
X696619Y356590D01*
X696686Y356649D01*
X696755Y356704D01*
X696826Y356757D01*
X696900Y356806D01*
X696976Y356852D01*
X697054Y356894D01*
X697133Y356934D01*
X697214Y356969D01*
X697297Y357001D01*
X697381Y357030D01*
X697466Y357055D01*
X697552Y357076D01*
X697639Y357093D01*
X697727Y357107D01*
X697815Y357116D01*
X697903Y357122D01*
X697992Y357124D01*
X700024Y357124D01*
X703610Y347980D02*
X706658Y347980D01*
X706747Y347982D01*
X706835Y347988D01*
X706923Y347997D01*
X707011Y348011D01*
X707098Y348028D01*
X707184Y348049D01*
X707269Y348074D01*
X707353Y348103D01*
X707436Y348135D01*
X707517Y348170D01*
X707596Y348210D01*
X707674Y348252D01*
X707750Y348298D01*
X707824Y348347D01*
X707895Y348400D01*
X707964Y348455D01*
X708031Y348514D01*
X708095Y348575D01*
X708156Y348639D01*
X708215Y348706D01*
X708270Y348775D01*
X708323Y348846D01*
X708372Y348920D01*
X708418Y348996D01*
X708460Y349074D01*
X708500Y349153D01*
X708535Y349234D01*
X708567Y349317D01*
X708596Y349401D01*
X708621Y349486D01*
X708642Y349572D01*
X708659Y349659D01*
X708673Y349747D01*
X708682Y349835D01*
X708688Y349923D01*
X708690Y350012D01*
X708690Y351028D01*
X708688Y351117D01*
X708682Y351205D01*
X708673Y351293D01*
X708659Y351381D01*
X708642Y351468D01*
X708621Y351554D01*
X708596Y351639D01*
X708567Y351723D01*
X708535Y351806D01*
X708500Y351887D01*
X708460Y351966D01*
X708418Y352044D01*
X708372Y352120D01*
X708323Y352194D01*
X708270Y352265D01*
X708215Y352334D01*
X708156Y352401D01*
X708095Y352465D01*
X708031Y352526D01*
X707964Y352585D01*
X707895Y352640D01*
X707824Y352693D01*
X707750Y352742D01*
X707674Y352788D01*
X707596Y352830D01*
X707517Y352870D01*
X707436Y352905D01*
X707353Y352937D01*
X707269Y352966D01*
X707184Y352991D01*
X707098Y353012D01*
X707011Y353029D01*
X706923Y353043D01*
X706835Y353052D01*
X706747Y353058D01*
X706658Y353060D01*
X703610Y353060D01*
X703610Y357124D01*
X708690Y357124D01*
X753364Y348488D02*
X755396Y348488D01*
X753364Y348488D02*
X753275Y348490D01*
X753187Y348496D01*
X753099Y348505D01*
X753011Y348519D01*
X752924Y348536D01*
X752838Y348557D01*
X752753Y348582D01*
X752669Y348611D01*
X752586Y348643D01*
X752505Y348678D01*
X752426Y348718D01*
X752348Y348760D01*
X752272Y348806D01*
X752198Y348855D01*
X752127Y348908D01*
X752058Y348963D01*
X751991Y349022D01*
X751927Y349083D01*
X751866Y349147D01*
X751807Y349214D01*
X751752Y349283D01*
X751699Y349354D01*
X751650Y349428D01*
X751604Y349504D01*
X751562Y349582D01*
X751522Y349661D01*
X751487Y349742D01*
X751455Y349825D01*
X751426Y349909D01*
X751401Y349994D01*
X751380Y350080D01*
X751363Y350167D01*
X751349Y350255D01*
X751340Y350343D01*
X751334Y350431D01*
X751332Y350520D01*
X751332Y355600D01*
X751334Y355689D01*
X751340Y355777D01*
X751349Y355865D01*
X751363Y355953D01*
X751380Y356040D01*
X751401Y356126D01*
X751426Y356211D01*
X751455Y356295D01*
X751487Y356378D01*
X751522Y356459D01*
X751562Y356538D01*
X751604Y356616D01*
X751650Y356692D01*
X751699Y356766D01*
X751752Y356837D01*
X751807Y356906D01*
X751866Y356973D01*
X751927Y357037D01*
X751991Y357098D01*
X752058Y357157D01*
X752127Y357212D01*
X752198Y357265D01*
X752272Y357314D01*
X752348Y357360D01*
X752426Y357402D01*
X752505Y357442D01*
X752586Y357477D01*
X752669Y357509D01*
X752753Y357538D01*
X752838Y357563D01*
X752924Y357584D01*
X753011Y357601D01*
X753099Y357615D01*
X753187Y357624D01*
X753275Y357630D01*
X753364Y357632D01*
X755396Y357632D01*
X758982Y353568D02*
X762030Y353568D01*
X762119Y353566D01*
X762207Y353560D01*
X762295Y353551D01*
X762383Y353537D01*
X762470Y353520D01*
X762556Y353499D01*
X762641Y353474D01*
X762725Y353445D01*
X762808Y353413D01*
X762889Y353378D01*
X762968Y353338D01*
X763046Y353296D01*
X763122Y353250D01*
X763196Y353201D01*
X763267Y353148D01*
X763336Y353093D01*
X763403Y353034D01*
X763467Y352973D01*
X763528Y352909D01*
X763587Y352842D01*
X763642Y352773D01*
X763695Y352702D01*
X763744Y352628D01*
X763790Y352552D01*
X763832Y352474D01*
X763872Y352395D01*
X763907Y352314D01*
X763939Y352231D01*
X763968Y352147D01*
X763993Y352062D01*
X764014Y351976D01*
X764031Y351889D01*
X764045Y351801D01*
X764054Y351713D01*
X764060Y351625D01*
X764062Y351536D01*
X764062Y351028D01*
X764060Y350928D01*
X764054Y350829D01*
X764044Y350729D01*
X764031Y350631D01*
X764013Y350532D01*
X763992Y350435D01*
X763967Y350339D01*
X763938Y350243D01*
X763905Y350149D01*
X763869Y350056D01*
X763829Y349965D01*
X763785Y349875D01*
X763738Y349787D01*
X763688Y349701D01*
X763634Y349617D01*
X763577Y349535D01*
X763517Y349456D01*
X763453Y349378D01*
X763387Y349304D01*
X763318Y349232D01*
X763246Y349163D01*
X763172Y349097D01*
X763094Y349033D01*
X763015Y348973D01*
X762933Y348916D01*
X762849Y348862D01*
X762763Y348812D01*
X762675Y348765D01*
X762585Y348721D01*
X762494Y348681D01*
X762401Y348645D01*
X762307Y348612D01*
X762211Y348583D01*
X762115Y348558D01*
X762018Y348537D01*
X761919Y348519D01*
X761821Y348506D01*
X761721Y348496D01*
X761622Y348490D01*
X761522Y348488D01*
X761422Y348490D01*
X761323Y348496D01*
X761223Y348506D01*
X761125Y348519D01*
X761026Y348537D01*
X760929Y348558D01*
X760833Y348583D01*
X760737Y348612D01*
X760643Y348645D01*
X760550Y348681D01*
X760459Y348721D01*
X760369Y348765D01*
X760281Y348812D01*
X760195Y348862D01*
X760111Y348916D01*
X760029Y348973D01*
X759950Y349033D01*
X759872Y349097D01*
X759798Y349163D01*
X759726Y349232D01*
X759657Y349304D01*
X759591Y349378D01*
X759527Y349456D01*
X759467Y349535D01*
X759410Y349617D01*
X759356Y349701D01*
X759306Y349787D01*
X759259Y349875D01*
X759215Y349965D01*
X759175Y350056D01*
X759139Y350149D01*
X759106Y350243D01*
X759077Y350339D01*
X759052Y350435D01*
X759031Y350532D01*
X759013Y350631D01*
X759000Y350729D01*
X758990Y350829D01*
X758984Y350928D01*
X758982Y351028D01*
X758982Y353568D01*
X758984Y353693D01*
X758990Y353818D01*
X758999Y353943D01*
X759013Y354067D01*
X759030Y354191D01*
X759051Y354315D01*
X759076Y354437D01*
X759105Y354559D01*
X759137Y354680D01*
X759173Y354800D01*
X759213Y354919D01*
X759256Y355036D01*
X759303Y355152D01*
X759354Y355267D01*
X759408Y355379D01*
X759466Y355491D01*
X759526Y355600D01*
X759591Y355707D01*
X759658Y355813D01*
X759729Y355916D01*
X759803Y356017D01*
X759880Y356116D01*
X759960Y356212D01*
X760043Y356306D01*
X760128Y356397D01*
X760217Y356486D01*
X760308Y356571D01*
X760402Y356654D01*
X760498Y356734D01*
X760597Y356811D01*
X760698Y356885D01*
X760801Y356956D01*
X760907Y357023D01*
X761014Y357088D01*
X761123Y357148D01*
X761235Y357206D01*
X761347Y357260D01*
X761462Y357311D01*
X761578Y357358D01*
X761695Y357401D01*
X761814Y357441D01*
X761934Y357477D01*
X762055Y357509D01*
X762177Y357538D01*
X762299Y357563D01*
X762423Y357584D01*
X762547Y357601D01*
X762671Y357615D01*
X762796Y357624D01*
X762921Y357630D01*
X763046Y357632D01*
X616712Y337312D02*
X614680Y337312D01*
X614591Y337314D01*
X614503Y337320D01*
X614415Y337329D01*
X614327Y337343D01*
X614240Y337360D01*
X614154Y337381D01*
X614069Y337406D01*
X613985Y337435D01*
X613902Y337467D01*
X613821Y337502D01*
X613742Y337542D01*
X613664Y337584D01*
X613588Y337630D01*
X613514Y337679D01*
X613443Y337732D01*
X613374Y337787D01*
X613307Y337846D01*
X613243Y337907D01*
X613182Y337971D01*
X613123Y338038D01*
X613068Y338107D01*
X613015Y338178D01*
X612966Y338252D01*
X612920Y338328D01*
X612878Y338406D01*
X612838Y338485D01*
X612803Y338566D01*
X612771Y338649D01*
X612742Y338733D01*
X612717Y338818D01*
X612696Y338904D01*
X612679Y338991D01*
X612665Y339079D01*
X612656Y339167D01*
X612650Y339255D01*
X612648Y339344D01*
X612648Y344424D01*
X612650Y344513D01*
X612656Y344601D01*
X612665Y344689D01*
X612679Y344777D01*
X612696Y344864D01*
X612717Y344950D01*
X612742Y345035D01*
X612771Y345119D01*
X612803Y345202D01*
X612838Y345283D01*
X612878Y345362D01*
X612920Y345440D01*
X612966Y345516D01*
X613015Y345590D01*
X613068Y345661D01*
X613123Y345730D01*
X613182Y345797D01*
X613243Y345861D01*
X613307Y345922D01*
X613374Y345981D01*
X613443Y346036D01*
X613514Y346089D01*
X613588Y346138D01*
X613664Y346184D01*
X613742Y346226D01*
X613821Y346266D01*
X613902Y346301D01*
X613985Y346333D01*
X614069Y346362D01*
X614154Y346387D01*
X614240Y346408D01*
X614327Y346425D01*
X614415Y346439D01*
X614503Y346448D01*
X614591Y346454D01*
X614680Y346456D01*
X616712Y346456D01*
X620298Y346456D02*
X620298Y345440D01*
X620298Y346456D02*
X625378Y346456D01*
X622838Y337312D01*
D14*
X684520Y144240D02*
X778520Y144240D01*
X778520Y180240D01*
X684520Y180240D01*
X684520Y144240D01*
D15*
X691536Y196606D02*
X691536Y197904D01*
X692834Y197904D01*
X692834Y196606D01*
X691536Y196606D01*
D16*
X654050Y529590D02*
X654050Y732790D01*
X595630Y732790D02*
X595630Y529590D01*
X654050Y529590D01*
X654050Y732790D02*
X635000Y732790D01*
X614680Y732790D02*
X595630Y732790D01*
X614680Y732790D02*
X614683Y732543D01*
X614692Y732295D01*
X614707Y732048D01*
X614728Y731802D01*
X614755Y731556D01*
X614788Y731311D01*
X614827Y731066D01*
X614872Y730823D01*
X614923Y730581D01*
X614980Y730340D01*
X615042Y730101D01*
X615111Y729863D01*
X615185Y729627D01*
X615265Y729393D01*
X615350Y729161D01*
X615442Y728931D01*
X615538Y728703D01*
X615641Y728478D01*
X615748Y728255D01*
X615862Y728035D01*
X615980Y727818D01*
X616104Y727603D01*
X616233Y727392D01*
X616367Y727184D01*
X616506Y726979D01*
X616650Y726778D01*
X616798Y726580D01*
X616952Y726386D01*
X617110Y726196D01*
X617273Y726010D01*
X617440Y725828D01*
X617612Y725650D01*
X617788Y725476D01*
X617968Y725306D01*
X618153Y725141D01*
X618341Y724981D01*
X618533Y724825D01*
X618729Y724673D01*
X618928Y724527D01*
X619131Y724385D01*
X619338Y724249D01*
X619547Y724117D01*
X619760Y723991D01*
X619976Y723870D01*
X620194Y723754D01*
X620416Y723644D01*
X620640Y723539D01*
X620866Y723439D01*
X621095Y723345D01*
X621326Y723257D01*
X621560Y723174D01*
X621795Y723097D01*
X622032Y723026D01*
X622270Y722960D01*
X622510Y722901D01*
X622752Y722847D01*
X622995Y722799D01*
X623238Y722757D01*
X623483Y722721D01*
X623729Y722691D01*
X623975Y722667D01*
X624222Y722649D01*
X624469Y722637D01*
X624716Y722631D01*
X624964Y722631D01*
X625211Y722637D01*
X625458Y722649D01*
X625705Y722667D01*
X625951Y722691D01*
X626197Y722721D01*
X626442Y722757D01*
X626685Y722799D01*
X626928Y722847D01*
X627170Y722901D01*
X627410Y722960D01*
X627648Y723026D01*
X627885Y723097D01*
X628120Y723174D01*
X628354Y723257D01*
X628585Y723345D01*
X628814Y723439D01*
X629040Y723539D01*
X629264Y723644D01*
X629486Y723754D01*
X629704Y723870D01*
X629920Y723991D01*
X630133Y724117D01*
X630342Y724249D01*
X630549Y724385D01*
X630752Y724527D01*
X630951Y724673D01*
X631147Y724825D01*
X631339Y724981D01*
X631527Y725141D01*
X631712Y725306D01*
X631892Y725476D01*
X632068Y725650D01*
X632240Y725828D01*
X632407Y726010D01*
X632570Y726196D01*
X632728Y726386D01*
X632882Y726580D01*
X633030Y726778D01*
X633174Y726979D01*
X633313Y727184D01*
X633447Y727392D01*
X633576Y727603D01*
X633700Y727818D01*
X633818Y728035D01*
X633932Y728255D01*
X634039Y728478D01*
X634142Y728703D01*
X634238Y728931D01*
X634330Y729161D01*
X634415Y729393D01*
X634495Y729627D01*
X634569Y729863D01*
X634638Y730101D01*
X634700Y730340D01*
X634757Y730581D01*
X634808Y730823D01*
X634853Y731066D01*
X634892Y731311D01*
X634925Y731556D01*
X634952Y731802D01*
X634973Y732048D01*
X634988Y732295D01*
X634997Y732543D01*
X635000Y732790D01*
D11*
X597535Y737235D02*
X597535Y748665D01*
X596265Y737235D02*
X598805Y737235D01*
X598805Y748665D02*
X596265Y748665D01*
X606007Y737235D02*
X608547Y737235D01*
X606007Y737235D02*
X605907Y737237D01*
X605808Y737243D01*
X605708Y737253D01*
X605610Y737266D01*
X605511Y737284D01*
X605414Y737305D01*
X605318Y737330D01*
X605222Y737359D01*
X605128Y737392D01*
X605035Y737428D01*
X604944Y737468D01*
X604854Y737512D01*
X604766Y737559D01*
X604680Y737609D01*
X604596Y737663D01*
X604514Y737720D01*
X604435Y737780D01*
X604357Y737844D01*
X604283Y737910D01*
X604211Y737979D01*
X604142Y738051D01*
X604076Y738125D01*
X604012Y738203D01*
X603952Y738282D01*
X603895Y738364D01*
X603841Y738448D01*
X603791Y738534D01*
X603744Y738622D01*
X603700Y738712D01*
X603660Y738803D01*
X603624Y738896D01*
X603591Y738990D01*
X603562Y739086D01*
X603537Y739182D01*
X603516Y739279D01*
X603498Y739378D01*
X603485Y739476D01*
X603475Y739576D01*
X603469Y739675D01*
X603467Y739775D01*
X603467Y746125D01*
X603469Y746225D01*
X603475Y746324D01*
X603485Y746424D01*
X603498Y746522D01*
X603516Y746621D01*
X603537Y746718D01*
X603562Y746814D01*
X603591Y746910D01*
X603624Y747004D01*
X603660Y747097D01*
X603700Y747188D01*
X603744Y747278D01*
X603791Y747366D01*
X603841Y747452D01*
X603895Y747536D01*
X603952Y747618D01*
X604012Y747697D01*
X604076Y747775D01*
X604142Y747849D01*
X604211Y747921D01*
X604283Y747990D01*
X604357Y748056D01*
X604435Y748120D01*
X604514Y748180D01*
X604596Y748237D01*
X604680Y748291D01*
X604766Y748341D01*
X604854Y748388D01*
X604944Y748432D01*
X605035Y748472D01*
X605128Y748508D01*
X605222Y748541D01*
X605318Y748570D01*
X605414Y748595D01*
X605511Y748616D01*
X605610Y748634D01*
X605708Y748647D01*
X605808Y748657D01*
X605907Y748663D01*
X606007Y748665D01*
X608547Y748665D01*
X613029Y746125D02*
X616204Y748665D01*
X616204Y737235D01*
X613029Y737235D02*
X619379Y737235D01*
D16*
X505460Y731520D02*
X505460Y528320D01*
X447040Y528320D02*
X447040Y731520D01*
X447040Y528320D02*
X505460Y528320D01*
X505460Y731520D02*
X486410Y731520D01*
X466090Y731520D02*
X447040Y731520D01*
X466090Y731520D02*
X466093Y731273D01*
X466102Y731025D01*
X466117Y730778D01*
X466138Y730532D01*
X466165Y730286D01*
X466198Y730041D01*
X466237Y729796D01*
X466282Y729553D01*
X466333Y729311D01*
X466390Y729070D01*
X466452Y728831D01*
X466521Y728593D01*
X466595Y728357D01*
X466675Y728123D01*
X466760Y727891D01*
X466852Y727661D01*
X466948Y727433D01*
X467051Y727208D01*
X467158Y726985D01*
X467272Y726765D01*
X467390Y726548D01*
X467514Y726333D01*
X467643Y726122D01*
X467777Y725914D01*
X467916Y725709D01*
X468060Y725508D01*
X468208Y725310D01*
X468362Y725116D01*
X468520Y724926D01*
X468683Y724740D01*
X468850Y724558D01*
X469022Y724380D01*
X469198Y724206D01*
X469378Y724036D01*
X469563Y723871D01*
X469751Y723711D01*
X469943Y723555D01*
X470139Y723403D01*
X470338Y723257D01*
X470541Y723115D01*
X470748Y722979D01*
X470957Y722847D01*
X471170Y722721D01*
X471386Y722600D01*
X471604Y722484D01*
X471826Y722374D01*
X472050Y722269D01*
X472276Y722169D01*
X472505Y722075D01*
X472736Y721987D01*
X472970Y721904D01*
X473205Y721827D01*
X473442Y721756D01*
X473680Y721690D01*
X473920Y721631D01*
X474162Y721577D01*
X474405Y721529D01*
X474648Y721487D01*
X474893Y721451D01*
X475139Y721421D01*
X475385Y721397D01*
X475632Y721379D01*
X475879Y721367D01*
X476126Y721361D01*
X476374Y721361D01*
X476621Y721367D01*
X476868Y721379D01*
X477115Y721397D01*
X477361Y721421D01*
X477607Y721451D01*
X477852Y721487D01*
X478095Y721529D01*
X478338Y721577D01*
X478580Y721631D01*
X478820Y721690D01*
X479058Y721756D01*
X479295Y721827D01*
X479530Y721904D01*
X479764Y721987D01*
X479995Y722075D01*
X480224Y722169D01*
X480450Y722269D01*
X480674Y722374D01*
X480896Y722484D01*
X481114Y722600D01*
X481330Y722721D01*
X481543Y722847D01*
X481752Y722979D01*
X481959Y723115D01*
X482162Y723257D01*
X482361Y723403D01*
X482557Y723555D01*
X482749Y723711D01*
X482937Y723871D01*
X483122Y724036D01*
X483302Y724206D01*
X483478Y724380D01*
X483650Y724558D01*
X483817Y724740D01*
X483980Y724926D01*
X484138Y725116D01*
X484292Y725310D01*
X484440Y725508D01*
X484584Y725709D01*
X484723Y725914D01*
X484857Y726122D01*
X484986Y726333D01*
X485110Y726548D01*
X485228Y726765D01*
X485342Y726985D01*
X485449Y727208D01*
X485552Y727433D01*
X485648Y727661D01*
X485740Y727891D01*
X485825Y728123D01*
X485905Y728357D01*
X485979Y728593D01*
X486048Y728831D01*
X486110Y729070D01*
X486167Y729311D01*
X486218Y729553D01*
X486263Y729796D01*
X486302Y730041D01*
X486335Y730286D01*
X486362Y730532D01*
X486383Y730778D01*
X486398Y731025D01*
X486407Y731273D01*
X486410Y731520D01*
D11*
X448945Y735965D02*
X448945Y747395D01*
X447675Y735965D02*
X450215Y735965D01*
X450215Y747395D02*
X447675Y747395D01*
X457417Y735965D02*
X459957Y735965D01*
X457417Y735965D02*
X457317Y735967D01*
X457218Y735973D01*
X457118Y735983D01*
X457020Y735996D01*
X456921Y736014D01*
X456824Y736035D01*
X456728Y736060D01*
X456632Y736089D01*
X456538Y736122D01*
X456445Y736158D01*
X456354Y736198D01*
X456264Y736242D01*
X456176Y736289D01*
X456090Y736339D01*
X456006Y736393D01*
X455924Y736450D01*
X455845Y736510D01*
X455767Y736574D01*
X455693Y736640D01*
X455621Y736709D01*
X455552Y736781D01*
X455486Y736855D01*
X455422Y736933D01*
X455362Y737012D01*
X455305Y737094D01*
X455251Y737178D01*
X455201Y737264D01*
X455154Y737352D01*
X455110Y737442D01*
X455070Y737533D01*
X455034Y737626D01*
X455001Y737720D01*
X454972Y737816D01*
X454947Y737912D01*
X454926Y738009D01*
X454908Y738108D01*
X454895Y738206D01*
X454885Y738306D01*
X454879Y738405D01*
X454877Y738505D01*
X454877Y744855D01*
X454879Y744955D01*
X454885Y745054D01*
X454895Y745154D01*
X454908Y745252D01*
X454926Y745351D01*
X454947Y745448D01*
X454972Y745544D01*
X455001Y745640D01*
X455034Y745734D01*
X455070Y745827D01*
X455110Y745918D01*
X455154Y746008D01*
X455201Y746096D01*
X455251Y746182D01*
X455305Y746266D01*
X455362Y746348D01*
X455422Y746427D01*
X455486Y746505D01*
X455552Y746579D01*
X455621Y746651D01*
X455693Y746720D01*
X455767Y746786D01*
X455845Y746850D01*
X455924Y746910D01*
X456006Y746967D01*
X456090Y747021D01*
X456176Y747071D01*
X456264Y747118D01*
X456354Y747162D01*
X456445Y747202D01*
X456538Y747238D01*
X456632Y747271D01*
X456728Y747300D01*
X456824Y747325D01*
X456921Y747346D01*
X457020Y747364D01*
X457118Y747377D01*
X457218Y747387D01*
X457317Y747393D01*
X457417Y747395D01*
X459957Y747395D01*
X467931Y747396D02*
X468035Y747394D01*
X468140Y747388D01*
X468244Y747379D01*
X468347Y747366D01*
X468450Y747348D01*
X468552Y747328D01*
X468654Y747303D01*
X468754Y747275D01*
X468854Y747243D01*
X468952Y747207D01*
X469049Y747168D01*
X469144Y747126D01*
X469238Y747080D01*
X469330Y747030D01*
X469420Y746978D01*
X469508Y746922D01*
X469594Y746862D01*
X469678Y746800D01*
X469759Y746735D01*
X469838Y746667D01*
X469915Y746595D01*
X469988Y746522D01*
X470060Y746445D01*
X470128Y746366D01*
X470193Y746285D01*
X470255Y746201D01*
X470315Y746115D01*
X470371Y746027D01*
X470423Y745937D01*
X470473Y745845D01*
X470519Y745751D01*
X470561Y745656D01*
X470600Y745559D01*
X470636Y745461D01*
X470668Y745361D01*
X470696Y745261D01*
X470721Y745159D01*
X470741Y745057D01*
X470759Y744954D01*
X470772Y744851D01*
X470781Y744747D01*
X470787Y744642D01*
X470789Y744538D01*
X467931Y747395D02*
X467813Y747393D01*
X467694Y747387D01*
X467576Y747378D01*
X467459Y747365D01*
X467342Y747347D01*
X467225Y747327D01*
X467109Y747302D01*
X466994Y747274D01*
X466881Y747241D01*
X466768Y747206D01*
X466656Y747166D01*
X466546Y747124D01*
X466437Y747077D01*
X466329Y747027D01*
X466224Y746974D01*
X466120Y746917D01*
X466018Y746857D01*
X465918Y746794D01*
X465820Y746727D01*
X465724Y746658D01*
X465631Y746585D01*
X465540Y746509D01*
X465451Y746431D01*
X465365Y746349D01*
X465282Y746265D01*
X465201Y746179D01*
X465124Y746089D01*
X465049Y745998D01*
X464977Y745904D01*
X464908Y745807D01*
X464843Y745709D01*
X464780Y745608D01*
X464721Y745505D01*
X464665Y745401D01*
X464613Y745295D01*
X464564Y745187D01*
X464519Y745078D01*
X464477Y744967D01*
X464439Y744855D01*
X469837Y742316D02*
X469913Y742391D01*
X469988Y742470D01*
X470059Y742551D01*
X470128Y742635D01*
X470193Y742721D01*
X470255Y742809D01*
X470315Y742899D01*
X470371Y742991D01*
X470424Y743086D01*
X470473Y743182D01*
X470519Y743280D01*
X470562Y743379D01*
X470601Y743480D01*
X470636Y743582D01*
X470668Y743685D01*
X470696Y743789D01*
X470721Y743894D01*
X470742Y744001D01*
X470759Y744107D01*
X470772Y744214D01*
X470781Y744322D01*
X470787Y744430D01*
X470789Y744538D01*
X469836Y742315D02*
X464439Y735965D01*
X470789Y735965D01*
D14*
X362780Y509480D02*
X362780Y440480D01*
X398780Y440480D01*
X398780Y509480D01*
X362780Y509480D01*
D15*
X437116Y501166D02*
X438414Y501166D01*
X437116Y501166D02*
X437116Y502464D01*
X438414Y502464D01*
X438414Y501166D01*
D14*
X362780Y405340D02*
X362780Y336340D01*
X398780Y336340D01*
X398780Y405340D01*
X362780Y405340D01*
D15*
X437116Y397026D02*
X438414Y397026D01*
X437116Y397026D02*
X437116Y398324D01*
X438414Y398324D01*
X438414Y397026D01*
D14*
X362780Y296120D02*
X362780Y227120D01*
X398780Y227120D01*
X398780Y296120D01*
X362780Y296120D01*
D15*
X437116Y287806D02*
X438414Y287806D01*
X437116Y287806D02*
X437116Y289104D01*
X438414Y289104D01*
X438414Y287806D01*
D14*
X362780Y187154D02*
X362780Y118154D01*
X398780Y118154D01*
X398780Y187154D01*
X362780Y187154D01*
D15*
X437116Y178840D02*
X438414Y178840D01*
X437116Y178840D02*
X437116Y180138D01*
X438414Y180138D01*
X438414Y178840D01*
D11*
X670306Y322580D02*
X724916Y322580D01*
X724916Y229870D01*
X670306Y229870D01*
X670306Y322580D01*
D14*
X763710Y637430D02*
X763710Y718930D01*
X727710Y718930D01*
X727710Y637430D01*
X763710Y637430D01*
D15*
X711444Y644446D02*
X710146Y644446D01*
X710146Y645744D01*
X711444Y645744D01*
X711444Y644446D01*
D14*
X362780Y609490D02*
X362780Y690990D01*
X362780Y609490D02*
X398780Y609490D01*
X398780Y690990D01*
X362780Y690990D01*
D15*
X437116Y682676D02*
X438414Y682676D01*
X437116Y682676D02*
X437116Y683974D01*
X438414Y683974D01*
X438414Y682676D01*
X523240Y495300D02*
X523240Y139700D01*
X574040Y139700D02*
X574040Y495300D01*
X523240Y495300D01*
X523240Y139700D02*
X538480Y139700D01*
X558800Y139700D02*
X574040Y139700D01*
X558800Y139700D02*
X558797Y139947D01*
X558788Y140195D01*
X558773Y140442D01*
X558752Y140688D01*
X558725Y140934D01*
X558692Y141179D01*
X558653Y141424D01*
X558608Y141667D01*
X558557Y141909D01*
X558500Y142150D01*
X558438Y142389D01*
X558369Y142627D01*
X558295Y142863D01*
X558215Y143097D01*
X558130Y143329D01*
X558038Y143559D01*
X557942Y143787D01*
X557839Y144012D01*
X557732Y144235D01*
X557618Y144455D01*
X557500Y144672D01*
X557376Y144887D01*
X557247Y145098D01*
X557113Y145306D01*
X556974Y145511D01*
X556830Y145712D01*
X556682Y145910D01*
X556528Y146104D01*
X556370Y146294D01*
X556207Y146480D01*
X556040Y146662D01*
X555868Y146840D01*
X555692Y147014D01*
X555512Y147184D01*
X555327Y147349D01*
X555139Y147509D01*
X554947Y147665D01*
X554751Y147817D01*
X554552Y147963D01*
X554349Y148105D01*
X554142Y148241D01*
X553933Y148373D01*
X553720Y148499D01*
X553504Y148620D01*
X553286Y148736D01*
X553064Y148846D01*
X552840Y148951D01*
X552614Y149051D01*
X552385Y149145D01*
X552154Y149233D01*
X551920Y149316D01*
X551685Y149393D01*
X551448Y149464D01*
X551210Y149530D01*
X550970Y149589D01*
X550728Y149643D01*
X550485Y149691D01*
X550242Y149733D01*
X549997Y149769D01*
X549751Y149799D01*
X549505Y149823D01*
X549258Y149841D01*
X549011Y149853D01*
X548764Y149859D01*
X548516Y149859D01*
X548269Y149853D01*
X548022Y149841D01*
X547775Y149823D01*
X547529Y149799D01*
X547283Y149769D01*
X547038Y149733D01*
X546795Y149691D01*
X546552Y149643D01*
X546310Y149589D01*
X546070Y149530D01*
X545832Y149464D01*
X545595Y149393D01*
X545360Y149316D01*
X545126Y149233D01*
X544895Y149145D01*
X544666Y149051D01*
X544440Y148951D01*
X544216Y148846D01*
X543994Y148736D01*
X543776Y148620D01*
X543560Y148499D01*
X543347Y148373D01*
X543138Y148241D01*
X542931Y148105D01*
X542728Y147963D01*
X542529Y147817D01*
X542333Y147665D01*
X542141Y147509D01*
X541953Y147349D01*
X541768Y147184D01*
X541588Y147014D01*
X541412Y146840D01*
X541240Y146662D01*
X541073Y146480D01*
X540910Y146294D01*
X540752Y146104D01*
X540598Y145910D01*
X540450Y145712D01*
X540306Y145511D01*
X540167Y145306D01*
X540033Y145098D01*
X539904Y144887D01*
X539780Y144672D01*
X539662Y144455D01*
X539548Y144235D01*
X539441Y144012D01*
X539338Y143787D01*
X539242Y143559D01*
X539150Y143329D01*
X539065Y143097D01*
X538985Y142863D01*
X538911Y142627D01*
X538842Y142389D01*
X538780Y142150D01*
X538723Y141909D01*
X538672Y141667D01*
X538627Y141424D01*
X538588Y141179D01*
X538555Y140934D01*
X538528Y140688D01*
X538507Y140442D01*
X538492Y140195D01*
X538483Y139947D01*
X538480Y139700D01*
D17*
X575310Y133350D02*
X575312Y133492D01*
X575318Y133635D01*
X575328Y133777D01*
X575342Y133919D01*
X575360Y134060D01*
X575382Y134201D01*
X575408Y134341D01*
X575437Y134480D01*
X575471Y134619D01*
X575509Y134756D01*
X575550Y134893D01*
X575595Y135028D01*
X575644Y135162D01*
X575697Y135294D01*
X575753Y135425D01*
X575813Y135554D01*
X575877Y135682D01*
X575944Y135807D01*
X576015Y135931D01*
X576089Y136053D01*
X576166Y136172D01*
X576247Y136290D01*
X576331Y136405D01*
X576418Y136517D01*
X576509Y136627D01*
X576602Y136735D01*
X576699Y136840D01*
X576798Y136942D01*
X576900Y137041D01*
X577005Y137138D01*
X577113Y137231D01*
X577223Y137322D01*
X577335Y137409D01*
X577450Y137493D01*
X577568Y137574D01*
X577687Y137651D01*
X577809Y137725D01*
X577933Y137796D01*
X578058Y137863D01*
X578186Y137927D01*
X578315Y137987D01*
X578446Y138043D01*
X578578Y138096D01*
X578712Y138145D01*
X578847Y138190D01*
X578984Y138231D01*
X579121Y138269D01*
X579260Y138303D01*
X579399Y138332D01*
X579539Y138358D01*
X579680Y138380D01*
X579821Y138398D01*
X579963Y138412D01*
X580105Y138422D01*
X580248Y138428D01*
X580390Y138430D01*
X580532Y138428D01*
X580675Y138422D01*
X580817Y138412D01*
X580959Y138398D01*
X581100Y138380D01*
X581241Y138358D01*
X581381Y138332D01*
X581520Y138303D01*
X581659Y138269D01*
X581796Y138231D01*
X581933Y138190D01*
X582068Y138145D01*
X582202Y138096D01*
X582334Y138043D01*
X582465Y137987D01*
X582594Y137927D01*
X582722Y137863D01*
X582847Y137796D01*
X582971Y137725D01*
X583093Y137651D01*
X583212Y137574D01*
X583330Y137493D01*
X583445Y137409D01*
X583557Y137322D01*
X583667Y137231D01*
X583775Y137138D01*
X583880Y137041D01*
X583982Y136942D01*
X584081Y136840D01*
X584178Y136735D01*
X584271Y136627D01*
X584362Y136517D01*
X584449Y136405D01*
X584533Y136290D01*
X584614Y136172D01*
X584691Y136053D01*
X584765Y135931D01*
X584836Y135807D01*
X584903Y135682D01*
X584967Y135554D01*
X585027Y135425D01*
X585083Y135294D01*
X585136Y135162D01*
X585185Y135028D01*
X585230Y134893D01*
X585271Y134756D01*
X585309Y134619D01*
X585343Y134480D01*
X585372Y134341D01*
X585398Y134201D01*
X585420Y134060D01*
X585438Y133919D01*
X585452Y133777D01*
X585462Y133635D01*
X585468Y133492D01*
X585470Y133350D01*
X585468Y133208D01*
X585462Y133065D01*
X585452Y132923D01*
X585438Y132781D01*
X585420Y132640D01*
X585398Y132499D01*
X585372Y132359D01*
X585343Y132220D01*
X585309Y132081D01*
X585271Y131944D01*
X585230Y131807D01*
X585185Y131672D01*
X585136Y131538D01*
X585083Y131406D01*
X585027Y131275D01*
X584967Y131146D01*
X584903Y131018D01*
X584836Y130893D01*
X584765Y130769D01*
X584691Y130647D01*
X584614Y130528D01*
X584533Y130410D01*
X584449Y130295D01*
X584362Y130183D01*
X584271Y130073D01*
X584178Y129965D01*
X584081Y129860D01*
X583982Y129758D01*
X583880Y129659D01*
X583775Y129562D01*
X583667Y129469D01*
X583557Y129378D01*
X583445Y129291D01*
X583330Y129207D01*
X583212Y129126D01*
X583093Y129049D01*
X582971Y128975D01*
X582847Y128904D01*
X582722Y128837D01*
X582594Y128773D01*
X582465Y128713D01*
X582334Y128657D01*
X582202Y128604D01*
X582068Y128555D01*
X581933Y128510D01*
X581796Y128469D01*
X581659Y128431D01*
X581520Y128397D01*
X581381Y128368D01*
X581241Y128342D01*
X581100Y128320D01*
X580959Y128302D01*
X580817Y128288D01*
X580675Y128278D01*
X580532Y128272D01*
X580390Y128270D01*
X580248Y128272D01*
X580105Y128278D01*
X579963Y128288D01*
X579821Y128302D01*
X579680Y128320D01*
X579539Y128342D01*
X579399Y128368D01*
X579260Y128397D01*
X579121Y128431D01*
X578984Y128469D01*
X578847Y128510D01*
X578712Y128555D01*
X578578Y128604D01*
X578446Y128657D01*
X578315Y128713D01*
X578186Y128773D01*
X578058Y128837D01*
X577933Y128904D01*
X577809Y128975D01*
X577687Y129049D01*
X577568Y129126D01*
X577450Y129207D01*
X577335Y129291D01*
X577223Y129378D01*
X577113Y129469D01*
X577005Y129562D01*
X576900Y129659D01*
X576798Y129758D01*
X576699Y129860D01*
X576602Y129965D01*
X576509Y130073D01*
X576418Y130183D01*
X576331Y130295D01*
X576247Y130410D01*
X576166Y130528D01*
X576089Y130647D01*
X576015Y130769D01*
X575944Y130893D01*
X575877Y131018D01*
X575813Y131146D01*
X575753Y131275D01*
X575697Y131406D01*
X575644Y131538D01*
X575595Y131672D01*
X575550Y131807D01*
X575509Y131944D01*
X575471Y132081D01*
X575437Y132220D01*
X575408Y132359D01*
X575382Y132499D01*
X575360Y132640D01*
X575342Y132781D01*
X575328Y132923D01*
X575318Y133065D01*
X575312Y133208D01*
X575310Y133350D01*
D11*
X544465Y132715D02*
X544465Y129230D01*
X544464Y129230D02*
X544466Y129159D01*
X544472Y129087D01*
X544481Y129017D01*
X544494Y128947D01*
X544511Y128877D01*
X544532Y128809D01*
X544556Y128742D01*
X544584Y128676D01*
X544615Y128612D01*
X544650Y128549D01*
X544688Y128489D01*
X544729Y128430D01*
X544773Y128374D01*
X544820Y128320D01*
X544869Y128269D01*
X544922Y128221D01*
X544977Y128175D01*
X545034Y128133D01*
X545094Y128093D01*
X545155Y128057D01*
X545219Y128024D01*
X545284Y127995D01*
X545350Y127969D01*
X545418Y127946D01*
X545487Y127927D01*
X545557Y127912D01*
X545627Y127901D01*
X545698Y127893D01*
X545769Y127889D01*
X545841Y127889D01*
X545912Y127893D01*
X545983Y127901D01*
X546053Y127912D01*
X546123Y127927D01*
X546192Y127946D01*
X546260Y127969D01*
X546326Y127995D01*
X546391Y128024D01*
X546455Y128057D01*
X546516Y128093D01*
X546576Y128133D01*
X546633Y128175D01*
X546688Y128221D01*
X546741Y128269D01*
X546790Y128320D01*
X546837Y128374D01*
X546881Y128430D01*
X546922Y128489D01*
X546960Y128549D01*
X546995Y128612D01*
X547026Y128676D01*
X547054Y128742D01*
X547078Y128809D01*
X547099Y128877D01*
X547116Y128947D01*
X547129Y129017D01*
X547138Y129087D01*
X547144Y129159D01*
X547146Y129230D01*
X547146Y132715D01*
X550134Y131643D02*
X551475Y132715D01*
X551475Y127889D01*
X552815Y127889D02*
X550134Y127889D01*
M02*
