G04 EAGLE Gerber X2 export*
%TF.Part,Single*%
%TF.FileFunction,Paste,Top*%
%TF.FilePolarity,Positive*%
%TF.GenerationSoftware,Autodesk,EAGLE,8.6.3*%
%TF.CreationDate,2018-03-05T01:58:30Z*%
G75*
%MOMM*%
%FSLAX34Y34*%
%LPD*%
%AMOC8*
5,1,8,0,0,1.08239X$1,22.5*%
G01*
%ADD10R,2.200000X1.600000*%
%ADD11R,1.800000X0.700000*%
%ADD12R,1.498600X2.489200*%
%ADD13R,7.010400X7.010400*%
%ADD14R,1.447800X0.914400*%
%ADD15R,0.914400X1.447800*%
%ADD16R,1.600000X2.200000*%
%ADD17R,0.700000X1.800000*%
%ADD18R,2.514600X1.244600*%


D10*
X777460Y230870D03*
X777460Y292370D03*
D11*
X750460Y255370D03*
X750460Y267870D03*
D12*
X762000Y403606D03*
D13*
X739140Y472440D03*
D12*
X714502Y403352D03*
D14*
X449580Y469392D03*
X449580Y485648D03*
X449580Y365252D03*
X449580Y381508D03*
X449580Y256032D03*
X449580Y272288D03*
X449580Y148590D03*
X449580Y164846D03*
D15*
X701548Y367792D03*
X717804Y367792D03*
X772668Y368300D03*
X756412Y368300D03*
D14*
X619760Y328168D03*
X619760Y311912D03*
D16*
X781020Y162340D03*
X682020Y162340D03*
D17*
X706520Y189340D03*
X719020Y189340D03*
X731520Y189340D03*
X744020Y189340D03*
X756520Y189340D03*
D11*
X407780Y487480D03*
X407780Y474980D03*
X407780Y462480D03*
D10*
X380780Y513480D03*
X380780Y436480D03*
D11*
X407780Y383340D03*
X407780Y370840D03*
X407780Y358340D03*
D10*
X380780Y409340D03*
X380780Y332340D03*
D11*
X407780Y274120D03*
X407780Y261620D03*
X407780Y249120D03*
D10*
X380780Y300120D03*
X380780Y223120D03*
D11*
X407780Y165154D03*
X407780Y152654D03*
X407780Y140154D03*
D10*
X380780Y191154D03*
X380780Y114154D03*
D18*
X709676Y275590D03*
X709676Y300482D03*
X709676Y250698D03*
D10*
X745710Y634930D03*
X745710Y721430D03*
D11*
X718710Y659430D03*
X718710Y671930D03*
X718710Y684430D03*
X718710Y696930D03*
D10*
X380780Y693490D03*
X380780Y606990D03*
D11*
X407780Y668990D03*
X407780Y656490D03*
X407780Y643990D03*
X407780Y631490D03*
M02*
