G04 EAGLE Gerber X2 export*
%TF.Part,Single*%
%TF.FileFunction,Soldermask,Bot,1*%
%TF.FilePolarity,Negative*%
%TF.GenerationSoftware,Autodesk,EAGLE,8.6.3*%
%TF.CreationDate,2018-03-05T01:58:30Z*%
G75*
%MOMM*%
%FSLAX34Y34*%
%LPD*%
%AMOC8*
5,1,8,0,0,1.08239X$1,22.5*%
G01*
%ADD10C,1.524000*%
%ADD11C,0.553200*%
%ADD12C,1.828800*%
%ADD13C,0.959600*%


D10*
X580136Y720090D02*
X593344Y720090D01*
X593344Y694690D02*
X580136Y694690D01*
X580136Y567690D02*
X593344Y567690D01*
X593344Y542290D02*
X580136Y542290D01*
X580136Y669290D02*
X593344Y669290D01*
X593344Y643890D02*
X580136Y643890D01*
X580136Y593090D02*
X593344Y593090D01*
X593344Y618490D02*
X580136Y618490D01*
X656336Y542290D02*
X669544Y542290D01*
X669544Y567690D02*
X656336Y567690D01*
X656336Y593090D02*
X669544Y593090D01*
X669544Y618490D02*
X656336Y618490D01*
X656336Y643890D02*
X669544Y643890D01*
X669544Y669290D02*
X656336Y669290D01*
X656336Y694690D02*
X669544Y694690D01*
X669544Y720090D02*
X656336Y720090D01*
X444754Y718820D02*
X431546Y718820D01*
X431546Y693420D02*
X444754Y693420D01*
X444754Y566420D02*
X431546Y566420D01*
X431546Y541020D02*
X444754Y541020D01*
X444754Y668020D02*
X431546Y668020D01*
X431546Y642620D02*
X444754Y642620D01*
X444754Y591820D02*
X431546Y591820D01*
X431546Y617220D02*
X444754Y617220D01*
X507746Y541020D02*
X520954Y541020D01*
X520954Y566420D02*
X507746Y566420D01*
X507746Y591820D02*
X520954Y591820D01*
X520954Y617220D02*
X507746Y617220D01*
X507746Y642620D02*
X520954Y642620D01*
X520954Y668020D02*
X507746Y668020D01*
X507746Y693420D02*
X520954Y693420D01*
X520954Y718820D02*
X507746Y718820D01*
D11*
X682371Y309499D03*
X682371Y241681D03*
D12*
X586740Y152400D03*
X586740Y177800D03*
X586740Y203200D03*
X586740Y228600D03*
X586740Y254000D03*
X586740Y279400D03*
X586740Y304800D03*
X586740Y330200D03*
X586740Y355600D03*
X586740Y381000D03*
X586740Y406400D03*
X586740Y431800D03*
X586740Y457200D03*
X586740Y482600D03*
X510540Y482600D03*
X510540Y457200D03*
X510540Y431800D03*
X510540Y406400D03*
X510540Y381000D03*
X510540Y355600D03*
X510540Y330200D03*
X510540Y304800D03*
X510540Y279400D03*
X510540Y254000D03*
X510540Y228600D03*
X510540Y203200D03*
X510540Y177800D03*
X510540Y152400D03*
D13*
X787400Y368300D03*
X685800Y368300D03*
X695960Y187960D03*
X431800Y124460D03*
X434340Y236220D03*
X431800Y337820D03*
X429260Y447040D03*
X688340Y469900D03*
X739140Y520700D03*
X749300Y284480D03*
X703580Y650240D03*
X607060Y668020D03*
X683260Y607060D03*
X586740Y604520D03*
X462280Y645160D03*
X464820Y604520D03*
X454660Y655320D03*
X454660Y604520D03*
X454660Y502920D03*
X474980Y546100D03*
X429260Y370840D03*
X470126Y330200D03*
X429260Y474980D03*
X470126Y431800D03*
X429260Y261620D03*
X485140Y228600D03*
X429260Y152400D03*
X485140Y203200D03*
X558800Y530860D03*
X558800Y508000D03*
X594360Y508000D03*
X609600Y533400D03*
X601980Y497840D03*
X622300Y533400D03*
X614680Y480060D03*
X568960Y551180D03*
X419100Y619760D03*
X419100Y690880D03*
X477520Y504980D03*
X474980Y533400D03*
X497106Y431800D03*
X531789Y535011D03*
X487680Y487680D03*
X487680Y563880D03*
M02*
